M48
;Layer_Color=9474304
;FILE_FORMAT=2:4
INCH,LZ
;TYPE=PLATED
T1F00S00C0.0150
T2F00S00C0.0200
T3F00S00C0.0276
T4F00S00C0.0315
T5F00S00C0.0354
T6F00S00C0.0394
T7F00S00C0.0709
T8F00S00C0.0866
T9F00S00C0.0906
T10F00S00C0.1181
T11F00S00C0.1339
T12F00S00C0.1378
;TYPE=NON_PLATED
T13F00S00C0.0354
T14F00S00C0.0709
T15F00S00C0.1024
T16F00S00C0.1102
T17F00S00C0.1378
%
T01
X0063Y-0162
T02
X014Y-018307
X01515Y-01485
X0173Y-014848
X0176Y-0058
X0166
T03
X0097Y-02135
Y-02085
Y-02035
Y-01985
Y-01935
Y-01885
Y-01835
Y-01785
Y-01735
Y-01685
Y-01635
X006378Y-015122
Y-014622
Y-014122
Y-013622
T04
X021946Y-01085
X020961
X009284Y-010591
X007316
T05
X015099Y-0123
X015099Y-0113
Y-0103
X0161
Y-0113
Y-0123
X005433Y-018032
Y-019016
Y-019882
Y-020709
X004449
Y-019882
Y-018858
Y-018032
X001142Y-010236
T06
X024921Y-007063
Y-006063
Y-005063
T07
X009Y-01435
T08
X003268Y-021969
Y-016772
T09
X003661Y-01937
X013465Y-003661
X019764
T10
X00311Y-005118
T11
X00189Y-01937
X013465Y-00189
X019764
T12
X005472Y-005118
T13
X014114Y-008402
X015114
X016114
X017114
X018114
X019114
Y-007402
X018114
X017114
X016114
X015114
X014114
X002717Y-010236
Y-01122
Y-012205
X001142
Y-01122
Y-014173
X002717
T14
X020906Y-020551
Y-018976
Y-017402
Y-015827
Y-014252
T15
X00065Y-021043
Y-017697
X011791Y-00065
X015138
X018091
X021437
T16
X005512Y-025307
T17
X001575Y-025307
X025335Y-001969
M30
