G04 Layer_Physical_Order=2*
G04 Layer_Color=16711680*
%FSLAX24Y24*%
%MOIN*%
G70*
G01*
G75*
%ADD15R,0.0453X0.0571*%
%ADD16C,0.0400*%
%ADD17C,0.0150*%
%ADD19P,0.1321X8X112.5*%
%ADD20C,0.1260*%
%ADD21C,0.0591*%
%ADD22P,0.1321X8X202.5*%
G04:AMPARAMS|DCode=23|XSize=165.4mil|YSize=173.2mil|CornerRadius=0mil|HoleSize=0mil|Usage=FLASHONLY|Rotation=90.000|XOffset=0mil|YOffset=0mil|HoleType=Round|Shape=Octagon|*
%AMOCTAGOND23*
4,1,8,-0.0866,-0.0413,-0.0866,0.0413,-0.0453,0.0827,0.0453,0.0827,0.0866,0.0413,0.0866,-0.0413,0.0453,-0.0827,-0.0453,-0.0827,-0.0866,-0.0413,0.0*
%
%ADD23OCTAGOND23*%

%ADD24C,0.1024*%
%ADD25O,0.1024X0.1260*%
%ADD26P,0.1875X8X202.5*%
%ADD27C,0.1378*%
%ADD28C,0.1102*%
%ADD29C,0.0669*%
%ADD30R,0.0630X0.0669*%
%ADD31C,0.0512*%
G04:AMPARAMS|DCode=32|XSize=98.4mil|YSize=118.1mil|CornerRadius=0mil|HoleSize=0mil|Usage=FLASHONLY|Rotation=270.000|XOffset=0mil|YOffset=0mil|HoleType=Round|Shape=Octagon|*
%AMOCTAGOND32*
4,1,8,0.0591,0.0246,0.0591,-0.0246,0.0344,-0.0492,-0.0344,-0.0492,-0.0591,-0.0246,-0.0591,0.0246,-0.0344,0.0492,0.0344,0.0492,0.0591,0.0246,0.0*
%
%ADD32OCTAGOND32*%

%ADD33P,0.0554X8X112.5*%
%ADD34C,0.0551*%
%ADD35R,0.0709X0.0394*%
%ADD36O,0.0709X0.0394*%
%ADD37P,0.1918X8X22.5*%
%ADD38P,0.1705X8X22.5*%
%ADD39R,0.0591X0.0591*%
%ADD40P,0.0682X8X292.5*%
%ADD41C,0.0340*%
%ADD42C,0.0300*%
%ADD43R,0.0571X0.0453*%
G36*
X4488Y0D02*
X11601D01*
X11610Y-60D01*
X11554Y-77D01*
X11447Y-134D01*
X11353Y-211D01*
X11276Y-305D01*
X11219Y-412D01*
X11183Y-529D01*
X11172Y-650D01*
X11183Y-771D01*
X11219Y-887D01*
X11276Y-994D01*
X11353Y-1088D01*
X11447Y-1165D01*
X11554Y-1222D01*
X11670Y-1257D01*
X11791Y-1269D01*
X11912Y-1257D01*
X12029Y-1222D01*
X12136Y-1165D01*
X12230Y-1088D01*
X12307Y-994D01*
X12364Y-887D01*
X12399Y-771D01*
X12411Y-650D01*
X12399Y-529D01*
X12364Y-412D01*
X12307Y-305D01*
X12230Y-211D01*
X12136Y-134D01*
X12029Y-77D01*
X11973Y-60D01*
X11981Y0D01*
X14948D01*
X14957Y-60D01*
X14901Y-77D01*
X14793Y-134D01*
X14700Y-211D01*
X14622Y-305D01*
X14565Y-412D01*
X14530Y-529D01*
X14518Y-650D01*
X14530Y-771D01*
X14565Y-887D01*
X14622Y-994D01*
X14700Y-1088D01*
X14793Y-1165D01*
X14901Y-1222D01*
X15017Y-1257D01*
X15138Y-1269D01*
X15259Y-1257D01*
X15375Y-1222D01*
X15482Y-1165D01*
X15576Y-1088D01*
X15653Y-994D01*
X15710Y-887D01*
X15746Y-771D01*
X15758Y-650D01*
X15746Y-529D01*
X15710Y-412D01*
X15653Y-305D01*
X15576Y-211D01*
X15482Y-134D01*
X15375Y-77D01*
X15319Y-60D01*
X15328Y0D01*
X17900D01*
X17909Y-60D01*
X17853Y-77D01*
X17746Y-134D01*
X17652Y-211D01*
X17575Y-305D01*
X17518Y-412D01*
X17483Y-529D01*
X17471Y-650D01*
X17483Y-771D01*
X17518Y-887D01*
X17575Y-994D01*
X17652Y-1088D01*
X17746Y-1165D01*
X17853Y-1222D01*
X17970Y-1257D01*
X18091Y-1269D01*
X18211Y-1257D01*
X18328Y-1222D01*
X18435Y-1165D01*
X18529Y-1088D01*
X18606Y-994D01*
X18663Y-887D01*
X18698Y-771D01*
X18710Y-650D01*
X18698Y-529D01*
X18663Y-412D01*
X18606Y-305D01*
X18529Y-211D01*
X18435Y-134D01*
X18328Y-77D01*
X18272Y-60D01*
X18281Y0D01*
X21247D01*
X21256Y-60D01*
X21200Y-77D01*
X21093Y-134D01*
X20999Y-211D01*
X20922Y-305D01*
X20864Y-412D01*
X20829Y-529D01*
X20817Y-650D01*
X20829Y-771D01*
X20864Y-887D01*
X20922Y-994D01*
X20999Y-1088D01*
X21093Y-1165D01*
X21200Y-1222D01*
X21316Y-1257D01*
X21437Y-1269D01*
X21558Y-1257D01*
X21674Y-1222D01*
X21781Y-1165D01*
X21875Y-1088D01*
X21952Y-994D01*
X22010Y-887D01*
X22045Y-771D01*
X22057Y-650D01*
X22045Y-529D01*
X22010Y-412D01*
X21952Y-305D01*
X21875Y-211D01*
X21781Y-134D01*
X21674Y-77D01*
X21618Y-60D01*
X21627Y0D01*
X27382D01*
Y-3543D01*
X26575D01*
Y-8465D01*
X22972D01*
Y-22984D01*
X20984D01*
Y-24559D01*
X17067D01*
Y-22984D01*
X7087D01*
Y-27276D01*
X0D01*
Y-21233D01*
X60Y-21224D01*
X77Y-21280D01*
X134Y-21388D01*
X211Y-21482D01*
X305Y-21559D01*
X412Y-21616D01*
X529Y-21651D01*
X650Y-21663D01*
X771Y-21651D01*
X887Y-21616D01*
X994Y-21559D01*
X1088Y-21482D01*
X1165Y-21388D01*
X1222Y-21280D01*
X1257Y-21164D01*
X1269Y-21043D01*
X1257Y-20922D01*
X1222Y-20806D01*
X1165Y-20699D01*
X1088Y-20605D01*
X994Y-20528D01*
X887Y-20471D01*
X771Y-20435D01*
X650Y-20424D01*
X529Y-20435D01*
X412Y-20471D01*
X305Y-20528D01*
X211Y-20605D01*
X134Y-20699D01*
X77Y-20806D01*
X60Y-20862D01*
X0Y-20853D01*
Y-17887D01*
X60Y-17878D01*
X77Y-17934D01*
X134Y-18041D01*
X211Y-18135D01*
X305Y-18212D01*
X412Y-18269D01*
X529Y-18305D01*
X650Y-18317D01*
X771Y-18305D01*
X887Y-18269D01*
X994Y-18212D01*
X1088Y-18135D01*
X1165Y-18041D01*
X1222Y-17934D01*
X1257Y-17818D01*
X1269Y-17697D01*
X1257Y-17576D01*
X1222Y-17460D01*
X1165Y-17353D01*
X1088Y-17259D01*
X994Y-17182D01*
X887Y-17124D01*
X771Y-17089D01*
X650Y-17077D01*
X529Y-17089D01*
X412Y-17124D01*
X305Y-17182D01*
X211Y-17259D01*
X134Y-17353D01*
X77Y-17460D01*
X60Y-17516D01*
X0Y-17507D01*
Y0D01*
X2500D01*
Y1378D01*
X4488D01*
Y0D01*
D02*
G37*
%LPC*%
G36*
X16852Y-14262D02*
X12300D01*
X12247Y-14273D01*
X12203Y-14303D01*
X12203Y-14303D01*
X10893Y-15612D01*
X8950D01*
X8897Y-15623D01*
X8853Y-15653D01*
X8443Y-16062D01*
X6461D01*
X6451Y-16049D01*
X6382Y-16002D01*
X6300Y-15986D01*
X6218Y-16002D01*
X6149Y-16049D01*
X6102Y-16118D01*
X6086Y-16200D01*
X6102Y-16282D01*
X6149Y-16351D01*
X6218Y-16398D01*
X6300Y-16414D01*
X6382Y-16398D01*
X6451Y-16351D01*
X6461Y-16338D01*
X8500D01*
X8553Y-16327D01*
X8597Y-16297D01*
X9007Y-15888D01*
X10950D01*
X10991Y-15879D01*
X11020Y-15914D01*
X11026Y-15929D01*
X10743Y-16212D01*
X10159D01*
Y-16048D01*
X9241D01*
Y-16652D01*
X9253D01*
X9273Y-16700D01*
X9700D01*
X10127D01*
X10147Y-16652D01*
X10159D01*
Y-16488D01*
X10800D01*
X10853Y-16477D01*
X10897Y-16447D01*
X12363Y-14982D01*
X14962D01*
X14984Y-15016D01*
X15060Y-15067D01*
X15150Y-15085D01*
X15240Y-15067D01*
X15316Y-15016D01*
X15367Y-14940D01*
X15385Y-14850D01*
X15367Y-14760D01*
X15316Y-14684D01*
X15240Y-14633D01*
X15150Y-14615D01*
X15060Y-14633D01*
X14984Y-14684D01*
X14969Y-14707D01*
X12306D01*
X12265Y-14715D01*
X12236Y-14680D01*
X12229Y-14666D01*
X12357Y-14538D01*
X16795D01*
X17072Y-14815D01*
X17065Y-14848D01*
X17083Y-14938D01*
X17134Y-15014D01*
X17210Y-15065D01*
X17300Y-15083D01*
X17390Y-15065D01*
X17466Y-15014D01*
X17517Y-14938D01*
X17535Y-14848D01*
X17517Y-14759D01*
X17466Y-14683D01*
X17390Y-14632D01*
X17300Y-14614D01*
X17267Y-14621D01*
X16949Y-14303D01*
X16904Y-14273D01*
X16852Y-14262D01*
D02*
G37*
G36*
X6837Y-13320D02*
X5919D01*
Y-13924D01*
X5924D01*
X5951Y-13984D01*
X5926Y-14043D01*
X5916Y-14122D01*
X5926Y-14201D01*
X5957Y-14274D01*
X6005Y-14337D01*
X6011Y-14342D01*
Y-14402D01*
X6005Y-14407D01*
X5957Y-14470D01*
X5926Y-14543D01*
X5916Y-14622D01*
X5926Y-14701D01*
X5957Y-14774D01*
X6005Y-14837D01*
X6011Y-14842D01*
Y-14902D01*
X6005Y-14907D01*
X5957Y-14970D01*
X5926Y-15043D01*
X5916Y-15122D01*
X5926Y-15201D01*
X5957Y-15274D01*
X6005Y-15337D01*
X6068Y-15386D01*
X6142Y-15416D01*
X6220Y-15426D01*
X6535D01*
X6614Y-15416D01*
X6688Y-15386D01*
X6751Y-15337D01*
X6799Y-15274D01*
X6830Y-15201D01*
X6840Y-15122D01*
X6830Y-15043D01*
X6799Y-14970D01*
X6751Y-14907D01*
X6745Y-14902D01*
Y-14842D01*
X6751Y-14837D01*
X6799Y-14774D01*
X6830Y-14701D01*
X6840Y-14622D01*
X6830Y-14543D01*
X6799Y-14470D01*
X6751Y-14407D01*
X6745Y-14402D01*
Y-14342D01*
X6751Y-14337D01*
X6799Y-14274D01*
X6830Y-14201D01*
X6840Y-14122D01*
X6830Y-14043D01*
X6805Y-13984D01*
X6832Y-13924D01*
X6837D01*
Y-13320D01*
D02*
G37*
G36*
X8850Y-14500D02*
X8283D01*
X8322Y-14631D01*
X8390Y-14757D01*
X8481Y-14869D01*
X8593Y-14960D01*
X8719Y-15028D01*
X8850Y-15067D01*
Y-14500D01*
D02*
G37*
G36*
X7316Y-10207D02*
X7216Y-10220D01*
X7124Y-10258D01*
X7044Y-10319D01*
X6983Y-10399D01*
X6945Y-10491D01*
X6932Y-10591D01*
X6945Y-10690D01*
X6983Y-10782D01*
X7044Y-10862D01*
X7124Y-10923D01*
X7216Y-10961D01*
X7316Y-10974D01*
X7327Y-10973D01*
X8940Y-12585D01*
X8940Y-12585D01*
X8994Y-12627D01*
X9057Y-12653D01*
X9125Y-12662D01*
X13191D01*
X13815Y-13285D01*
X13815Y-13285D01*
X13869Y-13327D01*
X13932Y-13353D01*
X14000Y-13362D01*
X18850D01*
X18850Y-13362D01*
X18918Y-13353D01*
X18981Y-13327D01*
X19035Y-13285D01*
X19159Y-13162D01*
X20609D01*
Y-13245D01*
X20643D01*
Y-13564D01*
X20623Y-13570D01*
X20495Y-13638D01*
X20383Y-13730D01*
X20291Y-13842D01*
X20223Y-13969D01*
X20181Y-14108D01*
X20167Y-14252D01*
X20181Y-14396D01*
X20223Y-14535D01*
X20291Y-14662D01*
X20383Y-14774D01*
X20495Y-14866D01*
X20623Y-14934D01*
X20761Y-14976D01*
X20906Y-14990D01*
X21050Y-14976D01*
X21188Y-14934D01*
X21316Y-14866D01*
X21428Y-14774D01*
X21520Y-14662D01*
X21588Y-14535D01*
X21630Y-14396D01*
X21644Y-14252D01*
X21630Y-14108D01*
X21588Y-13969D01*
X21520Y-13842D01*
X21428Y-13730D01*
X21316Y-13638D01*
X21188Y-13570D01*
X21168Y-13564D01*
Y-13245D01*
X21182D01*
Y-12555D01*
X20609D01*
Y-12638D01*
X19050D01*
X19050Y-12638D01*
X18982Y-12647D01*
X18919Y-12673D01*
X18865Y-12715D01*
X18865Y-12715D01*
X18741Y-12838D01*
X14109D01*
X13485Y-12215D01*
X13431Y-12173D01*
X13368Y-12147D01*
X13300Y-12138D01*
X13300Y-12138D01*
X9234D01*
X7698Y-10602D01*
X7700Y-10591D01*
X7687Y-10491D01*
X7648Y-10399D01*
X7587Y-10319D01*
X7508Y-10258D01*
X7415Y-10220D01*
X7316Y-10207D01*
D02*
G37*
G36*
X9717Y-14500D02*
X9150D01*
Y-15067D01*
X9281Y-15028D01*
X9407Y-14960D01*
X9519Y-14869D01*
X9610Y-14757D01*
X9678Y-14631D01*
X9717Y-14500D01*
D02*
G37*
G36*
X20906Y-15088D02*
X20761Y-15102D01*
X20623Y-15145D01*
X20495Y-15213D01*
X20383Y-15305D01*
X20291Y-15416D01*
X20223Y-15544D01*
X20181Y-15683D01*
X20167Y-15827D01*
X20181Y-15971D01*
X20223Y-16109D01*
X20291Y-16237D01*
X20383Y-16349D01*
X20495Y-16441D01*
X20623Y-16509D01*
X20761Y-16551D01*
X20906Y-16565D01*
X21050Y-16551D01*
X21188Y-16509D01*
X21316Y-16441D01*
X21428Y-16349D01*
X21520Y-16237D01*
X21588Y-16109D01*
X21630Y-15971D01*
X21644Y-15827D01*
X21630Y-15683D01*
X21588Y-15544D01*
X21520Y-15416D01*
X21428Y-15305D01*
X21316Y-15213D01*
X21188Y-15145D01*
X21050Y-15102D01*
X20906Y-15088D01*
D02*
G37*
G36*
X3118Y-16922D02*
X2577D01*
Y-17068D01*
X2873Y-17364D01*
X3118D01*
Y-16922D01*
D02*
G37*
G36*
X20906Y-16663D02*
X20761Y-16677D01*
X20623Y-16719D01*
X20495Y-16788D01*
X20383Y-16879D01*
X20291Y-16991D01*
X20223Y-17119D01*
X20181Y-17258D01*
X20167Y-17402D01*
X20181Y-17546D01*
X20223Y-17684D01*
X20291Y-17812D01*
X20383Y-17924D01*
X20495Y-18016D01*
X20623Y-18084D01*
X20761Y-18126D01*
X20906Y-18140D01*
X21050Y-18126D01*
X21188Y-18084D01*
X21316Y-18016D01*
X21428Y-17924D01*
X21520Y-17812D01*
X21588Y-17684D01*
X21630Y-17546D01*
X21644Y-17402D01*
X21630Y-17258D01*
X21588Y-17119D01*
X21520Y-16991D01*
X21428Y-16879D01*
X21316Y-16788D01*
X21188Y-16719D01*
X21050Y-16677D01*
X20906Y-16663D01*
D02*
G37*
G36*
X3958Y-16922D02*
X3418D01*
Y-17364D01*
X3662D01*
X3958Y-17068D01*
Y-16922D01*
D02*
G37*
G36*
X3662Y-16180D02*
X3418D01*
Y-16622D01*
X3958D01*
Y-16476D01*
X3662Y-16180D01*
D02*
G37*
G36*
X3118D02*
X2873D01*
X2577Y-16476D01*
Y-16622D01*
X3118D01*
Y-16180D01*
D02*
G37*
G36*
X1352Y-13753D02*
X932D01*
X722Y-13963D01*
Y-14383D01*
X932Y-14593D01*
X1352D01*
X1562Y-14383D01*
Y-13963D01*
X1352Y-13753D01*
D02*
G37*
G36*
Y-11785D02*
X932D01*
X722Y-11995D01*
Y-12415D01*
X932Y-12625D01*
X1352D01*
X1562Y-12415D01*
Y-11995D01*
X1352Y-11785D01*
D02*
G37*
G36*
X15099Y-11896D02*
X14995Y-11910D01*
X14897Y-11950D01*
X14814Y-12015D01*
X14749Y-12098D01*
X14709Y-12196D01*
X14695Y-12300D01*
X14709Y-12404D01*
X14749Y-12502D01*
X14814Y-12585D01*
X14897Y-12650D01*
X14995Y-12690D01*
X15099Y-12704D01*
X15204Y-12690D01*
X15301Y-12650D01*
X15385Y-12585D01*
X15449Y-12502D01*
X15489Y-12404D01*
X15503Y-12300D01*
X15489Y-12196D01*
X15449Y-12098D01*
X15385Y-12015D01*
X15301Y-11950D01*
X15204Y-11910D01*
X15099Y-11896D01*
D02*
G37*
G36*
X21931Y-12515D02*
X21679D01*
Y-12825D01*
X21931D01*
Y-12515D01*
D02*
G37*
G36*
X1352Y-10801D02*
X932D01*
X722Y-11010D01*
Y-11430D01*
X932Y-11640D01*
X1352D01*
X1562Y-11430D01*
Y-11010D01*
X1352Y-10801D01*
D02*
G37*
G36*
X16100Y-10896D02*
X15996Y-10910D01*
X15898Y-10950D01*
X15815Y-11015D01*
X15750Y-11098D01*
X15710Y-11196D01*
X15696Y-11300D01*
X15710Y-11404D01*
X15750Y-11502D01*
X15815Y-11585D01*
X15898Y-11650D01*
X15996Y-11690D01*
X16100Y-11704D01*
X16204Y-11690D01*
X16302Y-11650D01*
X16385Y-11585D01*
X16450Y-11502D01*
X16490Y-11404D01*
X16504Y-11300D01*
X16490Y-11196D01*
X16450Y-11098D01*
X16385Y-11015D01*
X16302Y-10950D01*
X16204Y-10910D01*
X16100Y-10896D01*
D02*
G37*
G36*
X2927Y-11785D02*
X2507D01*
X2297Y-11995D01*
Y-12415D01*
X2507Y-12625D01*
X2927D01*
X3137Y-12415D01*
Y-11995D01*
X2927Y-11785D01*
D02*
G37*
G36*
X9150Y-13633D02*
Y-14200D01*
X9717D01*
X9678Y-14069D01*
X9610Y-13943D01*
X9519Y-13831D01*
X9407Y-13740D01*
X9281Y-13672D01*
X9150Y-13633D01*
D02*
G37*
G36*
X8850D02*
X8719Y-13672D01*
X8593Y-13740D01*
X8481Y-13831D01*
X8390Y-13943D01*
X8322Y-14069D01*
X8283Y-14200D01*
X8850D01*
Y-13633D01*
D02*
G37*
G36*
X2927Y-13753D02*
X2507D01*
X2297Y-13963D01*
Y-14383D01*
X2507Y-14593D01*
X2927D01*
X3137Y-14383D01*
Y-13963D01*
X2927Y-13753D01*
D02*
G37*
G36*
X21529Y-12515D02*
X21278D01*
Y-12825D01*
X21529D01*
Y-12515D01*
D02*
G37*
G36*
X21931Y-12975D02*
X21679D01*
Y-13285D01*
X21931D01*
Y-12975D01*
D02*
G37*
G36*
X21529D02*
X21278D01*
Y-13285D01*
X21529D01*
Y-12975D01*
D02*
G37*
G36*
X21263Y-19836D02*
X20548D01*
X20190Y-20194D01*
Y-20909D01*
X20548Y-21266D01*
X21263D01*
X21621Y-20909D01*
Y-20194D01*
X21263Y-19836D01*
D02*
G37*
G36*
X10117Y-21500D02*
X9850D01*
Y-21649D01*
X9857D01*
X9935Y-21639D01*
X10007Y-21609D01*
X10069Y-21562D01*
X10117Y-21500D01*
D02*
G37*
G36*
X9550D02*
X9283D01*
X9331Y-21562D01*
X9393Y-21609D01*
X9465Y-21639D01*
X9543Y-21649D01*
X9550D01*
Y-21500D01*
D02*
G37*
G36*
X5614Y-20348D02*
X5253D01*
X5072Y-20528D01*
Y-20889D01*
X5253Y-21070D01*
X5614D01*
X5794Y-20889D01*
Y-20528D01*
X5614Y-20348D01*
D02*
G37*
G36*
X4629D02*
X4268D01*
X4088Y-20528D01*
Y-20889D01*
X4268Y-21070D01*
X4629D01*
X4810Y-20889D01*
Y-20528D01*
X4629Y-20348D01*
D02*
G37*
G36*
X10117Y-21000D02*
X9700D01*
X9283D01*
X9331Y-21062D01*
X9342Y-21070D01*
Y-21130D01*
X9331Y-21138D01*
X9283Y-21200D01*
X9700D01*
X10117D01*
X10069Y-21138D01*
X10058Y-21130D01*
Y-21070D01*
X10069Y-21062D01*
X10117Y-21000D01*
D02*
G37*
G36*
X3118Y-22118D02*
X2577D01*
Y-22265D01*
X2873Y-22561D01*
X3118D01*
Y-22118D01*
D02*
G37*
G36*
X5512Y-24648D02*
X5383Y-24660D01*
X5259Y-24698D01*
X5145Y-24759D01*
X5046Y-24841D01*
X4964Y-24941D01*
X4903Y-25055D01*
X4865Y-25178D01*
X4852Y-25307D01*
X4865Y-25436D01*
X4903Y-25559D01*
X4964Y-25673D01*
X5046Y-25773D01*
X5145Y-25855D01*
X5259Y-25916D01*
X5383Y-25954D01*
X5512Y-25966D01*
X5640Y-25954D01*
X5764Y-25916D01*
X5878Y-25855D01*
X5978Y-25773D01*
X6060Y-25673D01*
X6121Y-25559D01*
X6158Y-25436D01*
X6171Y-25307D01*
X6158Y-25178D01*
X6121Y-25055D01*
X6060Y-24941D01*
X5978Y-24841D01*
X5878Y-24759D01*
X5764Y-24698D01*
X5640Y-24660D01*
X5512Y-24648D01*
D02*
G37*
G36*
X1575Y-24042D02*
X1377Y-24058D01*
X1184Y-24104D01*
X1001Y-24180D01*
X831Y-24284D01*
X681Y-24413D01*
X552Y-24564D01*
X448Y-24733D01*
X372Y-24916D01*
X326Y-25109D01*
X310Y-25307D01*
X326Y-25505D01*
X372Y-25698D01*
X448Y-25881D01*
X552Y-26050D01*
X681Y-26201D01*
X831Y-26330D01*
X1001Y-26434D01*
X1184Y-26510D01*
X1377Y-26556D01*
X1575Y-26572D01*
X1773Y-26556D01*
X1966Y-26510D01*
X2149Y-26434D01*
X2318Y-26330D01*
X2469Y-26201D01*
X2598Y-26050D01*
X2702Y-25881D01*
X2778Y-25698D01*
X2824Y-25505D01*
X2839Y-25307D01*
X2824Y-25109D01*
X2778Y-24916D01*
X2702Y-24733D01*
X2598Y-24564D01*
X2469Y-24413D01*
X2318Y-24284D01*
X2149Y-24180D01*
X1966Y-24104D01*
X1773Y-24058D01*
X1575Y-24042D01*
D02*
G37*
G36*
X3662Y-21376D02*
X3418D01*
Y-21818D01*
X3958D01*
Y-21672D01*
X3662Y-21376D01*
D02*
G37*
G36*
X3118D02*
X2873D01*
X2577Y-21672D01*
Y-21818D01*
X3118D01*
Y-21376D01*
D02*
G37*
G36*
X3958Y-22118D02*
X3418D01*
Y-22561D01*
X3662D01*
X3958Y-22265D01*
Y-22118D01*
D02*
G37*
G36*
X2375Y-18399D02*
X1404D01*
X919Y-18885D01*
Y-19856D01*
X1404Y-20341D01*
X2375D01*
X2861Y-19856D01*
Y-18885D01*
X2375Y-18399D01*
D02*
G37*
G36*
X5614Y-18655D02*
X5253D01*
X5072Y-18835D01*
Y-19196D01*
X5253Y-19377D01*
X5614D01*
X5794Y-19196D01*
Y-18835D01*
X5614Y-18655D01*
D02*
G37*
G36*
X4449Y-19518D02*
X4355Y-19530D01*
X4322Y-19544D01*
X4291Y-19520D01*
X3811D01*
Y-20082D01*
X3897Y-20056D01*
X4003Y-19999D01*
X4042Y-19968D01*
X4104Y-19994D01*
X4134Y-20064D01*
X4191Y-20139D01*
X4267Y-20197D01*
X4355Y-20234D01*
X4449Y-20246D01*
X4543Y-20234D01*
X4631Y-20197D01*
X4706Y-20139D01*
X4764Y-20064D01*
X4800Y-19976D01*
X4813Y-19882D01*
X4800Y-19788D01*
X4764Y-19700D01*
X4706Y-19624D01*
X4631Y-19567D01*
X4543Y-19530D01*
X4449Y-19518D01*
D02*
G37*
G36*
X10117Y-17000D02*
X9700D01*
X9283D01*
X9331Y-17062D01*
X9337Y-17067D01*
Y-17127D01*
X9327Y-17135D01*
X9279Y-17198D01*
X9248Y-17271D01*
X9238Y-17350D01*
X9248Y-17429D01*
X9279Y-17502D01*
X9324Y-17561D01*
X9333Y-17580D01*
Y-17620D01*
X9324Y-17639D01*
X9279Y-17698D01*
X9248Y-17771D01*
X9238Y-17850D01*
X9248Y-17929D01*
X9279Y-18002D01*
X9324Y-18061D01*
X9333Y-18080D01*
Y-18120D01*
X9324Y-18139D01*
X9279Y-18198D01*
X9248Y-18271D01*
X9238Y-18350D01*
X9248Y-18429D01*
X9279Y-18502D01*
X9324Y-18561D01*
X9333Y-18580D01*
Y-18620D01*
X9324Y-18639D01*
X9279Y-18698D01*
X9248Y-18771D01*
X9238Y-18850D01*
X9248Y-18929D01*
X9279Y-19002D01*
X9324Y-19061D01*
X9333Y-19080D01*
Y-19120D01*
X9324Y-19139D01*
X9279Y-19198D01*
X9248Y-19271D01*
X9238Y-19350D01*
X9248Y-19429D01*
X9279Y-19502D01*
X9324Y-19561D01*
X9333Y-19580D01*
Y-19620D01*
X9324Y-19639D01*
X9279Y-19698D01*
X9273Y-19712D01*
X7309D01*
X5794Y-18198D01*
Y-17851D01*
X5614Y-17671D01*
X5253D01*
X5072Y-17851D01*
Y-18212D01*
X5253Y-18392D01*
X5599D01*
X7154Y-19947D01*
X7199Y-19977D01*
X7252Y-19988D01*
X9273D01*
X9279Y-20002D01*
X9324Y-20061D01*
X9333Y-20080D01*
Y-20120D01*
X9324Y-20139D01*
X9279Y-20198D01*
X9248Y-20271D01*
X9238Y-20350D01*
X9248Y-20429D01*
X9279Y-20502D01*
X9327Y-20565D01*
X9337Y-20573D01*
Y-20633D01*
X9331Y-20638D01*
X9283Y-20700D01*
X9700D01*
X10117D01*
X10069Y-20638D01*
X10063Y-20633D01*
Y-20573D01*
X10073Y-20565D01*
X10121Y-20502D01*
X10152Y-20429D01*
X10162Y-20350D01*
X10152Y-20271D01*
X10121Y-20198D01*
X10076Y-20139D01*
X10067Y-20120D01*
Y-20080D01*
X10076Y-20061D01*
X10121Y-20002D01*
X10152Y-19929D01*
X10162Y-19850D01*
X10152Y-19771D01*
X10121Y-19698D01*
X10076Y-19639D01*
X10067Y-19620D01*
Y-19580D01*
X10076Y-19561D01*
X10121Y-19502D01*
X10152Y-19429D01*
X10162Y-19350D01*
X10152Y-19271D01*
X10121Y-19198D01*
X10076Y-19139D01*
X10067Y-19120D01*
Y-19080D01*
X10076Y-19061D01*
X10121Y-19002D01*
X10152Y-18929D01*
X10162Y-18850D01*
X10152Y-18771D01*
X10121Y-18698D01*
X10076Y-18639D01*
X10067Y-18620D01*
Y-18580D01*
X10076Y-18561D01*
X10121Y-18502D01*
X10127Y-18488D01*
X13856D01*
X13910Y-18524D01*
X14000Y-18542D01*
X14090Y-18524D01*
X14166Y-18473D01*
X14217Y-18397D01*
X14235Y-18307D01*
X14217Y-18218D01*
X14166Y-18142D01*
X14090Y-18091D01*
X14000Y-18073D01*
X13910Y-18091D01*
X13834Y-18142D01*
X13787Y-18212D01*
X10127D01*
X10121Y-18198D01*
X10076Y-18139D01*
X10067Y-18120D01*
Y-18080D01*
X10076Y-18061D01*
X10121Y-18002D01*
X10152Y-17929D01*
X10162Y-17850D01*
X10152Y-17771D01*
X10121Y-17698D01*
X10076Y-17639D01*
X10067Y-17620D01*
Y-17580D01*
X10076Y-17561D01*
X10121Y-17502D01*
X10152Y-17429D01*
X10162Y-17350D01*
X10152Y-17271D01*
X10121Y-17198D01*
X10073Y-17135D01*
X10063Y-17127D01*
Y-17067D01*
X10069Y-17062D01*
X10117Y-17000D01*
D02*
G37*
G36*
X4629Y-17671D02*
X4268D01*
X4088Y-17851D01*
Y-18212D01*
X4268Y-18392D01*
X4629D01*
X4810Y-18212D01*
Y-17851D01*
X4629Y-17671D01*
D02*
G37*
G36*
X4449Y-18494D02*
X4355Y-18507D01*
X4267Y-18543D01*
X4191Y-18601D01*
X4134Y-18676D01*
X4104Y-18746D01*
X4042Y-18773D01*
X4003Y-18741D01*
X3897Y-18684D01*
X3811Y-18658D01*
Y-19220D01*
X4291D01*
X4322Y-19197D01*
X4355Y-19210D01*
X4449Y-19222D01*
X4543Y-19210D01*
X4631Y-19174D01*
X4706Y-19116D01*
X4764Y-19040D01*
X4800Y-18952D01*
X4813Y-18858D01*
X4800Y-18764D01*
X4764Y-18676D01*
X4706Y-18601D01*
X4631Y-18543D01*
X4543Y-18507D01*
X4449Y-18494D01*
D02*
G37*
G36*
X3511Y-18658D02*
X3426Y-18684D01*
X3320Y-18741D01*
X3227Y-18817D01*
X3150Y-18910D01*
X3093Y-19017D01*
X3058Y-19132D01*
X3050Y-19220D01*
X3511D01*
Y-18658D01*
D02*
G37*
G36*
Y-19520D02*
X3050D01*
X3058Y-19608D01*
X3093Y-19723D01*
X3150Y-19830D01*
X3227Y-19923D01*
X3320Y-19999D01*
X3426Y-20056D01*
X3511Y-20082D01*
Y-19520D01*
D02*
G37*
G36*
X5789Y-20032D02*
X5583D01*
Y-20238D01*
X5611D01*
X5789Y-20060D01*
Y-20032D01*
D02*
G37*
G36*
X5283D02*
X5077D01*
Y-20060D01*
X5255Y-20238D01*
X5283D01*
Y-20032D01*
D02*
G37*
G36*
X20906Y-18238D02*
X20761Y-18252D01*
X20623Y-18294D01*
X20495Y-18362D01*
X20383Y-18454D01*
X20291Y-18566D01*
X20223Y-18694D01*
X20181Y-18832D01*
X20167Y-18976D01*
X20181Y-19120D01*
X20223Y-19259D01*
X20291Y-19387D01*
X20383Y-19499D01*
X20495Y-19590D01*
X20623Y-19659D01*
X20761Y-19701D01*
X20906Y-19715D01*
X21050Y-19701D01*
X21188Y-19659D01*
X21316Y-19590D01*
X21428Y-19499D01*
X21520Y-19387D01*
X21588Y-19259D01*
X21630Y-19120D01*
X21644Y-18976D01*
X21630Y-18832D01*
X21588Y-18694D01*
X21520Y-18566D01*
X21428Y-18454D01*
X21316Y-18362D01*
X21188Y-18294D01*
X21050Y-18252D01*
X20906Y-18238D01*
D02*
G37*
G36*
X5611Y-19526D02*
X5583D01*
Y-19732D01*
X5789D01*
Y-19704D01*
X5611Y-19526D01*
D02*
G37*
G36*
X5283D02*
X5255D01*
X5077Y-19704D01*
Y-19732D01*
X5283D01*
Y-19526D01*
D02*
G37*
G36*
X2927Y-10801D02*
X2507D01*
X2297Y-11010D01*
Y-11430D01*
X2507Y-11640D01*
X2927D01*
X3137Y-11430D01*
Y-11010D01*
X2927Y-10801D01*
D02*
G37*
G36*
X25071Y-5655D02*
Y-5913D01*
X25330D01*
X25301Y-5844D01*
X25231Y-5753D01*
X25140Y-5683D01*
X25071Y-5655D01*
D02*
G37*
G36*
X24771Y-5655D02*
X24702Y-5683D01*
X24611Y-5753D01*
X24542Y-5844D01*
X24513Y-5913D01*
X24771D01*
Y-5655D01*
D02*
G37*
G36*
X3556Y-4226D02*
X2664D01*
X2218Y-4672D01*
Y-5564D01*
X2664Y-6011D01*
X3556D01*
X4003Y-5564D01*
Y-4672D01*
X3556Y-4226D01*
D02*
G37*
G36*
X23537Y-4445D02*
X23226D01*
Y-4696D01*
X23537D01*
Y-4445D01*
D02*
G37*
G36*
X23076D02*
X22766D01*
Y-4696D01*
X23076D01*
Y-4445D01*
D02*
G37*
G36*
X24921Y-4620D02*
X24806Y-4635D01*
X24700Y-4679D01*
X24608Y-4749D01*
X24556Y-4816D01*
X23497D01*
Y-4792D01*
X22806D01*
Y-5365D01*
X23497D01*
Y-5341D01*
X24580D01*
X24608Y-5377D01*
X24700Y-5447D01*
X24806Y-5491D01*
X24921Y-5506D01*
X25036Y-5491D01*
X25143Y-5447D01*
X25235Y-5377D01*
X25305Y-5285D01*
X25350Y-5178D01*
X25365Y-5063D01*
X25350Y-4948D01*
X25305Y-4841D01*
X25235Y-4749D01*
X25143Y-4679D01*
X25036Y-4635D01*
X24921Y-4620D01*
D02*
G37*
G36*
X17600Y-5565D02*
X17510Y-5583D01*
X17434Y-5634D01*
X17383Y-5710D01*
X17365Y-5800D01*
X17383Y-5890D01*
X17434Y-5966D01*
X17462Y-5985D01*
Y-7104D01*
X17406Y-7124D01*
X17400Y-7116D01*
X17316Y-7052D01*
X17219Y-7012D01*
X17114Y-6998D01*
X17010Y-7012D01*
X16912Y-7052D01*
X16829Y-7116D01*
X16798Y-7157D01*
X16738Y-7136D01*
Y-5985D01*
X16766Y-5966D01*
X16817Y-5890D01*
X16835Y-5800D01*
X16817Y-5710D01*
X16766Y-5634D01*
X16690Y-5583D01*
X16600Y-5565D01*
X16510Y-5583D01*
X16434Y-5634D01*
X16383Y-5710D01*
X16365Y-5800D01*
X16383Y-5890D01*
X16434Y-5966D01*
X16462Y-5985D01*
Y-7107D01*
X16402Y-7128D01*
X16396Y-7120D01*
X16314Y-7056D01*
X16264Y-7036D01*
Y-7402D01*
Y-7767D01*
X16314Y-7747D01*
X16396Y-7683D01*
X16402Y-7675D01*
X16462Y-7696D01*
Y-8107D01*
X16402Y-8128D01*
X16396Y-8120D01*
X16314Y-8056D01*
X16264Y-8036D01*
Y-8402D01*
Y-8767D01*
X16314Y-8747D01*
X16396Y-8683D01*
X16402Y-8675D01*
X16462Y-8696D01*
Y-8943D01*
X16293Y-9112D01*
X15300D01*
X15247Y-9123D01*
X15203Y-9153D01*
X14453Y-9903D01*
X14423Y-9947D01*
X14412Y-10000D01*
Y-10751D01*
X14423Y-10804D01*
X14453Y-10848D01*
X14735Y-11131D01*
X14709Y-11196D01*
X14695Y-11300D01*
X14709Y-11404D01*
X14749Y-11502D01*
X14813Y-11585D01*
X14897Y-11650D01*
X14994Y-11690D01*
X15099Y-11704D01*
X15203Y-11690D01*
X15301Y-11650D01*
X15384Y-11585D01*
X15448Y-11502D01*
X15489Y-11404D01*
X15503Y-11300D01*
X15489Y-11196D01*
X15448Y-11098D01*
X15384Y-11015D01*
X15301Y-10950D01*
X15203Y-10910D01*
X15099Y-10896D01*
X14994Y-10910D01*
X14930Y-10937D01*
X14688Y-10694D01*
Y-10510D01*
X14748Y-10498D01*
X14749Y-10502D01*
X14813Y-10585D01*
X14897Y-10650D01*
X14994Y-10690D01*
X15099Y-10704D01*
X15203Y-10690D01*
X15301Y-10650D01*
X15384Y-10585D01*
X15448Y-10502D01*
X15489Y-10404D01*
X15503Y-10300D01*
X15489Y-10196D01*
X15462Y-10131D01*
X15756Y-9838D01*
X16086D01*
X16090Y-9898D01*
X16054Y-9902D01*
X15996Y-9910D01*
X15898Y-9950D01*
X15815Y-10015D01*
X15750Y-10098D01*
X15710Y-10196D01*
X15696Y-10300D01*
X15710Y-10404D01*
X15750Y-10502D01*
X15815Y-10585D01*
X15898Y-10650D01*
X15996Y-10690D01*
X16100Y-10704D01*
X16204Y-10690D01*
X16302Y-10650D01*
X16385Y-10585D01*
X16450Y-10502D01*
X16490Y-10404D01*
X16504Y-10300D01*
X16490Y-10196D01*
X16450Y-10098D01*
X16385Y-10015D01*
X16302Y-9950D01*
X16204Y-9910D01*
X16146Y-9902D01*
X16110Y-9898D01*
X16114Y-9838D01*
X17050D01*
X17103Y-9827D01*
X17147Y-9797D01*
X17697Y-9247D01*
X17697Y-9247D01*
X17727Y-9203D01*
X17738Y-9150D01*
Y-8667D01*
X17798Y-8647D01*
X17829Y-8687D01*
X17912Y-8751D01*
X17977Y-8778D01*
Y-10229D01*
X16269Y-11937D01*
X16204Y-11910D01*
X16100Y-11896D01*
X15996Y-11910D01*
X15898Y-11950D01*
X15815Y-12015D01*
X15750Y-12098D01*
X15710Y-12196D01*
X15696Y-12300D01*
X15710Y-12404D01*
X15750Y-12502D01*
X15815Y-12585D01*
X15898Y-12650D01*
X15996Y-12690D01*
X16100Y-12704D01*
X16204Y-12690D01*
X16302Y-12650D01*
X16385Y-12585D01*
X16450Y-12502D01*
X16490Y-12404D01*
X16504Y-12300D01*
X16490Y-12196D01*
X16463Y-12131D01*
X18211Y-10383D01*
X18241Y-10338D01*
X18252Y-10286D01*
X18252Y-10286D01*
Y-8778D01*
X18316Y-8751D01*
X18400Y-8687D01*
X18464Y-8603D01*
X18504Y-8506D01*
X18518Y-8402D01*
X18504Y-8297D01*
X18464Y-8200D01*
X18400Y-8116D01*
X18316Y-8052D01*
X18219Y-8012D01*
X18114Y-7998D01*
X18010Y-8012D01*
X17912Y-8052D01*
X17829Y-8116D01*
X17798Y-8157D01*
X17738Y-8136D01*
Y-7667D01*
X17798Y-7647D01*
X17829Y-7687D01*
X17912Y-7751D01*
X18010Y-7792D01*
X18114Y-7805D01*
X18219Y-7792D01*
X18316Y-7751D01*
X18400Y-7687D01*
X18464Y-7603D01*
X18504Y-7506D01*
X18518Y-7402D01*
X18504Y-7297D01*
X18464Y-7200D01*
X18400Y-7116D01*
X18316Y-7052D01*
X18219Y-7012D01*
X18114Y-6998D01*
X18010Y-7012D01*
X17912Y-7052D01*
X17829Y-7116D01*
X17798Y-7157D01*
X17738Y-7136D01*
Y-5985D01*
X17766Y-5966D01*
X17817Y-5890D01*
X17835Y-5800D01*
X17817Y-5710D01*
X17766Y-5634D01*
X17690Y-5583D01*
X17600Y-5565D01*
D02*
G37*
G36*
X15964Y-7036D02*
X15915Y-7056D01*
X15832Y-7120D01*
X15769Y-7202D01*
X15748Y-7252D01*
X15964D01*
Y-7036D01*
D02*
G37*
G36*
X22172Y-7015D02*
X21921D01*
Y-7325D01*
X22172D01*
Y-7015D01*
D02*
G37*
G36*
X5968Y-4127D02*
X4977D01*
X4482Y-4623D01*
Y-5614D01*
X4977Y-6109D01*
X5968D01*
X6463Y-5614D01*
Y-4623D01*
X5968Y-4127D01*
D02*
G37*
G36*
X25330Y-6213D02*
X25071D01*
Y-6471D01*
X25140Y-6443D01*
X25231Y-6373D01*
X25301Y-6282D01*
X25330Y-6213D01*
D02*
G37*
G36*
X24771D02*
X24513D01*
X24542Y-6282D01*
X24611Y-6373D01*
X24702Y-6443D01*
X24771Y-6471D01*
Y-6213D01*
D02*
G37*
G36*
X13315Y-3811D02*
X12754D01*
Y-4017D01*
X13109Y-4372D01*
X13315D01*
Y-3811D01*
D02*
G37*
G36*
X13820Y-2951D02*
X13615D01*
Y-3511D01*
X14175D01*
Y-3306D01*
X13820Y-2951D01*
D02*
G37*
G36*
X20119D02*
X19914D01*
Y-3511D01*
X20474D01*
Y-3306D01*
X20119Y-2951D01*
D02*
G37*
G36*
X19614D02*
X19409D01*
X19054Y-3306D01*
Y-3511D01*
X19614D01*
Y-2951D01*
D02*
G37*
G36*
X20269Y-958D02*
X19259D01*
X18793Y-1424D01*
Y-2356D01*
X19259Y-2822D01*
X20269D01*
X20735Y-2356D01*
Y-1424D01*
X20269Y-958D01*
D02*
G37*
G36*
X13970D02*
X12959D01*
X12493Y-1424D01*
Y-2356D01*
X12959Y-2822D01*
X13970D01*
X14436Y-2356D01*
Y-1424D01*
X13970Y-958D01*
D02*
G37*
G36*
X25335Y-704D02*
X25137Y-719D01*
X24944Y-766D01*
X24760Y-842D01*
X24591Y-945D01*
X24440Y-1074D01*
X24311Y-1225D01*
X24208Y-1394D01*
X24132Y-1578D01*
X24086Y-1771D01*
X24070Y-1969D01*
X24086Y-2166D01*
X24132Y-2359D01*
X24208Y-2543D01*
X24311Y-2712D01*
X24440Y-2863D01*
X24591Y-2992D01*
X24760Y-3095D01*
X24944Y-3171D01*
X25137Y-3218D01*
X25335Y-3233D01*
X25532Y-3218D01*
X25725Y-3171D01*
X25909Y-3095D01*
X26078Y-2992D01*
X26229Y-2863D01*
X26358Y-2712D01*
X26461Y-2543D01*
X26537Y-2359D01*
X26584Y-2166D01*
X26599Y-1969D01*
X26584Y-1771D01*
X26537Y-1578D01*
X26461Y-1394D01*
X26358Y-1225D01*
X26229Y-1074D01*
X26078Y-945D01*
X25909Y-842D01*
X25725Y-766D01*
X25532Y-719D01*
X25335Y-704D01*
D02*
G37*
G36*
X20474Y-3811D02*
X19914D01*
Y-4372D01*
X20119D01*
X20474Y-4017D01*
Y-3811D01*
D02*
G37*
G36*
X19614D02*
X19054D01*
Y-4017D01*
X19409Y-4372D01*
X19614D01*
Y-3811D01*
D02*
G37*
G36*
X14175D02*
X13615D01*
Y-4372D01*
X13820D01*
X14175Y-4017D01*
Y-3811D01*
D02*
G37*
G36*
X13315Y-2951D02*
X13109D01*
X12754Y-3306D01*
Y-3511D01*
X13315D01*
Y-2951D01*
D02*
G37*
G36*
X23537Y-4044D02*
X23226D01*
Y-4295D01*
X23537D01*
Y-4044D01*
D02*
G37*
G36*
X23076D02*
X22766D01*
Y-4295D01*
X23076D01*
Y-4044D01*
D02*
G37*
G36*
X2927Y-9816D02*
X2507D01*
X2297Y-10026D01*
Y-10446D01*
X2507Y-10656D01*
X2927D01*
X3137Y-10446D01*
Y-10026D01*
X2927Y-9816D01*
D02*
G37*
G36*
X1352D02*
X932D01*
X722Y-10026D01*
Y-10446D01*
X932Y-10656D01*
X1352D01*
X1562Y-10446D01*
Y-10026D01*
X1352Y-9816D01*
D02*
G37*
G36*
X22096Y-10527D02*
Y-10700D01*
X22269D01*
X22256Y-10671D01*
X22199Y-10596D01*
X22125Y-10539D01*
X22096Y-10527D01*
D02*
G37*
G36*
X15114Y-7998D02*
X15010Y-8012D01*
X14912Y-8052D01*
X14829Y-8116D01*
X14765Y-8200D01*
X14724Y-8297D01*
X14710Y-8402D01*
X14724Y-8506D01*
X14765Y-8603D01*
X14829Y-8687D01*
X14912Y-8751D01*
X15010Y-8792D01*
X15114Y-8805D01*
X15219Y-8792D01*
X15316Y-8751D01*
X15400Y-8687D01*
X15464Y-8603D01*
X15504Y-8506D01*
X15518Y-8402D01*
X15504Y-8297D01*
X15464Y-8200D01*
X15400Y-8116D01*
X15316Y-8052D01*
X15219Y-8012D01*
X15114Y-7998D01*
D02*
G37*
G36*
X9434Y-10246D02*
Y-10441D01*
X9629D01*
X9612Y-10401D01*
X9552Y-10323D01*
X9474Y-10262D01*
X9434Y-10246D01*
D02*
G37*
G36*
X9134D02*
X9095Y-10262D01*
X9016Y-10323D01*
X8956Y-10401D01*
X8940Y-10441D01*
X9134D01*
Y-10246D01*
D02*
G37*
G36*
X22269Y-11000D02*
X22096D01*
Y-11173D01*
X22125Y-11161D01*
X22199Y-11104D01*
X22256Y-11029D01*
X22269Y-11000D01*
D02*
G37*
G36*
X21796D02*
X21622D01*
X21635Y-11029D01*
X21692Y-11104D01*
X21766Y-11161D01*
X21796Y-11173D01*
Y-11000D01*
D02*
G37*
G36*
X22841Y-7055D02*
X22268D01*
Y-7745D01*
X22292D01*
Y-7916D01*
X20779Y-9429D01*
X20737Y-9483D01*
X20711Y-9547D01*
X20702Y-9615D01*
X20702Y-9615D01*
Y-10595D01*
X20646Y-10668D01*
X20610Y-10756D01*
X20597Y-10850D01*
X20610Y-10944D01*
X20646Y-11032D01*
X20704Y-11107D01*
X20779Y-11165D01*
X20867Y-11202D01*
X20961Y-11214D01*
X21055Y-11202D01*
X21143Y-11165D01*
X21219Y-11107D01*
X21277Y-11032D01*
X21313Y-10944D01*
X21325Y-10850D01*
X21313Y-10756D01*
X21277Y-10668D01*
X21227Y-10603D01*
Y-9723D01*
X22740Y-8210D01*
X22740Y-8210D01*
X22781Y-8156D01*
X22808Y-8093D01*
X22817Y-8025D01*
X22817Y-8025D01*
Y-7745D01*
X22841D01*
Y-7662D01*
X23400D01*
X23468Y-7653D01*
X23531Y-7627D01*
X23585Y-7585D01*
X23627Y-7531D01*
X23653Y-7468D01*
X23662Y-7400D01*
X23653Y-7332D01*
X23627Y-7269D01*
X23585Y-7215D01*
X23531Y-7173D01*
X23468Y-7147D01*
X23400Y-7138D01*
X22841D01*
Y-7055D01*
D02*
G37*
G36*
X21796Y-10527D02*
X21766Y-10539D01*
X21692Y-10596D01*
X21635Y-10671D01*
X21622Y-10700D01*
X21796D01*
Y-10527D01*
D02*
G37*
G36*
X9629Y-10741D02*
X9434D01*
Y-10935D01*
X9474Y-10919D01*
X9552Y-10858D01*
X9612Y-10780D01*
X9629Y-10741D01*
D02*
G37*
G36*
X9134D02*
X8940D01*
X8956Y-10780D01*
X9016Y-10858D01*
X9095Y-10919D01*
X9134Y-10935D01*
Y-10741D01*
D02*
G37*
G36*
X22172Y-7475D02*
X21921D01*
Y-7785D01*
X22172D01*
Y-7475D01*
D02*
G37*
G36*
X21771D02*
X21519D01*
Y-7785D01*
X21771D01*
Y-7475D01*
D02*
G37*
G36*
X19114Y-6998D02*
X19010Y-7012D01*
X18912Y-7052D01*
X18829Y-7116D01*
X18765Y-7200D01*
X18724Y-7297D01*
X18710Y-7402D01*
X18724Y-7506D01*
X18765Y-7603D01*
X18829Y-7687D01*
X18912Y-7751D01*
X19010Y-7792D01*
X19114Y-7805D01*
X19219Y-7792D01*
X19316Y-7751D01*
X19400Y-7687D01*
X19464Y-7603D01*
X19504Y-7506D01*
X19518Y-7402D01*
X19504Y-7297D01*
X19464Y-7200D01*
X19400Y-7116D01*
X19316Y-7052D01*
X19219Y-7012D01*
X19114Y-6998D01*
D02*
G37*
G36*
X21771Y-7015D02*
X21519D01*
Y-7325D01*
X21771D01*
Y-7015D01*
D02*
G37*
G36*
X25341Y-6623D02*
X24501D01*
Y-7503D01*
X25341D01*
Y-6623D01*
D02*
G37*
G36*
X15964Y-7552D02*
X15748D01*
X15769Y-7601D01*
X15832Y-7683D01*
X15915Y-7747D01*
X15964Y-7767D01*
Y-7552D01*
D02*
G37*
G36*
X15114Y-6998D02*
X15010Y-7012D01*
X14912Y-7052D01*
X14829Y-7116D01*
X14765Y-7200D01*
X14724Y-7297D01*
X14710Y-7402D01*
X14724Y-7506D01*
X14765Y-7603D01*
X14829Y-7687D01*
X14912Y-7751D01*
X15010Y-7792D01*
X15114Y-7805D01*
X15219Y-7792D01*
X15316Y-7751D01*
X15400Y-7687D01*
X15464Y-7603D01*
X15504Y-7506D01*
X15518Y-7402D01*
X15504Y-7297D01*
X15464Y-7200D01*
X15400Y-7116D01*
X15316Y-7052D01*
X15219Y-7012D01*
X15114Y-6998D01*
D02*
G37*
G36*
X14514Y-8001D02*
X13714D01*
Y-8802D01*
X14514D01*
Y-8001D01*
D02*
G37*
G36*
X19114Y-7998D02*
X19010Y-8012D01*
X18912Y-8052D01*
X18829Y-8116D01*
X18765Y-8200D01*
X18724Y-8297D01*
X18710Y-8402D01*
X18724Y-8506D01*
X18765Y-8603D01*
X18829Y-8687D01*
X18912Y-8751D01*
X19010Y-8792D01*
X19114Y-8805D01*
X19219Y-8792D01*
X19316Y-8751D01*
X19400Y-8687D01*
X19464Y-8603D01*
X19504Y-8506D01*
X19518Y-8402D01*
X19504Y-8297D01*
X19464Y-8200D01*
X19400Y-8116D01*
X19316Y-8052D01*
X19219Y-8012D01*
X19114Y-7998D01*
D02*
G37*
G36*
X15964Y-8552D02*
X15748D01*
X15769Y-8601D01*
X15832Y-8683D01*
X15915Y-8747D01*
X15964Y-8767D01*
Y-8552D01*
D02*
G37*
G36*
X14114Y-6998D02*
X14010Y-7012D01*
X13912Y-7052D01*
X13829Y-7116D01*
X13765Y-7200D01*
X13724Y-7297D01*
X13710Y-7402D01*
X13724Y-7506D01*
X13765Y-7603D01*
X13829Y-7687D01*
X13912Y-7751D01*
X14010Y-7792D01*
X14114Y-7805D01*
X14219Y-7792D01*
X14316Y-7751D01*
X14400Y-7687D01*
X14464Y-7603D01*
X14504Y-7506D01*
X14518Y-7402D01*
X14504Y-7297D01*
X14464Y-7200D01*
X14400Y-7116D01*
X14316Y-7052D01*
X14219Y-7012D01*
X14114Y-6998D01*
D02*
G37*
G36*
X15964Y-8036D02*
X15915Y-8056D01*
X15832Y-8120D01*
X15769Y-8202D01*
X15748Y-8252D01*
X15964D01*
Y-8036D01*
D02*
G37*
%LPD*%
G36*
X16829Y-8687D02*
X16912Y-8751D01*
X17010Y-8792D01*
X17114Y-8805D01*
X17219Y-8792D01*
X17316Y-8751D01*
X17400Y-8687D01*
X17406Y-8679D01*
X17462Y-8699D01*
Y-9093D01*
X16993Y-9562D01*
X15699D01*
X15646Y-9573D01*
X15602Y-9603D01*
X15268Y-9937D01*
X15203Y-9910D01*
X15099Y-9896D01*
X14994Y-9910D01*
X14897Y-9950D01*
X14820Y-10009D01*
X14781Y-9964D01*
X15357Y-9388D01*
X16350D01*
X16403Y-9377D01*
X16447Y-9347D01*
X16697Y-9097D01*
X16697Y-9097D01*
X16727Y-9053D01*
X16738Y-9000D01*
Y-8667D01*
X16798Y-8647D01*
X16829Y-8687D01*
D02*
G37*
D15*
X20896Y-12900D02*
D03*
X21604D02*
D03*
X22554Y-7400D02*
D03*
X21846D02*
D03*
D16*
X24906Y-5079D02*
X24921Y-5063D01*
X23151Y-5079D02*
X24906D01*
X18850Y-13100D02*
X19050Y-12900D01*
X20906Y-15906D02*
X20944D01*
X19050Y-12900D02*
X20896D01*
X20906Y-14331D02*
Y-12910D01*
X20896Y-12900D02*
X20906Y-12910D01*
X7316Y-10591D02*
X9125Y-12400D01*
X13300D01*
X14000Y-13100D01*
X18850D01*
X22554Y-7400D02*
X23400D01*
X20965Y-10709D02*
Y-9615D01*
X22554Y-8025D01*
Y-7400D01*
D17*
X5433Y-18032D02*
X7252Y-19850D01*
X16100Y-12300D02*
X18114Y-10286D01*
Y-8402D01*
X7252Y-19850D02*
X9700D01*
X15099Y-10300D02*
X15699Y-9700D01*
X17050D01*
X17600Y-9150D01*
X14550Y-10751D02*
X15099Y-11300D01*
X14550Y-10751D02*
Y-10000D01*
X15300Y-9250D01*
X16350D01*
X16600Y-9000D01*
Y-5800D01*
X17600Y-9150D02*
Y-5800D01*
X6300Y-16200D02*
X8500D01*
X8950Y-15750D01*
X10950D01*
X12300Y-14400D01*
X16852D01*
X17300Y-14848D01*
X15144Y-14844D02*
X15150Y-14850D01*
X9700Y-16350D02*
X10800D01*
X12306Y-14844D01*
X15144D01*
X13957Y-18350D02*
X14000Y-18307D01*
X9700Y-18350D02*
X13957D01*
D19*
X20906Y-20551D02*
D03*
D20*
Y-18976D02*
D03*
Y-17402D02*
D03*
Y-15827D02*
D03*
Y-14252D02*
D03*
X9000Y-14350D02*
D03*
D21*
X16100Y-11300D02*
D03*
Y-10300D02*
D03*
Y-12300D02*
D03*
X15099Y-11300D02*
D03*
X15099Y-12300D02*
D03*
X15099Y-10300D02*
D03*
X19114Y-7402D02*
D03*
Y-8402D02*
D03*
X18114Y-7402D02*
D03*
Y-8402D02*
D03*
X17114Y-7402D02*
D03*
Y-8402D02*
D03*
X16114Y-7402D02*
D03*
Y-8402D02*
D03*
X15114Y-7402D02*
D03*
Y-8402D02*
D03*
X14114Y-7402D02*
D03*
D22*
X19764Y-3661D02*
D03*
X13465D02*
D03*
D23*
X19764Y-1890D02*
D03*
X13465D02*
D03*
D24*
X21437Y-650D02*
D03*
X18091D02*
D03*
X15138D02*
D03*
X11791D02*
D03*
X650Y-17697D02*
D03*
Y-21043D02*
D03*
D25*
X3661Y-19370D02*
D03*
D26*
X1890D02*
D03*
D27*
X25335Y-1969D02*
D03*
X1575Y-25307D02*
D03*
D28*
X5512D02*
D03*
D29*
X24921Y-5063D02*
D03*
Y-6063D02*
D03*
D30*
Y-7063D02*
D03*
D31*
X4449Y-19882D02*
D03*
Y-18858D02*
D03*
X20961Y-10850D02*
D03*
X21946D02*
D03*
D32*
X3268Y-16772D02*
D03*
Y-21969D02*
D03*
D33*
X5433Y-19882D02*
D03*
Y-20709D02*
D03*
Y-18032D02*
D03*
Y-19016D02*
D03*
X4449Y-18032D02*
D03*
Y-20709D02*
D03*
D34*
X9284Y-10591D02*
D03*
X7316D02*
D03*
D35*
X9700Y-16350D02*
D03*
X6378Y-13622D02*
D03*
D36*
X9700Y-16850D02*
D03*
Y-17350D02*
D03*
Y-17850D02*
D03*
Y-18350D02*
D03*
Y-18850D02*
D03*
Y-19350D02*
D03*
Y-19850D02*
D03*
Y-20350D02*
D03*
Y-20850D02*
D03*
Y-21350D02*
D03*
X6378Y-14122D02*
D03*
Y-14622D02*
D03*
Y-15122D02*
D03*
D37*
X5472Y-5118D02*
D03*
D38*
X3110D02*
D03*
D39*
X14114Y-8402D02*
D03*
D40*
X1142Y-10236D02*
D03*
Y-11220D02*
D03*
Y-12205D02*
D03*
Y-14173D02*
D03*
X2717Y-10236D02*
D03*
Y-11220D02*
D03*
Y-12205D02*
D03*
Y-14173D02*
D03*
D41*
X16600Y-5800D02*
D03*
X17600D02*
D03*
X17300Y-14848D02*
D03*
X15150Y-14850D02*
D03*
X14000Y-18307D02*
D03*
D42*
X6300Y-16200D02*
D03*
D43*
X23151Y-5079D02*
D03*
Y-4370D02*
D03*
M02*
