G04 Layer_Color=5514966*
%FSLAX24Y24*%
%MOIN*%
G70*
G01*
G75*
%ADD54R,0.0533X0.0651*%
%ADD55P,0.1408X8X112.5*%
%ADD56C,0.1340*%
%ADD57C,0.0671*%
%ADD58P,0.1408X8X202.5*%
G04:AMPARAMS|DCode=59|XSize=173.4mil|YSize=181.2mil|CornerRadius=0mil|HoleSize=0mil|Usage=FLASHONLY|Rotation=90.000|XOffset=0mil|YOffset=0mil|HoleType=Round|Shape=Octagon|*
%AMOCTAGOND59*
4,1,8,-0.0906,-0.0433,-0.0906,0.0433,-0.0473,0.0867,0.0473,0.0867,0.0906,0.0433,0.0906,-0.0433,0.0473,-0.0867,-0.0473,-0.0867,-0.0906,-0.0433,0.0*
%
%ADD59OCTAGOND59*%

%ADD60C,0.1104*%
%ADD61O,0.1104X0.1340*%
%ADD62P,0.1962X8X202.5*%
%ADD63C,0.1458*%
%ADD64C,0.1182*%
%ADD65C,0.0749*%
%ADD66R,0.0710X0.0749*%
%ADD67C,0.0592*%
G04:AMPARAMS|DCode=68|XSize=106.4mil|YSize=126.1mil|CornerRadius=0mil|HoleSize=0mil|Usage=FLASHONLY|Rotation=270.000|XOffset=0mil|YOffset=0mil|HoleType=Round|Shape=Octagon|*
%AMOCTAGOND68*
4,1,8,0.0631,0.0266,0.0631,-0.0266,0.0364,-0.0532,-0.0364,-0.0532,-0.0631,-0.0266,-0.0631,0.0266,-0.0364,0.0532,0.0364,0.0532,0.0631,0.0266,0.0*
%
%ADD68OCTAGOND68*%

%ADD69P,0.0641X8X112.5*%
%ADD70C,0.0631*%
%ADD71R,0.0789X0.0474*%
%ADD72O,0.0789X0.0474*%
%ADD73P,0.2004X8X22.5*%
%ADD74P,0.1791X8X22.5*%
%ADD75R,0.0671X0.0671*%
%ADD76P,0.0768X8X292.5*%
%ADD77C,0.0420*%
%ADD78C,0.0380*%
%ADD79R,0.0651X0.0533*%
D54*
X20896Y-12900D02*
D03*
X21604D02*
D03*
X22565Y-7087D02*
D03*
X21856D02*
D03*
D55*
X20906Y-20551D02*
D03*
D56*
Y-18976D02*
D03*
Y-17402D02*
D03*
Y-15827D02*
D03*
Y-14252D02*
D03*
X9000Y-14350D02*
D03*
D57*
X16100Y-11300D02*
D03*
Y-10300D02*
D03*
Y-12300D02*
D03*
X15099Y-11300D02*
D03*
X15099Y-12300D02*
D03*
X15099Y-10300D02*
D03*
X19114Y-7402D02*
D03*
Y-8402D02*
D03*
X18114Y-7402D02*
D03*
Y-8402D02*
D03*
X17114Y-7402D02*
D03*
Y-8402D02*
D03*
X16114Y-7402D02*
D03*
Y-8402D02*
D03*
X15114Y-7402D02*
D03*
Y-8402D02*
D03*
X14114Y-7402D02*
D03*
D58*
X19764Y-3661D02*
D03*
X13465D02*
D03*
D59*
X19764Y-1890D02*
D03*
X13465D02*
D03*
D60*
X21437Y-650D02*
D03*
X18091D02*
D03*
X15138D02*
D03*
X11791D02*
D03*
X650Y-17697D02*
D03*
Y-21043D02*
D03*
D61*
X3661Y-19370D02*
D03*
D62*
X1890D02*
D03*
D63*
X25335Y-1969D02*
D03*
X1575Y-25307D02*
D03*
D64*
X5512D02*
D03*
D65*
X24921Y-5063D02*
D03*
Y-6063D02*
D03*
D66*
Y-7063D02*
D03*
D67*
X4449Y-19882D02*
D03*
Y-18858D02*
D03*
X20961Y-10850D02*
D03*
X21946D02*
D03*
D68*
X3268Y-16772D02*
D03*
Y-21969D02*
D03*
D69*
X5433Y-19882D02*
D03*
Y-20709D02*
D03*
Y-18032D02*
D03*
Y-19016D02*
D03*
X4449Y-18032D02*
D03*
Y-20709D02*
D03*
D70*
X9284Y-10591D02*
D03*
X7316D02*
D03*
D71*
X9700Y-16350D02*
D03*
X6378Y-13622D02*
D03*
D72*
X9700Y-16850D02*
D03*
Y-17350D02*
D03*
Y-17850D02*
D03*
Y-18350D02*
D03*
Y-18850D02*
D03*
Y-19350D02*
D03*
Y-19850D02*
D03*
Y-20350D02*
D03*
Y-20850D02*
D03*
Y-21350D02*
D03*
X6378Y-14122D02*
D03*
Y-14622D02*
D03*
Y-15122D02*
D03*
D73*
X5472Y-5118D02*
D03*
D74*
X3110D02*
D03*
D75*
X14114Y-8402D02*
D03*
D76*
X1142Y-10236D02*
D03*
Y-11220D02*
D03*
Y-12205D02*
D03*
Y-14173D02*
D03*
X2717Y-10236D02*
D03*
Y-11220D02*
D03*
Y-12205D02*
D03*
Y-14173D02*
D03*
D77*
X16600Y-5800D02*
D03*
X17600D02*
D03*
X17300Y-14848D02*
D03*
X15150Y-14850D02*
D03*
X14000Y-18307D02*
D03*
D78*
X6300Y-16200D02*
D03*
D79*
X23151Y-5079D02*
D03*
Y-4370D02*
D03*
M02*
