G04 Layer_Color=2752767*
%FSLAX24Y24*%
%MOIN*%
G70*
G01*
G75*
%ADD80C,0.0020*%
%ADD81C,0.0027*%
%ADD82C,0.0013*%
D80*
X20826Y-20631D02*
Y-20471D01*
X20986D01*
Y-20631D01*
X20826D01*
Y-19056D02*
Y-18896D01*
X20986D01*
Y-19056D01*
X20826D01*
Y-17482D02*
Y-17322D01*
X20986D01*
Y-17482D01*
X20826D01*
Y-15907D02*
Y-15747D01*
X20986D01*
Y-15907D01*
X20826D01*
Y-14332D02*
Y-14172D01*
X20986D01*
Y-14332D01*
X20826D01*
X19764Y-3741D02*
X19684Y-3581D01*
X19844D01*
X19764Y-3741D01*
Y-1970D02*
X19804Y-1930D01*
X19844D01*
X19804Y-1890D01*
X19844Y-1850D01*
X19804D01*
X19764Y-1810D01*
X19724Y-1850D01*
X19684D01*
X19724Y-1890D01*
X19684Y-1930D01*
X19724D01*
X19764Y-1970D01*
X21357Y-730D02*
X21397Y-650D01*
X21357Y-570D01*
X21437Y-610D01*
X21517Y-570D01*
X21477Y-650D01*
X21517Y-730D01*
X21437Y-690D01*
X21357Y-730D01*
X18011D02*
X18051Y-650D01*
X18011Y-570D01*
X18091Y-610D01*
X18171Y-570D01*
X18131Y-650D01*
X18171Y-730D01*
X18091Y-690D01*
X18011Y-730D01*
X13465Y-3741D02*
X13385Y-3581D01*
X13545D01*
X13465Y-3741D01*
Y-1970D02*
X13505Y-1930D01*
X13545D01*
X13505Y-1890D01*
X13545Y-1850D01*
X13505D01*
X13465Y-1810D01*
X13425Y-1850D01*
X13385D01*
X13425Y-1890D01*
X13385Y-1930D01*
X13425D01*
X13465Y-1970D01*
X15058Y-730D02*
X15098Y-650D01*
X15058Y-570D01*
X15138Y-610D01*
X15218Y-570D01*
X15178Y-650D01*
X15218Y-730D01*
X15138Y-690D01*
X15058Y-730D01*
X11711D02*
X11751Y-650D01*
X11711Y-570D01*
X11791Y-610D01*
X11871Y-570D01*
X11831Y-650D01*
X11871Y-730D01*
X11791Y-690D01*
X11711Y-730D01*
X3661Y-19450D02*
X3581Y-19290D01*
X3741D01*
X3661Y-19450D01*
X1890D02*
X1930Y-19410D01*
X1970D01*
X1930Y-19370D01*
X1970Y-19330D01*
X1930D01*
X1890Y-19290D01*
X1850Y-19330D01*
X1810D01*
X1850Y-19370D01*
X1810Y-19410D01*
X1850D01*
X1890Y-19450D01*
X570Y-17777D02*
X610Y-17697D01*
X570Y-17617D01*
X650Y-17657D01*
X730Y-17617D01*
X690Y-17697D01*
X730Y-17777D01*
X650Y-17737D01*
X570Y-17777D01*
Y-21123D02*
X610Y-21043D01*
X570Y-20963D01*
X650Y-21003D01*
X730Y-20963D01*
X690Y-21043D01*
X730Y-21123D01*
X650Y-21083D01*
X570Y-21123D01*
X25295Y-2008D02*
Y-2049D01*
X25375D01*
Y-2008D01*
X25415D01*
Y-1928D01*
X25375D01*
Y-1889D01*
X25295D01*
Y-1928D01*
X25255D01*
Y-2008D01*
X25295D01*
X1535Y-25347D02*
Y-25387D01*
X1615D01*
Y-25347D01*
X1655D01*
Y-25267D01*
X1615D01*
Y-25227D01*
X1535D01*
Y-25267D01*
X1495D01*
Y-25347D01*
X1535D01*
X5432Y-25387D02*
X5472D01*
X5512Y-25347D01*
X5552Y-25387D01*
X5592D01*
Y-25347D01*
X5552Y-25307D01*
X5592Y-25267D01*
Y-25227D01*
X5552D01*
X5512Y-25267D01*
X5472Y-25227D01*
X5432D01*
Y-25267D01*
X5472Y-25307D01*
X5432Y-25347D01*
Y-25387D01*
X24841Y-5063D02*
X24921Y-4983D01*
X25001Y-5063D01*
X24921Y-5143D01*
X24841Y-5063D01*
Y-6063D02*
X24921Y-5983D01*
X25001Y-6063D01*
X24921Y-6143D01*
X24841Y-6063D01*
Y-7063D02*
X24921Y-6983D01*
X25001Y-7063D01*
X24921Y-7143D01*
X24841Y-7063D01*
X3188Y-16852D02*
Y-16692D01*
X3348D01*
Y-16852D01*
X3188D01*
X3228Y-16812D02*
Y-16732D01*
X3308D01*
Y-16812D01*
X3228D01*
X3188Y-22048D02*
Y-21888D01*
X3348D01*
Y-22048D01*
X3188D01*
X3228Y-22009D02*
Y-21929D01*
X3308D01*
Y-22009D01*
X3228D01*
X20961Y-10930D02*
X20881Y-10770D01*
X21041D01*
X20961Y-10930D01*
Y-10890D02*
X20921Y-10810D01*
X21001D01*
X20961Y-10890D01*
X21946Y-10930D02*
X21866Y-10770D01*
X22026D01*
X21946Y-10930D01*
Y-10890D02*
X21906Y-10810D01*
X21986D01*
X21946Y-10890D01*
X9284Y-10671D02*
X9204Y-10511D01*
X9364D01*
X9284Y-10671D01*
Y-10631D02*
X9244Y-10551D01*
X9324D01*
X9284Y-10631D01*
X7316Y-10671D02*
X7236Y-10511D01*
X7396D01*
X7316Y-10671D01*
Y-10631D02*
X7276Y-10551D01*
X7356D01*
X7316Y-10631D01*
X9700Y-16430D02*
X9740Y-16390D01*
X9780D01*
X9740Y-16350D01*
X9780Y-16310D01*
X9740D01*
X9700Y-16270D01*
X9660Y-16310D01*
X9620D01*
X9660Y-16350D01*
X9620Y-16390D01*
X9660D01*
X9700Y-16430D01*
Y-16390D02*
X9720Y-16370D01*
X9740D01*
X9720Y-16350D01*
X9740Y-16330D01*
X9720D01*
X9700Y-16310D01*
X9680Y-16330D01*
X9660D01*
X9680Y-16350D01*
X9660Y-16370D01*
X9680D01*
X9700Y-16390D01*
Y-16930D02*
X9740Y-16890D01*
X9780D01*
X9740Y-16850D01*
X9780Y-16810D01*
X9740D01*
X9700Y-16770D01*
X9660Y-16810D01*
X9620D01*
X9660Y-16850D01*
X9620Y-16890D01*
X9660D01*
X9700Y-16930D01*
Y-16890D02*
X9720Y-16870D01*
X9740D01*
X9720Y-16850D01*
X9740Y-16830D01*
X9720D01*
X9700Y-16810D01*
X9680Y-16830D01*
X9660D01*
X9680Y-16850D01*
X9660Y-16870D01*
X9680D01*
X9700Y-16890D01*
Y-17430D02*
X9740Y-17390D01*
X9780D01*
X9740Y-17350D01*
X9780Y-17310D01*
X9740D01*
X9700Y-17270D01*
X9660Y-17310D01*
X9620D01*
X9660Y-17350D01*
X9620Y-17390D01*
X9660D01*
X9700Y-17430D01*
Y-17390D02*
X9720Y-17370D01*
X9740D01*
X9720Y-17350D01*
X9740Y-17330D01*
X9720D01*
X9700Y-17310D01*
X9680Y-17330D01*
X9660D01*
X9680Y-17350D01*
X9660Y-17370D01*
X9680D01*
X9700Y-17390D01*
Y-17930D02*
X9740Y-17890D01*
X9780D01*
X9740Y-17850D01*
X9780Y-17810D01*
X9740D01*
X9700Y-17770D01*
X9660Y-17810D01*
X9620D01*
X9660Y-17850D01*
X9620Y-17890D01*
X9660D01*
X9700Y-17930D01*
Y-17890D02*
X9720Y-17870D01*
X9740D01*
X9720Y-17850D01*
X9740Y-17830D01*
X9720D01*
X9700Y-17810D01*
X9680Y-17830D01*
X9660D01*
X9680Y-17850D01*
X9660Y-17870D01*
X9680D01*
X9700Y-17890D01*
Y-18430D02*
X9740Y-18390D01*
X9780D01*
X9740Y-18350D01*
X9780Y-18310D01*
X9740D01*
X9700Y-18270D01*
X9660Y-18310D01*
X9620D01*
X9660Y-18350D01*
X9620Y-18390D01*
X9660D01*
X9700Y-18430D01*
Y-18390D02*
X9720Y-18370D01*
X9740D01*
X9720Y-18350D01*
X9740Y-18330D01*
X9720D01*
X9700Y-18310D01*
X9680Y-18330D01*
X9660D01*
X9680Y-18350D01*
X9660Y-18370D01*
X9680D01*
X9700Y-18390D01*
Y-18930D02*
X9740Y-18890D01*
X9780D01*
X9740Y-18850D01*
X9780Y-18810D01*
X9740D01*
X9700Y-18770D01*
X9660Y-18810D01*
X9620D01*
X9660Y-18850D01*
X9620Y-18890D01*
X9660D01*
X9700Y-18930D01*
Y-18890D02*
X9720Y-18870D01*
X9740D01*
X9720Y-18850D01*
X9740Y-18830D01*
X9720D01*
X9700Y-18810D01*
X9680Y-18830D01*
X9660D01*
X9680Y-18850D01*
X9660Y-18870D01*
X9680D01*
X9700Y-18890D01*
Y-19430D02*
X9740Y-19390D01*
X9780D01*
X9740Y-19350D01*
X9780Y-19310D01*
X9740D01*
X9700Y-19270D01*
X9660Y-19310D01*
X9620D01*
X9660Y-19350D01*
X9620Y-19390D01*
X9660D01*
X9700Y-19430D01*
Y-19390D02*
X9720Y-19370D01*
X9740D01*
X9720Y-19350D01*
X9740Y-19330D01*
X9720D01*
X9700Y-19310D01*
X9680Y-19330D01*
X9660D01*
X9680Y-19350D01*
X9660Y-19370D01*
X9680D01*
X9700Y-19390D01*
Y-19930D02*
X9740Y-19890D01*
X9780D01*
X9740Y-19850D01*
X9780Y-19810D01*
X9740D01*
X9700Y-19770D01*
X9660Y-19810D01*
X9620D01*
X9660Y-19850D01*
X9620Y-19890D01*
X9660D01*
X9700Y-19930D01*
Y-19890D02*
X9720Y-19870D01*
X9740D01*
X9720Y-19850D01*
X9740Y-19830D01*
X9720D01*
X9700Y-19810D01*
X9680Y-19830D01*
X9660D01*
X9680Y-19850D01*
X9660Y-19870D01*
X9680D01*
X9700Y-19890D01*
Y-20430D02*
X9740Y-20390D01*
X9780D01*
X9740Y-20350D01*
X9780Y-20310D01*
X9740D01*
X9700Y-20270D01*
X9660Y-20310D01*
X9620D01*
X9660Y-20350D01*
X9620Y-20390D01*
X9660D01*
X9700Y-20430D01*
Y-20390D02*
X9720Y-20370D01*
X9740D01*
X9720Y-20350D01*
X9740Y-20330D01*
X9720D01*
X9700Y-20310D01*
X9680Y-20330D01*
X9660D01*
X9680Y-20350D01*
X9660Y-20370D01*
X9680D01*
X9700Y-20390D01*
Y-20930D02*
X9740Y-20890D01*
X9780D01*
X9740Y-20850D01*
X9780Y-20810D01*
X9740D01*
X9700Y-20770D01*
X9660Y-20810D01*
X9620D01*
X9660Y-20850D01*
X9620Y-20890D01*
X9660D01*
X9700Y-20930D01*
Y-20890D02*
X9720Y-20870D01*
X9740D01*
X9720Y-20850D01*
X9740Y-20830D01*
X9720D01*
X9700Y-20810D01*
X9680Y-20830D01*
X9660D01*
X9680Y-20850D01*
X9660Y-20870D01*
X9680D01*
X9700Y-20890D01*
Y-21430D02*
X9740Y-21390D01*
X9780D01*
X9740Y-21350D01*
X9780Y-21310D01*
X9740D01*
X9700Y-21270D01*
X9660Y-21310D01*
X9620D01*
X9660Y-21350D01*
X9620Y-21390D01*
X9660D01*
X9700Y-21430D01*
Y-21390D02*
X9720Y-21370D01*
X9740D01*
X9720Y-21350D01*
X9740Y-21330D01*
X9720D01*
X9700Y-21310D01*
X9680Y-21330D01*
X9660D01*
X9680Y-21350D01*
X9660Y-21370D01*
X9680D01*
X9700Y-21390D01*
X5392Y-5198D02*
X5432Y-5118D01*
X5392Y-5038D01*
X5472Y-5078D01*
X5552Y-5038D01*
X5512Y-5118D01*
X5552Y-5198D01*
X5472Y-5158D01*
X5392Y-5198D01*
X5432Y-5158D02*
X5452Y-5118D01*
X5432Y-5078D01*
X5472Y-5098D01*
X5512Y-5078D01*
X5492Y-5118D01*
X5512Y-5158D01*
X5472Y-5138D01*
X5432Y-5158D01*
X3070D02*
Y-5198D01*
X3150D01*
Y-5158D01*
X3190D01*
Y-5078D01*
X3150D01*
Y-5038D01*
X3070D01*
Y-5078D01*
X3030D01*
Y-5158D01*
X3070D01*
X3090Y-5138D02*
Y-5158D01*
X3130D01*
Y-5138D01*
X3150D01*
Y-5098D01*
X3130D01*
Y-5078D01*
X3090D01*
Y-5098D01*
X3070D01*
Y-5138D01*
X3090D01*
X19034Y-7482D02*
X19074D01*
X19114Y-7442D01*
X19154Y-7482D01*
X19194D01*
Y-7442D01*
X19154Y-7402D01*
X19194Y-7362D01*
Y-7322D01*
X19154D01*
X19114Y-7362D01*
X19074Y-7322D01*
X19034D01*
Y-7362D01*
X19074Y-7402D01*
X19034Y-7442D01*
Y-7482D01*
X19074Y-7442D02*
X19094D01*
X19114Y-7422D01*
X19134Y-7442D01*
X19154D01*
Y-7422D01*
X19134Y-7402D01*
X19154Y-7382D01*
Y-7362D01*
X19134D01*
X19114Y-7382D01*
X19094Y-7362D01*
X19074D01*
Y-7382D01*
X19094Y-7402D01*
X19074Y-7422D01*
Y-7442D01*
X19034Y-8482D02*
X19074D01*
X19114Y-8442D01*
X19154Y-8482D01*
X19194D01*
Y-8442D01*
X19154Y-8402D01*
X19194Y-8362D01*
Y-8322D01*
X19154D01*
X19114Y-8362D01*
X19074Y-8322D01*
X19034D01*
Y-8362D01*
X19074Y-8402D01*
X19034Y-8442D01*
Y-8482D01*
X19074Y-8442D02*
X19094D01*
X19114Y-8422D01*
X19134Y-8442D01*
X19154D01*
Y-8422D01*
X19134Y-8402D01*
X19154Y-8382D01*
Y-8362D01*
X19134D01*
X19114Y-8382D01*
X19094Y-8362D01*
X19074D01*
Y-8382D01*
X19094Y-8402D01*
X19074Y-8422D01*
Y-8442D01*
X18034Y-7482D02*
X18074D01*
X18114Y-7442D01*
X18154Y-7482D01*
X18194D01*
Y-7442D01*
X18154Y-7402D01*
X18194Y-7362D01*
Y-7322D01*
X18154D01*
X18114Y-7362D01*
X18074Y-7322D01*
X18034D01*
Y-7362D01*
X18074Y-7402D01*
X18034Y-7442D01*
Y-7482D01*
X18074Y-7442D02*
X18094D01*
X18114Y-7422D01*
X18134Y-7442D01*
X18154D01*
Y-7422D01*
X18134Y-7402D01*
X18154Y-7382D01*
Y-7362D01*
X18134D01*
X18114Y-7382D01*
X18094Y-7362D01*
X18074D01*
Y-7382D01*
X18094Y-7402D01*
X18074Y-7422D01*
Y-7442D01*
X18034Y-8482D02*
X18074D01*
X18114Y-8442D01*
X18154Y-8482D01*
X18194D01*
Y-8442D01*
X18154Y-8402D01*
X18194Y-8362D01*
Y-8322D01*
X18154D01*
X18114Y-8362D01*
X18074Y-8322D01*
X18034D01*
Y-8362D01*
X18074Y-8402D01*
X18034Y-8442D01*
Y-8482D01*
X18074Y-8442D02*
X18094D01*
X18114Y-8422D01*
X18134Y-8442D01*
X18154D01*
Y-8422D01*
X18134Y-8402D01*
X18154Y-8382D01*
Y-8362D01*
X18134D01*
X18114Y-8382D01*
X18094Y-8362D01*
X18074D01*
Y-8382D01*
X18094Y-8402D01*
X18074Y-8422D01*
Y-8442D01*
X17034Y-7482D02*
X17074D01*
X17114Y-7442D01*
X17154Y-7482D01*
X17194D01*
Y-7442D01*
X17154Y-7402D01*
X17194Y-7362D01*
Y-7322D01*
X17154D01*
X17114Y-7362D01*
X17074Y-7322D01*
X17034D01*
Y-7362D01*
X17074Y-7402D01*
X17034Y-7442D01*
Y-7482D01*
X17074Y-7442D02*
X17094D01*
X17114Y-7422D01*
X17134Y-7442D01*
X17154D01*
Y-7422D01*
X17134Y-7402D01*
X17154Y-7382D01*
Y-7362D01*
X17134D01*
X17114Y-7382D01*
X17094Y-7362D01*
X17074D01*
Y-7382D01*
X17094Y-7402D01*
X17074Y-7422D01*
Y-7442D01*
X17034Y-8482D02*
X17074D01*
X17114Y-8442D01*
X17154Y-8482D01*
X17194D01*
Y-8442D01*
X17154Y-8402D01*
X17194Y-8362D01*
Y-8322D01*
X17154D01*
X17114Y-8362D01*
X17074Y-8322D01*
X17034D01*
Y-8362D01*
X17074Y-8402D01*
X17034Y-8442D01*
Y-8482D01*
X17074Y-8442D02*
X17094D01*
X17114Y-8422D01*
X17134Y-8442D01*
X17154D01*
Y-8422D01*
X17134Y-8402D01*
X17154Y-8382D01*
Y-8362D01*
X17134D01*
X17114Y-8382D01*
X17094Y-8362D01*
X17074D01*
Y-8382D01*
X17094Y-8402D01*
X17074Y-8422D01*
Y-8442D01*
X16034Y-7482D02*
X16074D01*
X16114Y-7442D01*
X16154Y-7482D01*
X16194D01*
Y-7442D01*
X16154Y-7402D01*
X16194Y-7362D01*
Y-7322D01*
X16154D01*
X16114Y-7362D01*
X16074Y-7322D01*
X16034D01*
Y-7362D01*
X16074Y-7402D01*
X16034Y-7442D01*
Y-7482D01*
X16074Y-7442D02*
X16094D01*
X16114Y-7422D01*
X16134Y-7442D01*
X16154D01*
Y-7422D01*
X16134Y-7402D01*
X16154Y-7382D01*
Y-7362D01*
X16134D01*
X16114Y-7382D01*
X16094Y-7362D01*
X16074D01*
Y-7382D01*
X16094Y-7402D01*
X16074Y-7422D01*
Y-7442D01*
X16034Y-8482D02*
X16074D01*
X16114Y-8442D01*
X16154Y-8482D01*
X16194D01*
Y-8442D01*
X16154Y-8402D01*
X16194Y-8362D01*
Y-8322D01*
X16154D01*
X16114Y-8362D01*
X16074Y-8322D01*
X16034D01*
Y-8362D01*
X16074Y-8402D01*
X16034Y-8442D01*
Y-8482D01*
X16074Y-8442D02*
X16094D01*
X16114Y-8422D01*
X16134Y-8442D01*
X16154D01*
Y-8422D01*
X16134Y-8402D01*
X16154Y-8382D01*
Y-8362D01*
X16134D01*
X16114Y-8382D01*
X16094Y-8362D01*
X16074D01*
Y-8382D01*
X16094Y-8402D01*
X16074Y-8422D01*
Y-8442D01*
X15034Y-7482D02*
X15074D01*
X15114Y-7442D01*
X15154Y-7482D01*
X15194D01*
Y-7442D01*
X15154Y-7402D01*
X15194Y-7362D01*
Y-7322D01*
X15154D01*
X15114Y-7362D01*
X15074Y-7322D01*
X15034D01*
Y-7362D01*
X15074Y-7402D01*
X15034Y-7442D01*
Y-7482D01*
X15074Y-7442D02*
X15094D01*
X15114Y-7422D01*
X15134Y-7442D01*
X15154D01*
Y-7422D01*
X15134Y-7402D01*
X15154Y-7382D01*
Y-7362D01*
X15134D01*
X15114Y-7382D01*
X15094Y-7362D01*
X15074D01*
Y-7382D01*
X15094Y-7402D01*
X15074Y-7422D01*
Y-7442D01*
X15034Y-8482D02*
X15074D01*
X15114Y-8442D01*
X15154Y-8482D01*
X15194D01*
Y-8442D01*
X15154Y-8402D01*
X15194Y-8362D01*
Y-8322D01*
X15154D01*
X15114Y-8362D01*
X15074Y-8322D01*
X15034D01*
Y-8362D01*
X15074Y-8402D01*
X15034Y-8442D01*
Y-8482D01*
X15074Y-8442D02*
X15094D01*
X15114Y-8422D01*
X15134Y-8442D01*
X15154D01*
Y-8422D01*
X15134Y-8402D01*
X15154Y-8382D01*
Y-8362D01*
X15134D01*
X15114Y-8382D01*
X15094Y-8362D01*
X15074D01*
Y-8382D01*
X15094Y-8402D01*
X15074Y-8422D01*
Y-8442D01*
X14034Y-7482D02*
X14074D01*
X14114Y-7442D01*
X14154Y-7482D01*
X14194D01*
Y-7442D01*
X14154Y-7402D01*
X14194Y-7362D01*
Y-7322D01*
X14154D01*
X14114Y-7362D01*
X14074Y-7322D01*
X14034D01*
Y-7362D01*
X14074Y-7402D01*
X14034Y-7442D01*
Y-7482D01*
X14074Y-7442D02*
X14094D01*
X14114Y-7422D01*
X14134Y-7442D01*
X14154D01*
Y-7422D01*
X14134Y-7402D01*
X14154Y-7382D01*
Y-7362D01*
X14134D01*
X14114Y-7382D01*
X14094Y-7362D01*
X14074D01*
Y-7382D01*
X14094Y-7402D01*
X14074Y-7422D01*
Y-7442D01*
X14034Y-8482D02*
X14074D01*
X14114Y-8442D01*
X14154Y-8482D01*
X14194D01*
Y-8442D01*
X14154Y-8402D01*
X14194Y-8362D01*
Y-8322D01*
X14154D01*
X14114Y-8362D01*
X14074Y-8322D01*
X14034D01*
Y-8362D01*
X14074Y-8402D01*
X14034Y-8442D01*
Y-8482D01*
X14074Y-8442D02*
X14094D01*
X14114Y-8422D01*
X14134Y-8442D01*
X14154D01*
Y-8422D01*
X14134Y-8402D01*
X14154Y-8382D01*
Y-8362D01*
X14134D01*
X14114Y-8382D01*
X14094Y-8362D01*
X14074D01*
Y-8382D01*
X14094Y-8402D01*
X14074Y-8422D01*
Y-8442D01*
X6378Y-13702D02*
X6418Y-13662D01*
X6458D01*
X6418Y-13622D01*
X6458Y-13582D01*
X6418D01*
X6378Y-13542D01*
X6338Y-13582D01*
X6298D01*
X6338Y-13622D01*
X6298Y-13662D01*
X6338D01*
X6378Y-13702D01*
Y-13662D02*
X6398Y-13642D01*
X6418D01*
X6398Y-13622D01*
X6418Y-13602D01*
X6398D01*
X6378Y-13582D01*
X6358Y-13602D01*
X6338D01*
X6358Y-13622D01*
X6338Y-13642D01*
X6358D01*
X6378Y-13662D01*
Y-14202D02*
X6418Y-14162D01*
X6458D01*
X6418Y-14122D01*
X6458Y-14082D01*
X6418D01*
X6378Y-14042D01*
X6338Y-14082D01*
X6298D01*
X6338Y-14122D01*
X6298Y-14162D01*
X6338D01*
X6378Y-14202D01*
Y-14162D02*
X6398Y-14142D01*
X6418D01*
X6398Y-14122D01*
X6418Y-14102D01*
X6398D01*
X6378Y-14082D01*
X6358Y-14102D01*
X6338D01*
X6358Y-14122D01*
X6338Y-14142D01*
X6358D01*
X6378Y-14162D01*
Y-14702D02*
X6418Y-14662D01*
X6458D01*
X6418Y-14622D01*
X6458Y-14582D01*
X6418D01*
X6378Y-14542D01*
X6338Y-14582D01*
X6298D01*
X6338Y-14622D01*
X6298Y-14662D01*
X6338D01*
X6378Y-14702D01*
Y-14662D02*
X6398Y-14642D01*
X6418D01*
X6398Y-14622D01*
X6418Y-14602D01*
X6398D01*
X6378Y-14582D01*
X6358Y-14602D01*
X6338D01*
X6358Y-14622D01*
X6338Y-14642D01*
X6358D01*
X6378Y-14662D01*
Y-15202D02*
X6418Y-15162D01*
X6458D01*
X6418Y-15122D01*
X6458Y-15082D01*
X6418D01*
X6378Y-15042D01*
X6338Y-15082D01*
X6298D01*
X6338Y-15122D01*
X6298Y-15162D01*
X6338D01*
X6378Y-15202D01*
Y-15162D02*
X6398Y-15142D01*
X6418D01*
X6398Y-15122D01*
X6418Y-15102D01*
X6398D01*
X6378Y-15082D01*
X6358Y-15102D01*
X6338D01*
X6358Y-15122D01*
X6338Y-15142D01*
X6358D01*
X6378Y-15162D01*
X1062Y-11300D02*
X1102D01*
X1142Y-11260D01*
X1182Y-11300D01*
X1222D01*
Y-11260D01*
X1182Y-11220D01*
X1222Y-11180D01*
Y-11140D01*
X1182D01*
X1142Y-11180D01*
X1102Y-11140D01*
X1062D01*
Y-11180D01*
X1102Y-11220D01*
X1062Y-11260D01*
Y-11300D01*
X1102Y-11260D02*
X1122D01*
X1142Y-11240D01*
X1162Y-11260D01*
X1182D01*
Y-11240D01*
X1162Y-11220D01*
X1182Y-11200D01*
Y-11180D01*
X1162D01*
X1142Y-11200D01*
X1122Y-11180D01*
X1102D01*
Y-11200D01*
X1122Y-11220D01*
X1102Y-11240D01*
Y-11260D01*
X1062Y-12285D02*
X1102D01*
X1142Y-12245D01*
X1182Y-12285D01*
X1222D01*
Y-12245D01*
X1182Y-12205D01*
X1222Y-12165D01*
Y-12125D01*
X1182D01*
X1142Y-12165D01*
X1102Y-12125D01*
X1062D01*
Y-12165D01*
X1102Y-12205D01*
X1062Y-12245D01*
Y-12285D01*
X1102Y-12245D02*
X1122D01*
X1142Y-12225D01*
X1162Y-12245D01*
X1182D01*
Y-12225D01*
X1162Y-12205D01*
X1182Y-12185D01*
Y-12165D01*
X1162D01*
X1142Y-12185D01*
X1122Y-12165D01*
X1102D01*
Y-12185D01*
X1122Y-12205D01*
X1102Y-12225D01*
Y-12245D01*
X1062Y-14253D02*
X1102D01*
X1142Y-14213D01*
X1182Y-14253D01*
X1222D01*
Y-14213D01*
X1182Y-14173D01*
X1222Y-14133D01*
Y-14093D01*
X1182D01*
X1142Y-14133D01*
X1102Y-14093D01*
X1062D01*
Y-14133D01*
X1102Y-14173D01*
X1062Y-14213D01*
Y-14253D01*
X1102Y-14213D02*
X1122D01*
X1142Y-14193D01*
X1162Y-14213D01*
X1182D01*
Y-14193D01*
X1162Y-14173D01*
X1182Y-14153D01*
Y-14133D01*
X1162D01*
X1142Y-14153D01*
X1122Y-14133D01*
X1102D01*
Y-14153D01*
X1122Y-14173D01*
X1102Y-14193D01*
Y-14213D01*
X2637Y-10316D02*
X2677D01*
X2717Y-10276D01*
X2757Y-10316D01*
X2797D01*
Y-10276D01*
X2757Y-10236D01*
X2797Y-10196D01*
Y-10156D01*
X2757D01*
X2717Y-10196D01*
X2677Y-10156D01*
X2637D01*
Y-10196D01*
X2677Y-10236D01*
X2637Y-10276D01*
Y-10316D01*
X2677Y-10276D02*
X2697D01*
X2717Y-10256D01*
X2737Y-10276D01*
X2757D01*
Y-10256D01*
X2737Y-10236D01*
X2757Y-10216D01*
Y-10196D01*
X2737D01*
X2717Y-10216D01*
X2697Y-10196D01*
X2677D01*
Y-10216D01*
X2697Y-10236D01*
X2677Y-10256D01*
Y-10276D01*
X2637Y-11300D02*
X2677D01*
X2717Y-11260D01*
X2757Y-11300D01*
X2797D01*
Y-11260D01*
X2757Y-11220D01*
X2797Y-11180D01*
Y-11140D01*
X2757D01*
X2717Y-11180D01*
X2677Y-11140D01*
X2637D01*
Y-11180D01*
X2677Y-11220D01*
X2637Y-11260D01*
Y-11300D01*
X2677Y-11260D02*
X2697D01*
X2717Y-11240D01*
X2737Y-11260D01*
X2757D01*
Y-11240D01*
X2737Y-11220D01*
X2757Y-11200D01*
Y-11180D01*
X2737D01*
X2717Y-11200D01*
X2697Y-11180D01*
X2677D01*
Y-11200D01*
X2697Y-11220D01*
X2677Y-11240D01*
Y-11260D01*
X2637Y-12285D02*
X2677D01*
X2717Y-12245D01*
X2757Y-12285D01*
X2797D01*
Y-12245D01*
X2757Y-12205D01*
X2797Y-12165D01*
Y-12125D01*
X2757D01*
X2717Y-12165D01*
X2677Y-12125D01*
X2637D01*
Y-12165D01*
X2677Y-12205D01*
X2637Y-12245D01*
Y-12285D01*
X2677Y-12245D02*
X2697D01*
X2717Y-12225D01*
X2737Y-12245D01*
X2757D01*
Y-12225D01*
X2737Y-12205D01*
X2757Y-12185D01*
Y-12165D01*
X2737D01*
X2717Y-12185D01*
X2697Y-12165D01*
X2677D01*
Y-12185D01*
X2697Y-12205D01*
X2677Y-12225D01*
Y-12245D01*
X2637Y-14253D02*
X2677D01*
X2717Y-14213D01*
X2757Y-14253D01*
X2797D01*
Y-14213D01*
X2757Y-14173D01*
X2797Y-14133D01*
Y-14093D01*
X2757D01*
X2717Y-14133D01*
X2677Y-14093D01*
X2637D01*
Y-14133D01*
X2677Y-14173D01*
X2637Y-14213D01*
Y-14253D01*
X2677Y-14213D02*
X2697D01*
X2717Y-14193D01*
X2737Y-14213D01*
X2757D01*
Y-14193D01*
X2737Y-14173D01*
X2757Y-14153D01*
Y-14133D01*
X2737D01*
X2717Y-14153D01*
X2697Y-14133D01*
X2677D01*
Y-14153D01*
X2697Y-14173D01*
X2677Y-14193D01*
Y-14213D01*
X16600Y-5800D02*
Y-5667D01*
X16667Y-5600D01*
X16733Y-5667D01*
Y-5800D01*
Y-5700D01*
X16600D01*
X17600Y-5800D02*
Y-5667D01*
X17667Y-5600D01*
X17733Y-5667D01*
Y-5800D01*
Y-5700D01*
X17600D01*
X6300Y-16000D02*
Y-16200D01*
X6400D01*
X6433Y-16167D01*
Y-16133D01*
X6400Y-16100D01*
X6300D01*
X6400D01*
X6433Y-16067D01*
Y-16033D01*
X6400Y-16000D01*
X6300D01*
X17300Y-14848D02*
Y-14715D01*
X17367Y-14648D01*
X17433Y-14715D01*
Y-14848D01*
Y-14748D01*
X17300D01*
X15150Y-14850D02*
Y-14717D01*
X15217Y-14650D01*
X15283Y-14717D01*
Y-14850D01*
Y-14750D01*
X15150D01*
X14000Y-18307D02*
Y-18174D01*
X14067Y-18108D01*
X14133Y-18174D01*
Y-18307D01*
Y-18207D01*
X14000D01*
D81*
X16180Y-11300D02*
G03*
X16180Y-11300I-80J0D01*
G01*
Y-10300D02*
G03*
X16180Y-10300I-80J0D01*
G01*
Y-12300D02*
G03*
X16180Y-12300I-80J0D01*
G01*
X15179Y-11300D02*
G03*
X15179Y-11300I-80J0D01*
G01*
X15179Y-12300D02*
G03*
X15179Y-12300I-80J0D01*
G01*
X15179Y-10300D02*
G03*
X15179Y-10300I-80J0D01*
G01*
X4529Y-19882D02*
G03*
X4529Y-19882I-80J0D01*
G01*
Y-18858D02*
G03*
X4529Y-18858I-80J0D01*
G01*
X5513Y-19882D02*
G03*
X5513Y-19882I-80J0D01*
G01*
Y-20709D02*
G03*
X5513Y-20709I-80J0D01*
G01*
Y-18032D02*
G03*
X5513Y-18032I-80J0D01*
G01*
Y-19016D02*
G03*
X5513Y-19016I-80J0D01*
G01*
X4529Y-18032D02*
G03*
X4529Y-18032I-80J0D01*
G01*
Y-20709D02*
G03*
X4529Y-20709I-80J0D01*
G01*
X9080Y-14350D02*
G03*
X9080Y-14350I-80J0D01*
G01*
X1222Y-10236D02*
G03*
X1222Y-10236I-80J0D01*
G01*
D82*
X9040Y-14350D02*
G03*
X9040Y-14350I-40J0D01*
G01*
M02*
