G04 Layer_Physical_Order=1*
G04 Layer_Color=255*
%FSLAX24Y24*%
%MOIN*%
G70*
G01*
G75*
%ADD10R,0.0413X0.0551*%
%ADD11R,0.0236X0.0571*%
%ADD12R,0.0709X0.0669*%
G04:AMPARAMS|DCode=13|XSize=51.2mil|YSize=70.9mil|CornerRadius=12.8mil|HoleSize=0mil|Usage=FLASHONLY|Rotation=0.000|XOffset=0mil|YOffset=0mil|HoleType=Round|Shape=RoundedRectangle|*
%AMROUNDEDRECTD13*
21,1,0.0512,0.0453,0,0,0.0*
21,1,0.0256,0.0709,0,0,0.0*
1,1,0.0256,0.0128,-0.0226*
1,1,0.0256,-0.0128,-0.0226*
1,1,0.0256,-0.0128,0.0226*
1,1,0.0256,0.0128,0.0226*
%
%ADD13ROUNDEDRECTD13*%
%ADD14R,0.0512X0.0709*%
%ADD15R,0.0453X0.0571*%
%ADD16C,0.0400*%
%ADD17C,0.0150*%
%ADD18C,0.0200*%
%ADD19P,0.1321X8X112.5*%
%ADD20C,0.1260*%
%ADD21C,0.0591*%
%ADD22P,0.1321X8X202.5*%
G04:AMPARAMS|DCode=23|XSize=165.4mil|YSize=173.2mil|CornerRadius=0mil|HoleSize=0mil|Usage=FLASHONLY|Rotation=90.000|XOffset=0mil|YOffset=0mil|HoleType=Round|Shape=Octagon|*
%AMOCTAGOND23*
4,1,8,-0.0866,-0.0413,-0.0866,0.0413,-0.0453,0.0827,0.0453,0.0827,0.0866,0.0413,0.0866,-0.0413,0.0453,-0.0827,-0.0453,-0.0827,-0.0866,-0.0413,0.0*
%
%ADD23OCTAGOND23*%

%ADD24C,0.1024*%
%ADD25O,0.1024X0.1260*%
%ADD26P,0.1875X8X202.5*%
%ADD27C,0.1378*%
%ADD28C,0.1102*%
%ADD29C,0.0669*%
%ADD30R,0.0630X0.0669*%
%ADD31C,0.0512*%
G04:AMPARAMS|DCode=32|XSize=98.4mil|YSize=118.1mil|CornerRadius=0mil|HoleSize=0mil|Usage=FLASHONLY|Rotation=270.000|XOffset=0mil|YOffset=0mil|HoleType=Round|Shape=Octagon|*
%AMOCTAGOND32*
4,1,8,0.0591,0.0246,0.0591,-0.0246,0.0344,-0.0492,-0.0344,-0.0492,-0.0591,-0.0246,-0.0591,0.0246,-0.0344,0.0492,0.0344,0.0492,0.0591,0.0246,0.0*
%
%ADD32OCTAGOND32*%

%ADD33P,0.0554X8X112.5*%
%ADD34C,0.0551*%
%ADD35R,0.0709X0.0394*%
%ADD36O,0.0709X0.0394*%
%ADD37P,0.1918X8X22.5*%
%ADD38P,0.1705X8X22.5*%
%ADD39R,0.0591X0.0591*%
%ADD40P,0.0682X8X292.5*%
%ADD41C,0.0340*%
%ADD42C,0.0300*%
G36*
X4488Y0D02*
X11636D01*
X11643Y-50D01*
X11554Y-77D01*
X11447Y-134D01*
X11353Y-211D01*
X11276Y-305D01*
X11219Y-412D01*
X11183Y-529D01*
X11172Y-650D01*
X11183Y-771D01*
X11219Y-887D01*
X11276Y-994D01*
X11353Y-1088D01*
X11447Y-1165D01*
X11554Y-1222D01*
X11670Y-1257D01*
X11791Y-1269D01*
X11912Y-1257D01*
X12029Y-1222D01*
X12136Y-1165D01*
X12230Y-1088D01*
X12307Y-994D01*
X12364Y-887D01*
X12399Y-771D01*
X12411Y-650D01*
X12399Y-529D01*
X12364Y-412D01*
X12307Y-305D01*
X12230Y-211D01*
X12136Y-134D01*
X12029Y-77D01*
X11940Y-50D01*
X11947Y0D01*
X14982D01*
X14990Y-50D01*
X14901Y-77D01*
X14793Y-134D01*
X14700Y-211D01*
X14622Y-305D01*
X14565Y-412D01*
X14530Y-529D01*
X14518Y-650D01*
X14530Y-771D01*
X14565Y-887D01*
X14622Y-994D01*
X14700Y-1088D01*
X14793Y-1165D01*
X14901Y-1222D01*
X15017Y-1257D01*
X15138Y-1269D01*
X15259Y-1257D01*
X15375Y-1222D01*
X15482Y-1165D01*
X15576Y-1088D01*
X15653Y-994D01*
X15710Y-887D01*
X15746Y-771D01*
X15758Y-650D01*
X15746Y-529D01*
X15710Y-412D01*
X15653Y-305D01*
X15576Y-211D01*
X15482Y-134D01*
X15375Y-77D01*
X15286Y-50D01*
X15293Y0D01*
X17935D01*
X17942Y-50D01*
X17853Y-77D01*
X17746Y-134D01*
X17652Y-211D01*
X17575Y-305D01*
X17518Y-412D01*
X17483Y-529D01*
X17471Y-650D01*
X17483Y-771D01*
X17518Y-887D01*
X17575Y-994D01*
X17652Y-1088D01*
X17746Y-1165D01*
X17853Y-1222D01*
X17970Y-1257D01*
X18091Y-1269D01*
X18211Y-1257D01*
X18328Y-1222D01*
X18435Y-1165D01*
X18529Y-1088D01*
X18606Y-994D01*
X18663Y-887D01*
X18698Y-771D01*
X18710Y-650D01*
X18698Y-529D01*
X18663Y-412D01*
X18606Y-305D01*
X18529Y-211D01*
X18435Y-134D01*
X18328Y-77D01*
X18239Y-50D01*
X18246Y0D01*
X21281D01*
X21289Y-50D01*
X21200Y-77D01*
X21093Y-134D01*
X20999Y-211D01*
X20922Y-305D01*
X20864Y-412D01*
X20829Y-529D01*
X20817Y-650D01*
X20829Y-771D01*
X20864Y-887D01*
X20922Y-994D01*
X20999Y-1088D01*
X21093Y-1165D01*
X21200Y-1222D01*
X21316Y-1257D01*
X21437Y-1269D01*
X21558Y-1257D01*
X21674Y-1222D01*
X21781Y-1165D01*
X21875Y-1088D01*
X21952Y-994D01*
X22010Y-887D01*
X22045Y-771D01*
X22057Y-650D01*
X22045Y-529D01*
X22010Y-412D01*
X21952Y-305D01*
X21875Y-211D01*
X21781Y-134D01*
X21674Y-77D01*
X21585Y-50D01*
X21593Y0D01*
X27382D01*
Y-3543D01*
X26575D01*
Y-8465D01*
X22972D01*
Y-22984D01*
X20984D01*
Y-24559D01*
X17067D01*
Y-22984D01*
X7087D01*
Y-27276D01*
X0D01*
Y-21199D01*
X50Y-21192D01*
X77Y-21280D01*
X134Y-21388D01*
X211Y-21482D01*
X305Y-21559D01*
X412Y-21616D01*
X529Y-21651D01*
X650Y-21663D01*
X771Y-21651D01*
X887Y-21616D01*
X994Y-21559D01*
X1088Y-21482D01*
X1165Y-21388D01*
X1222Y-21280D01*
X1257Y-21164D01*
X1269Y-21043D01*
X1257Y-20922D01*
X1222Y-20806D01*
X1165Y-20699D01*
X1088Y-20605D01*
X994Y-20528D01*
X887Y-20471D01*
X771Y-20435D01*
X650Y-20424D01*
X529Y-20435D01*
X412Y-20471D01*
X305Y-20528D01*
X211Y-20605D01*
X134Y-20699D01*
X77Y-20806D01*
X50Y-20895D01*
X0Y-20888D01*
Y-17852D01*
X50Y-17845D01*
X77Y-17934D01*
X134Y-18041D01*
X211Y-18135D01*
X305Y-18212D01*
X412Y-18269D01*
X529Y-18305D01*
X650Y-18317D01*
X771Y-18305D01*
X887Y-18269D01*
X994Y-18212D01*
X1088Y-18135D01*
X1165Y-18041D01*
X1222Y-17934D01*
X1257Y-17818D01*
X1269Y-17697D01*
X1257Y-17576D01*
X1222Y-17460D01*
X1165Y-17353D01*
X1088Y-17259D01*
X994Y-17182D01*
X887Y-17124D01*
X771Y-17089D01*
X650Y-17077D01*
X529Y-17089D01*
X412Y-17124D01*
X305Y-17182D01*
X211Y-17259D01*
X134Y-17353D01*
X77Y-17460D01*
X50Y-17549D01*
X0Y-17541D01*
Y0D01*
X2500D01*
Y1378D01*
X4488D01*
Y0D01*
D02*
G37*
%LPC*%
G36*
X20906Y-13513D02*
X20761Y-13528D01*
X20623Y-13570D01*
X20495Y-13638D01*
X20383Y-13730D01*
X20291Y-13842D01*
X20223Y-13969D01*
X20181Y-14108D01*
X20167Y-14252D01*
X20181Y-14396D01*
X20223Y-14535D01*
X20291Y-14662D01*
X20383Y-14774D01*
X20495Y-14866D01*
X20623Y-14934D01*
X20761Y-14976D01*
X20906Y-14990D01*
X21050Y-14976D01*
X21188Y-14934D01*
X21316Y-14866D01*
X21428Y-14774D01*
X21520Y-14662D01*
X21588Y-14535D01*
X21630Y-14396D01*
X21644Y-14252D01*
X21630Y-14108D01*
X21588Y-13969D01*
X21520Y-13842D01*
X21428Y-13730D01*
X21316Y-13638D01*
X21188Y-13570D01*
X21050Y-13528D01*
X20906Y-13513D01*
D02*
G37*
G36*
X16143Y-14464D02*
X15609D01*
Y-14712D01*
X15335D01*
X15316Y-14684D01*
X15240Y-14633D01*
X15150Y-14615D01*
X15060Y-14633D01*
X14984Y-14684D01*
X14933Y-14760D01*
X14915Y-14850D01*
X14933Y-14940D01*
X14984Y-15016D01*
X15060Y-15067D01*
X15150Y-15085D01*
X15240Y-15067D01*
X15316Y-15016D01*
X15335Y-14988D01*
X15609D01*
Y-15136D01*
X16143D01*
Y-14464D01*
D02*
G37*
G36*
X8850Y-13633D02*
X8719Y-13672D01*
X8593Y-13740D01*
X8481Y-13831D01*
X8390Y-13943D01*
X8322Y-14069D01*
X8283Y-14200D01*
X8850D01*
Y-13633D01*
D02*
G37*
G36*
X1352Y-13753D02*
X932D01*
X722Y-13963D01*
Y-14383D01*
X932Y-14593D01*
X1352D01*
X1562Y-14383D01*
Y-13963D01*
X1352Y-13753D01*
D02*
G37*
G36*
X9717Y-14500D02*
X9150D01*
Y-15067D01*
X9281Y-15028D01*
X9407Y-14960D01*
X9519Y-14869D01*
X9610Y-14757D01*
X9678Y-14631D01*
X9717Y-14500D01*
D02*
G37*
G36*
X20961Y-10486D02*
X20867Y-10498D01*
X20779Y-10535D01*
X20704Y-10593D01*
X20646Y-10668D01*
X20610Y-10756D01*
X20597Y-10850D01*
X20610Y-10944D01*
X20646Y-11032D01*
X20702Y-11105D01*
Y-11565D01*
X20702Y-11565D01*
X20711Y-11632D01*
X20737Y-11696D01*
X20779Y-11750D01*
X21903Y-12874D01*
Y-14537D01*
X21258Y-15182D01*
X21188Y-15145D01*
X21050Y-15102D01*
X20906Y-15088D01*
X20761Y-15102D01*
X20623Y-15145D01*
X20495Y-15213D01*
X20383Y-15305D01*
X20291Y-15416D01*
X20223Y-15544D01*
X20181Y-15683D01*
X20167Y-15827D01*
X20181Y-15971D01*
X20223Y-16109D01*
X20291Y-16237D01*
X20383Y-16349D01*
X20495Y-16441D01*
X20623Y-16509D01*
X20761Y-16551D01*
X20906Y-16565D01*
X21050Y-16551D01*
X21188Y-16509D01*
X21316Y-16441D01*
X21428Y-16349D01*
X21520Y-16237D01*
X21588Y-16109D01*
X21630Y-15971D01*
X21644Y-15827D01*
X21630Y-15683D01*
X21599Y-15582D01*
X22351Y-14831D01*
X22351Y-14831D01*
X22392Y-14777D01*
X22419Y-14714D01*
X22428Y-14646D01*
X22428Y-14646D01*
Y-12765D01*
X22428Y-12765D01*
X22419Y-12697D01*
X22392Y-12634D01*
X22351Y-12580D01*
X22351Y-12580D01*
X21227Y-11456D01*
Y-11097D01*
X21277Y-11032D01*
X21313Y-10944D01*
X21325Y-10850D01*
X21313Y-10756D01*
X21277Y-10668D01*
X21219Y-10593D01*
X21143Y-10535D01*
X21055Y-10498D01*
X20961Y-10486D01*
D02*
G37*
G36*
X3662Y-16180D02*
X3418D01*
Y-16622D01*
X3958D01*
Y-16476D01*
X3662Y-16180D01*
D02*
G37*
G36*
X8850Y-14500D02*
X8283D01*
X8322Y-14631D01*
X8390Y-14757D01*
X8481Y-14869D01*
X8593Y-14960D01*
X8719Y-15028D01*
X8850Y-15067D01*
Y-14500D01*
D02*
G37*
G36*
X13543Y-14504D02*
X13009D01*
Y-14702D01*
X12961D01*
X12908Y-14712D01*
X12863Y-14742D01*
X12863Y-14742D01*
X12553Y-15053D01*
X12523Y-15097D01*
X12512Y-15150D01*
Y-16350D01*
X12523Y-16403D01*
X12553Y-16447D01*
X13862Y-17757D01*
Y-18123D01*
X13834Y-18142D01*
X13783Y-18218D01*
X13765Y-18307D01*
X13783Y-18397D01*
X13834Y-18473D01*
X13910Y-18524D01*
X14000Y-18542D01*
X14090Y-18524D01*
X14166Y-18473D01*
X14217Y-18397D01*
X14235Y-18307D01*
X14217Y-18218D01*
X14166Y-18142D01*
X14138Y-18123D01*
Y-17700D01*
X14127Y-17647D01*
X14097Y-17603D01*
X14097Y-17603D01*
X12788Y-16293D01*
Y-15207D01*
X12963Y-15032D01*
X13009Y-15051D01*
Y-15175D01*
X13543D01*
Y-14504D01*
D02*
G37*
G36*
X9150Y-13633D02*
Y-14200D01*
X9717D01*
X9678Y-14069D01*
X9610Y-13943D01*
X9519Y-13831D01*
X9407Y-13740D01*
X9281Y-13672D01*
X9150Y-13633D01*
D02*
G37*
G36*
X8131Y-6495D02*
X7499D01*
Y-7324D01*
X7553D01*
Y-9526D01*
X7130Y-9949D01*
X7089Y-10003D01*
X7062Y-10066D01*
X7053Y-10134D01*
X7053Y-10134D01*
Y-10312D01*
X7044Y-10319D01*
X6983Y-10399D01*
X6945Y-10491D01*
X6932Y-10591D01*
X6945Y-10690D01*
X6983Y-10782D01*
X7044Y-10862D01*
X7124Y-10923D01*
X7216Y-10961D01*
X7316Y-10974D01*
X7415Y-10961D01*
X7508Y-10923D01*
X7587Y-10862D01*
X7648Y-10782D01*
X7687Y-10690D01*
X7700Y-10591D01*
X7687Y-10491D01*
X7648Y-10399D01*
X7587Y-10319D01*
X7578Y-10312D01*
Y-10243D01*
X8000Y-9820D01*
X8000Y-9820D01*
X8042Y-9766D01*
X8068Y-9703D01*
X8077Y-9635D01*
X8077Y-9635D01*
Y-7324D01*
X8131D01*
Y-6495D01*
D02*
G37*
G36*
X22269Y-11000D02*
X22096D01*
Y-11173D01*
X22125Y-11161D01*
X22199Y-11104D01*
X22256Y-11029D01*
X22269Y-11000D01*
D02*
G37*
G36*
X9134Y-10741D02*
X8940D01*
X8956Y-10780D01*
X9016Y-10858D01*
X9095Y-10919D01*
X9134Y-10935D01*
Y-10741D01*
D02*
G37*
G36*
X15099Y-9896D02*
X14994Y-9910D01*
X14897Y-9950D01*
X14813Y-10015D01*
X14749Y-10098D01*
X14709Y-10196D01*
X14695Y-10300D01*
X14709Y-10404D01*
X14749Y-10502D01*
X14813Y-10585D01*
X14897Y-10650D01*
X14994Y-10690D01*
X15099Y-10704D01*
X15203Y-10690D01*
X15301Y-10650D01*
X15384Y-10585D01*
X15448Y-10502D01*
X15489Y-10404D01*
X15503Y-10300D01*
X15489Y-10196D01*
X15448Y-10098D01*
X15384Y-10015D01*
X15301Y-9950D01*
X15203Y-9910D01*
X15099Y-9896D01*
D02*
G37*
G36*
X9629Y-10741D02*
X9434D01*
Y-10935D01*
X9474Y-10919D01*
X9552Y-10858D01*
X9612Y-10780D01*
X9629Y-10741D01*
D02*
G37*
G36*
X2927Y-9816D02*
X2507D01*
X2297Y-10026D01*
Y-10446D01*
X2507Y-10656D01*
X2927D01*
X3137Y-10446D01*
Y-10410D01*
X3187Y-10389D01*
X3996Y-11199D01*
Y-12266D01*
X3946Y-12271D01*
X3946Y-12270D01*
X3916Y-12226D01*
X3129Y-11438D01*
X3137Y-11430D01*
Y-11010D01*
X2927Y-10801D01*
X2507D01*
X2297Y-11010D01*
Y-11430D01*
X2507Y-11640D01*
X2927D01*
X2934Y-11633D01*
X3681Y-12380D01*
Y-12904D01*
X3670Y-12913D01*
X3634Y-12928D01*
X3129Y-12422D01*
X3137Y-12415D01*
Y-11995D01*
X2927Y-11785D01*
X2507D01*
X2297Y-11995D01*
Y-12415D01*
X2507Y-12625D01*
X2927D01*
X2934Y-12617D01*
X4304Y-13987D01*
X4297Y-14013D01*
X4282Y-14036D01*
X3137D01*
Y-13963D01*
X2927Y-13753D01*
X2507D01*
X2297Y-13963D01*
Y-14383D01*
X2507Y-14593D01*
X2927D01*
X3137Y-14383D01*
Y-14311D01*
X4234D01*
X5143Y-15219D01*
X5143Y-15219D01*
X5187Y-15249D01*
X5240Y-15260D01*
X5240Y-15260D01*
X5951D01*
X5957Y-15274D01*
X6005Y-15337D01*
X6068Y-15386D01*
X6142Y-15416D01*
X6220Y-15426D01*
X6535D01*
X6614Y-15416D01*
X6688Y-15386D01*
X6751Y-15337D01*
X6799Y-15274D01*
X6830Y-15201D01*
X6840Y-15122D01*
X6830Y-15043D01*
X6799Y-14970D01*
X6751Y-14907D01*
X6738Y-14897D01*
Y-14847D01*
X6751Y-14837D01*
X6799Y-14774D01*
X6830Y-14701D01*
X6840Y-14622D01*
X6830Y-14543D01*
X6799Y-14470D01*
X6751Y-14407D01*
X6738Y-14397D01*
Y-14347D01*
X6751Y-14337D01*
X6799Y-14274D01*
X6830Y-14201D01*
X6840Y-14122D01*
X6830Y-14043D01*
X6801Y-13974D01*
X6814Y-13937D01*
X6820Y-13924D01*
X6837D01*
Y-13320D01*
X5919D01*
Y-13484D01*
X4978D01*
X4272Y-12778D01*
Y-11142D01*
X4261Y-11089D01*
X4231Y-11044D01*
X4231Y-11044D01*
X3326Y-10139D01*
X3281Y-10109D01*
X3228Y-10099D01*
X3137D01*
Y-10026D01*
X2927Y-9816D01*
D02*
G37*
G36*
X1352Y-11785D02*
X932D01*
X722Y-11995D01*
Y-12415D01*
X932Y-12625D01*
X1352D01*
X1562Y-12415D01*
Y-11995D01*
X1352Y-11785D01*
D02*
G37*
G36*
X15099Y-10896D02*
X14994Y-10910D01*
X14897Y-10950D01*
X14813Y-11015D01*
X14749Y-11098D01*
X14709Y-11196D01*
X14695Y-11300D01*
X14709Y-11404D01*
X14749Y-11502D01*
X14813Y-11585D01*
X14897Y-11650D01*
X14994Y-11690D01*
X15099Y-11704D01*
X15203Y-11690D01*
X15301Y-11650D01*
X15384Y-11585D01*
X15448Y-11502D01*
X15489Y-11404D01*
X15503Y-11300D01*
X15489Y-11196D01*
X15448Y-11098D01*
X15384Y-11015D01*
X15301Y-10950D01*
X15203Y-10910D01*
X15099Y-10896D01*
D02*
G37*
G36*
X21796Y-11000D02*
X21622D01*
X21635Y-11029D01*
X21692Y-11104D01*
X21766Y-11161D01*
X21796Y-11173D01*
Y-11000D01*
D02*
G37*
G36*
X1352Y-10801D02*
X932D01*
X722Y-11010D01*
Y-11430D01*
X932Y-11640D01*
X1352D01*
X1562Y-11430D01*
Y-11010D01*
X1352Y-10801D01*
D02*
G37*
G36*
X3118Y-16180D02*
X2873D01*
X2577Y-16476D01*
Y-16622D01*
X3118D01*
Y-16180D01*
D02*
G37*
G36*
X9550Y-21500D02*
X9283D01*
X9331Y-21562D01*
X9393Y-21609D01*
X9465Y-21639D01*
X9543Y-21649D01*
X9550D01*
Y-21500D01*
D02*
G37*
G36*
X3662Y-21376D02*
X3418D01*
Y-21818D01*
X3958D01*
Y-21672D01*
X3662Y-21376D01*
D02*
G37*
G36*
X10117Y-21500D02*
X9850D01*
Y-21649D01*
X9857D01*
X9935Y-21639D01*
X10007Y-21609D01*
X10069Y-21562D01*
X10117Y-21500D01*
D02*
G37*
G36*
X15101Y-20425D02*
X14869D01*
Y-20726D01*
X15101D01*
Y-20425D01*
D02*
G37*
G36*
X10117Y-21000D02*
X9700D01*
X9283D01*
X9331Y-21062D01*
X9348Y-21075D01*
Y-21125D01*
X9331Y-21138D01*
X9283Y-21200D01*
X9700D01*
X10117D01*
X10069Y-21138D01*
X10052Y-21125D01*
Y-21075D01*
X10069Y-21062D01*
X10117Y-21000D01*
D02*
G37*
G36*
X5512Y-24648D02*
X5383Y-24660D01*
X5259Y-24698D01*
X5145Y-24759D01*
X5046Y-24841D01*
X4964Y-24941D01*
X4903Y-25055D01*
X4865Y-25178D01*
X4852Y-25307D01*
X4865Y-25436D01*
X4903Y-25559D01*
X4964Y-25673D01*
X5046Y-25773D01*
X5145Y-25855D01*
X5259Y-25916D01*
X5383Y-25954D01*
X5512Y-25966D01*
X5640Y-25954D01*
X5764Y-25916D01*
X5878Y-25855D01*
X5978Y-25773D01*
X6060Y-25673D01*
X6121Y-25559D01*
X6158Y-25436D01*
X6171Y-25307D01*
X6158Y-25178D01*
X6121Y-25055D01*
X6060Y-24941D01*
X5978Y-24841D01*
X5878Y-24759D01*
X5764Y-24698D01*
X5640Y-24660D01*
X5512Y-24648D01*
D02*
G37*
G36*
X1575Y-24042D02*
X1377Y-24058D01*
X1184Y-24104D01*
X1001Y-24180D01*
X831Y-24284D01*
X681Y-24413D01*
X552Y-24564D01*
X448Y-24733D01*
X372Y-24916D01*
X326Y-25109D01*
X310Y-25307D01*
X326Y-25505D01*
X372Y-25698D01*
X448Y-25881D01*
X552Y-26050D01*
X681Y-26201D01*
X831Y-26330D01*
X1001Y-26434D01*
X1184Y-26510D01*
X1377Y-26556D01*
X1575Y-26572D01*
X1773Y-26556D01*
X1966Y-26510D01*
X2149Y-26434D01*
X2318Y-26330D01*
X2469Y-26201D01*
X2598Y-26050D01*
X2702Y-25881D01*
X2778Y-25698D01*
X2824Y-25505D01*
X2839Y-25307D01*
X2824Y-25109D01*
X2778Y-24916D01*
X2702Y-24733D01*
X2598Y-24564D01*
X2469Y-24413D01*
X2318Y-24284D01*
X2149Y-24180D01*
X1966Y-24104D01*
X1773Y-24058D01*
X1575Y-24042D01*
D02*
G37*
G36*
X3118Y-22118D02*
X2577D01*
Y-22265D01*
X2873Y-22561D01*
X3118D01*
Y-22118D01*
D02*
G37*
G36*
Y-21376D02*
X2873D01*
X2577Y-21672D01*
Y-21818D01*
X3118D01*
Y-21376D01*
D02*
G37*
G36*
X3958Y-22118D02*
X3418D01*
Y-22561D01*
X3662D01*
X3958Y-22265D01*
Y-22118D01*
D02*
G37*
G36*
X3511Y-18658D02*
X3426Y-18684D01*
X3320Y-18741D01*
X3227Y-18817D01*
X3150Y-18910D01*
X3093Y-19017D01*
X3058Y-19132D01*
X3050Y-19220D01*
X3511D01*
Y-18658D01*
D02*
G37*
G36*
X13543Y-15454D02*
X13009D01*
Y-16125D01*
X13110D01*
Y-16347D01*
X13120Y-16400D01*
X13150Y-16445D01*
X15038Y-18333D01*
Y-19004D01*
X14909D01*
Y-19675D01*
X15442D01*
Y-19004D01*
X15313D01*
Y-18276D01*
X15303Y-18223D01*
X15273Y-18178D01*
X15273Y-18178D01*
X13385Y-16290D01*
Y-16125D01*
X13543D01*
Y-15454D01*
D02*
G37*
G36*
X3118Y-16922D02*
X2577D01*
Y-17068D01*
X2873Y-17364D01*
X3118D01*
Y-16922D01*
D02*
G37*
G36*
X10159Y-16048D02*
X9241D01*
Y-16652D01*
X9264D01*
X9286Y-16697D01*
X9283Y-16700D01*
X9700D01*
X10117D01*
X10114Y-16697D01*
X10136Y-16652D01*
X10159D01*
Y-16048D01*
D02*
G37*
G36*
X3958Y-16922D02*
X3418D01*
Y-17364D01*
X3662D01*
X3958Y-17068D01*
Y-16922D01*
D02*
G37*
G36*
X16190Y-19004D02*
X15657D01*
Y-19675D01*
X15786D01*
Y-20014D01*
X15657D01*
Y-20686D01*
X16190D01*
Y-20488D01*
X16350D01*
X16403Y-20477D01*
X16447Y-20447D01*
X16641Y-20254D01*
X16748D01*
Y-20462D01*
X17104D01*
Y-19771D01*
X16748D01*
Y-19978D01*
X16584D01*
X16584Y-19978D01*
X16531Y-19989D01*
X16487Y-20019D01*
X16293Y-20212D01*
X16190D01*
Y-20014D01*
X16061D01*
Y-19675D01*
X16190D01*
Y-19004D01*
D02*
G37*
G36*
X15482Y-20425D02*
X15251D01*
Y-20726D01*
X15482D01*
Y-20425D01*
D02*
G37*
G36*
X15101Y-19974D02*
X14869D01*
Y-20275D01*
X15101D01*
Y-19974D01*
D02*
G37*
G36*
X3511Y-19520D02*
X3050D01*
X3058Y-19608D01*
X3093Y-19723D01*
X3150Y-19830D01*
X3227Y-19923D01*
X3320Y-19999D01*
X3426Y-20056D01*
X3511Y-20082D01*
Y-19520D01*
D02*
G37*
G36*
X15482Y-19974D02*
X15251D01*
Y-20275D01*
X15482D01*
Y-19974D01*
D02*
G37*
G36*
X21421Y-4693D02*
X21170D01*
Y-5004D01*
X21421D01*
Y-4693D01*
D02*
G37*
G36*
X21822Y-5154D02*
X21571D01*
Y-5464D01*
X21822D01*
Y-5154D01*
D02*
G37*
G36*
Y-4693D02*
X21571D01*
Y-5004D01*
X21822D01*
Y-4693D01*
D02*
G37*
G36*
X24921Y-4620D02*
X24806Y-4635D01*
X24700Y-4679D01*
X24608Y-4749D01*
X24556Y-4816D01*
X22491D01*
Y-4733D01*
X21918D01*
Y-5424D01*
X21942D01*
Y-5934D01*
X21712D01*
Y-6066D01*
X21521D01*
X21521Y-6066D01*
X21453Y-6075D01*
X21390Y-6102D01*
X21336Y-6143D01*
X21336Y-6143D01*
X20230Y-7249D01*
X19615Y-6635D01*
X19562Y-6599D01*
X19500Y-6587D01*
X18650D01*
X18588Y-6599D01*
X18535Y-6635D01*
X18165Y-7005D01*
X18114Y-6998D01*
X18010Y-7012D01*
X17912Y-7052D01*
X17829Y-7116D01*
X17765Y-7200D01*
X17724Y-7297D01*
X17710Y-7402D01*
X17724Y-7506D01*
X17765Y-7603D01*
X17829Y-7687D01*
X17862Y-7712D01*
X17845Y-7762D01*
X17800D01*
X17800Y-7762D01*
X17747Y-7773D01*
X17703Y-7803D01*
X17503Y-8003D01*
X17473Y-8047D01*
X17462Y-8100D01*
Y-8120D01*
X17415Y-8136D01*
X17400Y-8116D01*
X17316Y-8052D01*
X17219Y-8012D01*
X17114Y-7998D01*
X17010Y-8012D01*
X16945Y-8038D01*
X16738Y-7830D01*
Y-7651D01*
X16788Y-7634D01*
X16829Y-7687D01*
X16912Y-7751D01*
X17010Y-7792D01*
X17114Y-7805D01*
X17219Y-7792D01*
X17316Y-7751D01*
X17400Y-7687D01*
X17464Y-7603D01*
X17504Y-7506D01*
X17518Y-7402D01*
X17504Y-7297D01*
X17464Y-7200D01*
X17400Y-7116D01*
X17316Y-7052D01*
X17241Y-7021D01*
X17241Y-7021D01*
X17212Y-6976D01*
X16388Y-6153D01*
X16343Y-6123D01*
X16291Y-6112D01*
X13500D01*
X13500Y-6112D01*
X13447Y-6123D01*
X13403Y-6153D01*
X13403Y-6153D01*
X12553Y-7003D01*
X12523Y-7047D01*
X12512Y-7100D01*
Y-9148D01*
X10503Y-11158D01*
X10473Y-11202D01*
X10462Y-11255D01*
Y-16743D01*
X10106Y-17099D01*
X10102Y-17098D01*
X10100Y-17096D01*
X10088Y-17038D01*
X10117Y-17000D01*
X9700D01*
X9283D01*
X9331Y-17062D01*
X9344Y-17072D01*
Y-17122D01*
X9327Y-17135D01*
X9279Y-17198D01*
X9248Y-17271D01*
X9238Y-17350D01*
X9248Y-17429D01*
X9279Y-17502D01*
X9327Y-17565D01*
X9340Y-17575D01*
Y-17625D01*
X9327Y-17635D01*
X9279Y-17698D01*
X9248Y-17771D01*
X9238Y-17850D01*
X9248Y-17929D01*
X9279Y-18002D01*
X9327Y-18065D01*
X9340Y-18075D01*
Y-18125D01*
X9327Y-18135D01*
X9279Y-18198D01*
X9248Y-18271D01*
X9238Y-18350D01*
X9248Y-18429D01*
X9279Y-18502D01*
X9327Y-18565D01*
X9340Y-18575D01*
Y-18625D01*
X9327Y-18635D01*
X9279Y-18698D01*
X9273Y-18712D01*
X7757D01*
X7448Y-18403D01*
X7403Y-18373D01*
X7350Y-18362D01*
X5709D01*
X5690Y-18316D01*
X5794Y-18212D01*
Y-17851D01*
X5614Y-17671D01*
X5253D01*
X5134Y-17789D01*
X5088Y-17770D01*
Y-17607D01*
X6284Y-16411D01*
X6300Y-16414D01*
X6382Y-16398D01*
X6451Y-16351D01*
X6498Y-16282D01*
X6514Y-16200D01*
X6498Y-16118D01*
X6451Y-16049D01*
X6382Y-16002D01*
X6300Y-15986D01*
X6218Y-16002D01*
X6149Y-16049D01*
X6102Y-16118D01*
X6086Y-16200D01*
X6089Y-16216D01*
X4853Y-17453D01*
X4823Y-17497D01*
X4812Y-17550D01*
Y-17783D01*
X4762Y-17804D01*
X4629Y-17671D01*
X4268D01*
X4088Y-17851D01*
Y-18212D01*
X4268Y-18392D01*
X4629D01*
X4731Y-18291D01*
X4785Y-18307D01*
X4788Y-18324D01*
X4587Y-18525D01*
X4543Y-18507D01*
X4449Y-18494D01*
X4355Y-18507D01*
X4267Y-18543D01*
X4191Y-18601D01*
X4134Y-18676D01*
X4100Y-18756D01*
X4051Y-18780D01*
X4003Y-18741D01*
X3897Y-18684D01*
X3811Y-18658D01*
Y-19370D01*
Y-20082D01*
X3897Y-20056D01*
X4003Y-19999D01*
X4051Y-19960D01*
X4100Y-19984D01*
X4134Y-20064D01*
X4191Y-20139D01*
X4267Y-20197D01*
X4355Y-20234D01*
X4449Y-20246D01*
X4543Y-20234D01*
X4631Y-20197D01*
X4706Y-20139D01*
X4762Y-20066D01*
X4767Y-20066D01*
X4812Y-20084D01*
Y-20226D01*
X4823Y-20278D01*
X4853Y-20323D01*
X5072Y-20542D01*
Y-20889D01*
X5199Y-21016D01*
X5180Y-21062D01*
X4997D01*
X4810Y-20875D01*
Y-20528D01*
X4629Y-20348D01*
X4268D01*
X4088Y-20528D01*
Y-20889D01*
X4268Y-21070D01*
X4615D01*
X4843Y-21297D01*
X4887Y-21327D01*
X4940Y-21338D01*
X4940Y-21338D01*
X6550D01*
X6603Y-21327D01*
X6648Y-21297D01*
X7457Y-20488D01*
X9273D01*
X9279Y-20502D01*
X9327Y-20565D01*
X9344Y-20578D01*
Y-20628D01*
X9331Y-20638D01*
X9283Y-20700D01*
X9700D01*
X10117D01*
X10069Y-20638D01*
X10056Y-20628D01*
Y-20578D01*
X10073Y-20565D01*
X10121Y-20502D01*
X10127Y-20488D01*
X11659D01*
Y-20686D01*
X12193D01*
Y-20488D01*
X12407D01*
Y-20686D01*
X12941D01*
Y-20014D01*
X12812D01*
Y-17349D01*
X12862Y-17328D01*
X13112Y-17579D01*
Y-20793D01*
X11993Y-21912D01*
X4857D01*
X3297Y-20353D01*
X3253Y-20323D01*
X3200Y-20312D01*
X3027D01*
X2715Y-20001D01*
X2861Y-19856D01*
Y-18885D01*
X2375Y-18399D01*
X1404D01*
X919Y-18885D01*
Y-19856D01*
X1404Y-20341D01*
X2375D01*
X2521Y-20196D01*
X2872Y-20547D01*
X2917Y-20577D01*
X2970Y-20588D01*
X3143D01*
X4703Y-22147D01*
X4747Y-22177D01*
X4800Y-22188D01*
X4800Y-22188D01*
X12050D01*
X12103Y-22177D01*
X12147Y-22147D01*
X13347Y-20947D01*
X13377Y-20903D01*
X13388Y-20850D01*
Y-17522D01*
X13388Y-17522D01*
X13377Y-17469D01*
X13347Y-17424D01*
X13347Y-17424D01*
X12238Y-16315D01*
Y-14407D01*
X14207Y-12438D01*
X14723D01*
X14749Y-12502D01*
X14814Y-12585D01*
X14897Y-12650D01*
X14995Y-12690D01*
X15099Y-12704D01*
X15204Y-12690D01*
X15301Y-12650D01*
X15385Y-12585D01*
X15449Y-12502D01*
X15489Y-12404D01*
X15503Y-12300D01*
X15489Y-12196D01*
X15449Y-12098D01*
X15385Y-12015D01*
X15301Y-11950D01*
X15204Y-11910D01*
X15099Y-11896D01*
X14995Y-11910D01*
X14897Y-11950D01*
X14814Y-12015D01*
X14749Y-12098D01*
X14723Y-12162D01*
X14150D01*
X14150Y-12162D01*
X14097Y-12173D01*
X14053Y-12203D01*
X12038Y-14218D01*
X11988Y-14197D01*
Y-12156D01*
X15211Y-8932D01*
X15241Y-8887D01*
X15252Y-8835D01*
X15252Y-8835D01*
Y-8778D01*
X15316Y-8751D01*
X15400Y-8687D01*
X15464Y-8603D01*
X15504Y-8506D01*
X15518Y-8402D01*
X15504Y-8297D01*
X15464Y-8200D01*
X15400Y-8116D01*
X15316Y-8052D01*
X15219Y-8012D01*
X15114Y-7998D01*
X15010Y-8012D01*
X14912Y-8052D01*
X14829Y-8116D01*
X14765Y-8200D01*
X14724Y-8297D01*
X14710Y-8402D01*
X14724Y-8506D01*
X14765Y-8603D01*
X14829Y-8687D01*
X14912Y-8751D01*
X14935Y-8761D01*
X14945Y-8810D01*
X14299Y-9455D01*
X14261Y-9440D01*
X14252Y-9432D01*
Y-8802D01*
X14514D01*
Y-8001D01*
X13780D01*
X13759Y-7951D01*
X13945Y-7765D01*
X14010Y-7792D01*
X14114Y-7805D01*
X14219Y-7792D01*
X14316Y-7751D01*
X14400Y-7687D01*
X14464Y-7603D01*
X14504Y-7506D01*
X14518Y-7402D01*
X14504Y-7297D01*
X14464Y-7200D01*
X14400Y-7116D01*
X14316Y-7052D01*
X14282Y-7038D01*
X14291Y-6988D01*
X14506D01*
X14751Y-7233D01*
X14724Y-7297D01*
X14710Y-7402D01*
X14724Y-7506D01*
X14765Y-7603D01*
X14829Y-7687D01*
X14912Y-7751D01*
X15010Y-7792D01*
X15114Y-7805D01*
X15219Y-7792D01*
X15316Y-7751D01*
X15400Y-7687D01*
X15464Y-7603D01*
X15504Y-7506D01*
X15518Y-7402D01*
X15504Y-7297D01*
X15464Y-7200D01*
X15400Y-7116D01*
X15316Y-7052D01*
X15219Y-7012D01*
X15114Y-6998D01*
X15010Y-7012D01*
X14945Y-7038D01*
X14660Y-6753D01*
X14637Y-6738D01*
X14653Y-6688D01*
X15993D01*
X16303Y-6998D01*
X16275Y-7040D01*
X16264Y-7036D01*
Y-7402D01*
Y-7767D01*
X16314Y-7747D01*
X16396Y-7683D01*
X16412Y-7662D01*
X16462Y-7679D01*
Y-7887D01*
X16473Y-7940D01*
X16503Y-7985D01*
X16751Y-8233D01*
X16724Y-8297D01*
X16710Y-8402D01*
X16724Y-8506D01*
X16765Y-8603D01*
X16829Y-8687D01*
X16912Y-8751D01*
X17010Y-8792D01*
X17114Y-8805D01*
X17219Y-8792D01*
X17316Y-8751D01*
X17400Y-8687D01*
X17415Y-8667D01*
X17462Y-8683D01*
Y-9293D01*
X16593Y-10162D01*
X16476D01*
X16450Y-10098D01*
X16385Y-10015D01*
X16302Y-9950D01*
X16204Y-9910D01*
X16100Y-9896D01*
X15996Y-9910D01*
X15898Y-9950D01*
X15815Y-10015D01*
X15750Y-10098D01*
X15710Y-10196D01*
X15696Y-10300D01*
X15710Y-10404D01*
X15750Y-10502D01*
X15815Y-10585D01*
X15898Y-10650D01*
X15962Y-10676D01*
Y-10924D01*
X15898Y-10950D01*
X15815Y-11015D01*
X15750Y-11098D01*
X15710Y-11196D01*
X15696Y-11300D01*
X15710Y-11404D01*
X15750Y-11502D01*
X15815Y-11585D01*
X15898Y-11650D01*
X15996Y-11690D01*
X16100Y-11704D01*
X16204Y-11690D01*
X16269Y-11663D01*
X16495Y-11890D01*
Y-12079D01*
X16464Y-12092D01*
X16445Y-12093D01*
X16385Y-12015D01*
X16302Y-11950D01*
X16204Y-11910D01*
X16100Y-11896D01*
X15996Y-11910D01*
X15898Y-11950D01*
X15815Y-12015D01*
X15750Y-12098D01*
X15710Y-12196D01*
X15696Y-12300D01*
X15710Y-12404D01*
X15750Y-12502D01*
X15815Y-12585D01*
X15898Y-12650D01*
X15962Y-12676D01*
Y-12743D01*
X15343Y-13362D01*
X14750D01*
X14697Y-13373D01*
X14653Y-13403D01*
X14653Y-13403D01*
X13898Y-14157D01*
X13868Y-14202D01*
X13858Y-14255D01*
Y-14504D01*
X13757D01*
Y-15175D01*
X13858D01*
Y-15454D01*
X13757D01*
Y-16125D01*
X14291D01*
Y-15454D01*
X14133D01*
Y-15175D01*
X14291D01*
Y-14504D01*
X14133D01*
Y-14312D01*
X14807Y-13638D01*
X15400D01*
X15453Y-13627D01*
X15497Y-13597D01*
X16197Y-12897D01*
X16197Y-12897D01*
X16227Y-12853D01*
X16238Y-12800D01*
Y-12676D01*
X16302Y-12650D01*
X16385Y-12585D01*
X16445Y-12507D01*
X16464Y-12508D01*
X16495Y-12521D01*
Y-14464D01*
X16357D01*
Y-15136D01*
X16486D01*
Y-15414D01*
X16357D01*
Y-16086D01*
X16891D01*
Y-15414D01*
X16762D01*
Y-15136D01*
X16891D01*
Y-14986D01*
X17115D01*
X17134Y-15014D01*
X17210Y-15065D01*
X17300Y-15083D01*
X17390Y-15065D01*
X17466Y-15014D01*
X17517Y-14938D01*
X17535Y-14848D01*
X17517Y-14759D01*
X17466Y-14683D01*
X17390Y-14632D01*
X17300Y-14614D01*
X17210Y-14632D01*
X17134Y-14683D01*
X17115Y-14711D01*
X16891D01*
Y-14464D01*
X16771D01*
Y-11833D01*
X16771Y-11833D01*
X16760Y-11780D01*
X16730Y-11736D01*
X16463Y-11469D01*
X16490Y-11404D01*
X16504Y-11300D01*
X16490Y-11196D01*
X16450Y-11098D01*
X16385Y-11015D01*
X16302Y-10950D01*
X16238Y-10924D01*
Y-10676D01*
X16302Y-10650D01*
X16385Y-10585D01*
X16450Y-10502D01*
X16476Y-10438D01*
X16650D01*
X16703Y-10427D01*
X16747Y-10397D01*
X17697Y-9447D01*
X17727Y-9403D01*
X17738Y-9350D01*
Y-8651D01*
X17788Y-8634D01*
X17829Y-8687D01*
X17912Y-8751D01*
X18010Y-8792D01*
X18114Y-8805D01*
X18219Y-8792D01*
X18316Y-8751D01*
X18400Y-8687D01*
X18464Y-8603D01*
X18504Y-8506D01*
X18518Y-8402D01*
X18504Y-8297D01*
X18464Y-8200D01*
X18400Y-8116D01*
X18363Y-8088D01*
X18380Y-8038D01*
X18616D01*
X18668Y-8027D01*
X18713Y-7997D01*
X18927Y-7784D01*
X18977Y-7805D01*
Y-8025D01*
X18912Y-8052D01*
X18829Y-8116D01*
X18765Y-8200D01*
X18724Y-8297D01*
X18710Y-8402D01*
X18724Y-8506D01*
X18765Y-8603D01*
X18829Y-8687D01*
X18912Y-8751D01*
X19010Y-8792D01*
X19114Y-8805D01*
X19219Y-8792D01*
X19316Y-8751D01*
X19400Y-8687D01*
X19464Y-8603D01*
X19504Y-8506D01*
X19518Y-8402D01*
X19504Y-8297D01*
X19464Y-8200D01*
X19400Y-8116D01*
X19316Y-8052D01*
X19252Y-8025D01*
Y-7778D01*
X19316Y-7751D01*
X19400Y-7687D01*
X19464Y-7603D01*
X19504Y-7506D01*
X19518Y-7402D01*
X19504Y-7297D01*
X19464Y-7200D01*
X19400Y-7116D01*
X19316Y-7052D01*
X19219Y-7012D01*
X19114Y-6998D01*
X19010Y-7012D01*
X18912Y-7052D01*
X18829Y-7116D01*
X18765Y-7200D01*
X18724Y-7297D01*
X18710Y-7402D01*
X18724Y-7506D01*
X18751Y-7570D01*
X18559Y-7762D01*
X18384D01*
X18367Y-7712D01*
X18400Y-7687D01*
X18464Y-7603D01*
X18504Y-7506D01*
X18518Y-7402D01*
X18504Y-7297D01*
X18464Y-7200D01*
X18450Y-7181D01*
X18718Y-6913D01*
X19432D01*
X19999Y-7480D01*
X19996Y-7483D01*
X19954Y-7538D01*
X19928Y-7601D01*
X19919Y-7669D01*
X19919Y-7669D01*
Y-12660D01*
X19543Y-13036D01*
X19501Y-13091D01*
X19475Y-13154D01*
X19466Y-13222D01*
X19466Y-13222D01*
Y-16303D01*
X19466Y-16303D01*
X19475Y-16371D01*
X19501Y-16434D01*
X19543Y-16488D01*
X20212Y-17157D01*
X20181Y-17258D01*
X20167Y-17402D01*
X20181Y-17546D01*
X20223Y-17684D01*
X20291Y-17812D01*
X20383Y-17924D01*
X20495Y-18016D01*
X20623Y-18084D01*
X20761Y-18126D01*
X20906Y-18140D01*
X21050Y-18126D01*
X21188Y-18084D01*
X21270Y-18040D01*
X21811Y-18581D01*
Y-19333D01*
X21518Y-19626D01*
X21351D01*
X21333Y-19576D01*
X21428Y-19499D01*
X21520Y-19387D01*
X21588Y-19259D01*
X21630Y-19120D01*
X21644Y-18976D01*
X21630Y-18832D01*
X21588Y-18694D01*
X21520Y-18566D01*
X21428Y-18454D01*
X21316Y-18362D01*
X21188Y-18294D01*
X21050Y-18252D01*
X20906Y-18238D01*
X20761Y-18252D01*
X20623Y-18294D01*
X20495Y-18362D01*
X20383Y-18454D01*
X20350Y-18456D01*
X18497Y-16603D01*
X18453Y-16573D01*
X18400Y-16562D01*
X16557D01*
X16124Y-16130D01*
X16143Y-16086D01*
X16143D01*
Y-15414D01*
X15609D01*
Y-16086D01*
X15740D01*
X15749Y-16129D01*
X15779Y-16173D01*
X16403Y-16797D01*
X16447Y-16827D01*
X16500Y-16838D01*
X18343D01*
X20218Y-18712D01*
X20181Y-18832D01*
X20167Y-18976D01*
X20181Y-19120D01*
X20223Y-19259D01*
X20291Y-19387D01*
X20383Y-19499D01*
X20478Y-19576D01*
X20460Y-19626D01*
X18621D01*
X18297Y-19303D01*
X18253Y-19273D01*
X18200Y-19262D01*
X17550D01*
X17497Y-19273D01*
X17453Y-19303D01*
X17453Y-19303D01*
X17203Y-19553D01*
X17173Y-19597D01*
X17162Y-19650D01*
Y-20538D01*
X17122D01*
Y-21229D01*
X17478D01*
Y-20538D01*
X17438D01*
Y-19707D01*
X17607Y-19538D01*
X18143D01*
X18466Y-19861D01*
X18466Y-19861D01*
X18511Y-19891D01*
X18564Y-19901D01*
X18564Y-19901D01*
X20417D01*
X20436Y-19948D01*
X20190Y-20194D01*
Y-20492D01*
X18537D01*
X18063Y-20019D01*
X18019Y-19989D01*
X17966Y-19978D01*
X17852D01*
Y-19771D01*
X17496D01*
Y-20462D01*
X17852D01*
Y-20254D01*
X17909D01*
X18383Y-20727D01*
X18427Y-20757D01*
X18480Y-20768D01*
X20190D01*
Y-20909D01*
X20548Y-21266D01*
X21263D01*
X21621Y-20909D01*
Y-20194D01*
X21375Y-19948D01*
X21394Y-19901D01*
X21575D01*
X21628Y-19891D01*
X21672Y-19861D01*
X22046Y-19487D01*
X22046Y-19487D01*
X22076Y-19443D01*
X22086Y-19390D01*
Y-18524D01*
X22076Y-18471D01*
X22046Y-18426D01*
X21480Y-17860D01*
X21520Y-17812D01*
X21588Y-17684D01*
X21630Y-17546D01*
X21644Y-17402D01*
X21630Y-17258D01*
X21588Y-17119D01*
X21520Y-16991D01*
X21428Y-16879D01*
X21316Y-16788D01*
X21188Y-16719D01*
X21050Y-16677D01*
X20906Y-16663D01*
X20761Y-16677D01*
X20623Y-16719D01*
X20553Y-16757D01*
X19991Y-16194D01*
Y-13330D01*
X20367Y-12954D01*
X20367Y-12954D01*
X20408Y-12900D01*
X20435Y-12837D01*
X20443Y-12769D01*
Y-7777D01*
X21630Y-6591D01*
X21712D01*
Y-6723D01*
X22540D01*
Y-5934D01*
X22467D01*
Y-5424D01*
X22491D01*
Y-5341D01*
X24580D01*
X24608Y-5377D01*
X24700Y-5447D01*
X24806Y-5491D01*
X24921Y-5506D01*
X25036Y-5491D01*
X25143Y-5447D01*
X25235Y-5377D01*
X25305Y-5285D01*
X25350Y-5178D01*
X25365Y-5063D01*
X25350Y-4948D01*
X25305Y-4841D01*
X25235Y-4749D01*
X25143Y-4679D01*
X25036Y-4635D01*
X24921Y-4620D01*
D02*
G37*
G36*
X7943Y-2988D02*
X7687D01*
X7614Y-3002D01*
X7552Y-3044D01*
X7510Y-3106D01*
X7495Y-3179D01*
Y-3632D01*
X7510Y-3705D01*
X7552Y-3767D01*
X7553Y-3768D01*
Y-4026D01*
X6723Y-4856D01*
X6463D01*
Y-4623D01*
X5968Y-4127D01*
X4977D01*
X4482Y-4623D01*
Y-5614D01*
X4977Y-6109D01*
X5968D01*
X6463Y-5614D01*
Y-5380D01*
X6832D01*
X6832Y-5380D01*
X6900Y-5371D01*
X6963Y-5345D01*
X7017Y-5304D01*
X8000Y-4320D01*
X8000Y-4320D01*
X8042Y-4266D01*
X8068Y-4203D01*
X8077Y-4135D01*
Y-3768D01*
X8078Y-3767D01*
X8120Y-3705D01*
X8135Y-3632D01*
Y-3179D01*
X8120Y-3106D01*
X8078Y-3044D01*
X8016Y-3002D01*
X7943Y-2988D01*
D02*
G37*
G36*
X13970Y-958D02*
X12959D01*
X12493Y-1424D01*
Y-2356D01*
X12959Y-2822D01*
X13970D01*
X14436Y-2356D01*
Y-2027D01*
X14733D01*
X16462Y-3757D01*
Y-5615D01*
X16434Y-5634D01*
X16383Y-5710D01*
X16365Y-5800D01*
X16383Y-5890D01*
X16434Y-5966D01*
X16510Y-6017D01*
X16600Y-6035D01*
X16690Y-6017D01*
X16766Y-5966D01*
X16817Y-5890D01*
X16835Y-5800D01*
X16817Y-5710D01*
X16766Y-5634D01*
X16738Y-5615D01*
Y-3700D01*
X16727Y-3647D01*
X16697Y-3603D01*
X16697Y-3603D01*
X14887Y-1792D01*
X14842Y-1763D01*
X14790Y-1752D01*
X14436D01*
Y-1424D01*
X13970Y-958D01*
D02*
G37*
G36*
X25330Y-6213D02*
X25071D01*
Y-6471D01*
X25140Y-6443D01*
X25231Y-6373D01*
X25301Y-6282D01*
X25330Y-6213D01*
D02*
G37*
G36*
X24771Y-5655D02*
X24702Y-5683D01*
X24611Y-5753D01*
X24542Y-5844D01*
X24513Y-5913D01*
X24771D01*
Y-5655D01*
D02*
G37*
G36*
X21421Y-5154D02*
X21170D01*
Y-5464D01*
X21421D01*
Y-5154D01*
D02*
G37*
G36*
X25071Y-5655D02*
Y-5913D01*
X25330D01*
X25301Y-5844D01*
X25231Y-5753D01*
X25140Y-5683D01*
X25071Y-5655D01*
D02*
G37*
G36*
X13315Y-3811D02*
X12754D01*
Y-4017D01*
X13109Y-4372D01*
X13315D01*
Y-3811D01*
D02*
G37*
G36*
X20119Y-2951D02*
X19914D01*
Y-3511D01*
X20474D01*
Y-3306D01*
X20119Y-2951D01*
D02*
G37*
G36*
X19614D02*
X19409D01*
X19054Y-3306D01*
Y-3511D01*
X19614D01*
Y-2951D01*
D02*
G37*
G36*
X13820D02*
X13615D01*
Y-3511D01*
X14175D01*
Y-3306D01*
X13820Y-2951D01*
D02*
G37*
G36*
X20269Y-958D02*
X19259D01*
X18793Y-1424D01*
Y-2313D01*
X17503Y-3603D01*
X17473Y-3647D01*
X17462Y-3700D01*
Y-5615D01*
X17434Y-5634D01*
X17383Y-5710D01*
X17365Y-5800D01*
X17383Y-5890D01*
X17434Y-5966D01*
X17510Y-6017D01*
X17600Y-6035D01*
X17690Y-6017D01*
X17766Y-5966D01*
X17817Y-5890D01*
X17835Y-5800D01*
X17817Y-5710D01*
X17766Y-5634D01*
X17738Y-5615D01*
Y-3757D01*
X18966Y-2529D01*
X19259Y-2822D01*
X20269D01*
X20735Y-2356D01*
Y-1424D01*
X20269Y-958D01*
D02*
G37*
G36*
X25335Y-704D02*
X25137Y-719D01*
X24944Y-766D01*
X24760Y-842D01*
X24591Y-945D01*
X24440Y-1074D01*
X24311Y-1225D01*
X24208Y-1394D01*
X24132Y-1578D01*
X24086Y-1771D01*
X24070Y-1969D01*
X24086Y-2166D01*
X24132Y-2359D01*
X24208Y-2543D01*
X24311Y-2712D01*
X24440Y-2863D01*
X24591Y-2992D01*
X24760Y-3095D01*
X24944Y-3171D01*
X25137Y-3218D01*
X25335Y-3233D01*
X25532Y-3218D01*
X25725Y-3171D01*
X25909Y-3095D01*
X26078Y-2992D01*
X26229Y-2863D01*
X26358Y-2712D01*
X26461Y-2543D01*
X26537Y-2359D01*
X26584Y-2166D01*
X26599Y-1969D01*
X26584Y-1771D01*
X26537Y-1578D01*
X26461Y-1394D01*
X26358Y-1225D01*
X26229Y-1074D01*
X26078Y-945D01*
X25909Y-842D01*
X25725Y-766D01*
X25532Y-719D01*
X25335Y-704D01*
D02*
G37*
G36*
X19614Y-3811D02*
X19054D01*
Y-4017D01*
X19409Y-4372D01*
X19614D01*
Y-3811D01*
D02*
G37*
G36*
X14175D02*
X13615D01*
Y-4372D01*
X13820D01*
X14175Y-4017D01*
Y-3811D01*
D02*
G37*
G36*
X20474D02*
X19914D01*
Y-4372D01*
X20119D01*
X20474Y-4017D01*
Y-3811D01*
D02*
G37*
G36*
X13315Y-2951D02*
X13109D01*
X12754Y-3306D01*
Y-3511D01*
X13315D01*
Y-2951D01*
D02*
G37*
G36*
X9300Y-2038D02*
X9300Y-2038D01*
X4750D01*
X4682Y-2047D01*
X4619Y-2073D01*
X4565Y-2115D01*
X4565Y-2115D01*
X2925Y-3754D01*
X2883Y-3809D01*
X2857Y-3872D01*
X2848Y-3940D01*
X2848Y-3940D01*
Y-4226D01*
X2664D01*
X2218Y-4672D01*
Y-5564D01*
X2664Y-6011D01*
X3556D01*
X4003Y-5564D01*
Y-4672D01*
X3556Y-4226D01*
X3372D01*
Y-4048D01*
X4859Y-2562D01*
X9191D01*
X9561Y-2931D01*
Y-3043D01*
X9559Y-3044D01*
X9518Y-3106D01*
X9503Y-3179D01*
Y-3632D01*
X9518Y-3705D01*
X9559Y-3767D01*
X9622Y-3809D01*
X9695Y-3824D01*
X9951D01*
X10024Y-3809D01*
X10086Y-3767D01*
X10128Y-3705D01*
X10142Y-3632D01*
Y-3179D01*
X10128Y-3106D01*
X10086Y-3044D01*
X10085Y-3043D01*
Y-2823D01*
X10076Y-2755D01*
X10050Y-2692D01*
X10008Y-2637D01*
X10008Y-2637D01*
X9485Y-2115D01*
X9431Y-2073D01*
X9368Y-2047D01*
X9300Y-2038D01*
D02*
G37*
G36*
X22051Y-7605D02*
X21672D01*
Y-7964D01*
X22051D01*
Y-7605D01*
D02*
G37*
G36*
X16264Y-8036D02*
Y-8252D01*
X16480D01*
X16459Y-8202D01*
X16396Y-8120D01*
X16314Y-8056D01*
X16264Y-8036D01*
D02*
G37*
G36*
X15964Y-8036D02*
X15915Y-8056D01*
X15832Y-8120D01*
X15769Y-8202D01*
X15748Y-8252D01*
X15964D01*
Y-8036D01*
D02*
G37*
G36*
X25341Y-6623D02*
X24501D01*
Y-7503D01*
X25341D01*
Y-6623D01*
D02*
G37*
G36*
X15964Y-7552D02*
X15748D01*
X15769Y-7601D01*
X15832Y-7683D01*
X15915Y-7747D01*
X15964Y-7767D01*
Y-7552D01*
D02*
G37*
G36*
X22580Y-7605D02*
X22201D01*
Y-7964D01*
X22580D01*
Y-7605D01*
D02*
G37*
G36*
X15964Y-8552D02*
X15748D01*
X15769Y-8601D01*
X15832Y-8683D01*
X15915Y-8747D01*
X15964Y-8767D01*
Y-8552D01*
D02*
G37*
G36*
X1352Y-9816D02*
X932D01*
X722Y-10026D01*
Y-10446D01*
X932Y-10656D01*
X1352D01*
X1562Y-10446D01*
Y-10026D01*
X1352Y-9816D01*
D02*
G37*
G36*
X22096Y-10527D02*
Y-10700D01*
X22269D01*
X22256Y-10671D01*
X22199Y-10596D01*
X22125Y-10539D01*
X22096Y-10527D01*
D02*
G37*
G36*
X21796D02*
X21766Y-10539D01*
X21692Y-10596D01*
X21635Y-10671D01*
X21622Y-10700D01*
X21796D01*
Y-10527D01*
D02*
G37*
G36*
X16480Y-8552D02*
X16264D01*
Y-8767D01*
X16314Y-8747D01*
X16396Y-8683D01*
X16459Y-8601D01*
X16480Y-8552D01*
D02*
G37*
G36*
X9434Y-10246D02*
Y-10441D01*
X9629D01*
X9612Y-10401D01*
X9552Y-10323D01*
X9474Y-10262D01*
X9434Y-10246D01*
D02*
G37*
G36*
X9134D02*
X9095Y-10262D01*
X9016Y-10323D01*
X8956Y-10401D01*
X8940Y-10441D01*
X9134D01*
Y-10246D01*
D02*
G37*
G36*
X22051Y-7095D02*
X21672D01*
Y-7455D01*
X22051D01*
Y-7095D01*
D02*
G37*
G36*
X15964Y-7036D02*
X15915Y-7056D01*
X15832Y-7120D01*
X15769Y-7202D01*
X15748Y-7252D01*
X15964D01*
Y-7036D01*
D02*
G37*
G36*
X10183Y-6984D02*
X9898D01*
Y-7368D01*
X9951D01*
X10040Y-7351D01*
X10115Y-7300D01*
X10166Y-7225D01*
X10183Y-7136D01*
Y-6984D01*
D02*
G37*
G36*
X9748Y-6451D02*
X9695D01*
X9606Y-6468D01*
X9531Y-6519D01*
X9480Y-6594D01*
X9462Y-6683D01*
Y-6834D01*
X9748D01*
Y-6451D01*
D02*
G37*
G36*
X24771Y-6213D02*
X24513D01*
X24542Y-6282D01*
X24611Y-6373D01*
X24702Y-6443D01*
X24771Y-6471D01*
Y-6213D01*
D02*
G37*
G36*
X9951Y-6451D02*
X9898D01*
Y-6834D01*
X10183D01*
Y-6683D01*
X10166Y-6594D01*
X10115Y-6519D01*
X10040Y-6468D01*
X9951Y-6451D01*
D02*
G37*
G36*
X22580Y-7095D02*
X22201D01*
Y-7455D01*
X22580D01*
Y-7095D01*
D02*
G37*
G36*
X9748Y-6984D02*
X9462D01*
Y-7136D01*
X9480Y-7225D01*
X9531Y-7300D01*
X9606Y-7351D01*
X9695Y-7368D01*
X9748D01*
Y-6984D01*
D02*
G37*
%LPD*%
G36*
X12536Y-17381D02*
Y-20014D01*
X12407D01*
Y-20212D01*
X12193D01*
Y-20014D01*
X11659D01*
Y-20212D01*
X10127D01*
X10121Y-20198D01*
X10073Y-20135D01*
X10060Y-20125D01*
Y-20075D01*
X10073Y-20065D01*
X10121Y-20002D01*
X10127Y-19988D01*
X10150D01*
X10203Y-19977D01*
X10247Y-19947D01*
X11697Y-18497D01*
X11697Y-18497D01*
X11727Y-18453D01*
X11738Y-18400D01*
X11738Y-18400D01*
Y-16653D01*
X11788Y-16632D01*
X12536Y-17381D01*
D02*
G37*
G36*
X10962Y-17103D02*
Y-17793D01*
X10118Y-18638D01*
X10073Y-18635D01*
X10060Y-18625D01*
Y-18575D01*
X10073Y-18565D01*
X10121Y-18502D01*
X10152Y-18429D01*
X10162Y-18350D01*
X10152Y-18271D01*
X10121Y-18198D01*
X10073Y-18135D01*
X10060Y-18125D01*
Y-18075D01*
X10073Y-18065D01*
X10121Y-18002D01*
X10152Y-17929D01*
X10162Y-17850D01*
X10160Y-17835D01*
X10912Y-17082D01*
X10962Y-17103D01*
D02*
G37*
G36*
X7353Y-19447D02*
X7398Y-19477D01*
X7450Y-19488D01*
X7450Y-19488D01*
X9273D01*
X9279Y-19502D01*
X9327Y-19565D01*
X9340Y-19575D01*
Y-19625D01*
X9327Y-19635D01*
X9279Y-19698D01*
X9248Y-19771D01*
X9238Y-19850D01*
X9248Y-19929D01*
X9279Y-20002D01*
X9327Y-20065D01*
X9340Y-20075D01*
Y-20125D01*
X9327Y-20135D01*
X9279Y-20198D01*
X9273Y-20212D01*
X7400D01*
X7400Y-20212D01*
X7348Y-20223D01*
X7303Y-20253D01*
X7303Y-20253D01*
X6493Y-21062D01*
X5686D01*
X5667Y-21016D01*
X5794Y-20889D01*
Y-20528D01*
X5614Y-20348D01*
X5267D01*
X5101Y-20182D01*
X5104Y-20158D01*
X5157Y-20140D01*
X5255Y-20238D01*
X5283D01*
Y-19882D01*
Y-19526D01*
X5255D01*
X5134Y-19647D01*
X5088Y-19628D01*
Y-19277D01*
X5134Y-19258D01*
X5253Y-19377D01*
X5614D01*
X5794Y-19196D01*
Y-19153D01*
X7059D01*
X7353Y-19447D01*
D02*
G37*
G36*
X7603Y-18947D02*
X7648Y-18977D01*
X7700Y-18988D01*
X7700Y-18988D01*
X9273D01*
X9279Y-19002D01*
X9327Y-19065D01*
X9340Y-19075D01*
Y-19125D01*
X9327Y-19135D01*
X9279Y-19198D01*
X9273Y-19212D01*
X7507D01*
X7213Y-18918D01*
X7169Y-18889D01*
X7116Y-18878D01*
X5794D01*
Y-18835D01*
X5646Y-18688D01*
X5667Y-18638D01*
X7293D01*
X7603Y-18947D01*
D02*
G37*
%LPC*%
G36*
X5789Y-20032D02*
X5583D01*
Y-20238D01*
X5611D01*
X5789Y-20060D01*
Y-20032D01*
D02*
G37*
G36*
X5611Y-19526D02*
X5583D01*
Y-19732D01*
X5789D01*
Y-19704D01*
X5611Y-19526D01*
D02*
G37*
%LPD*%
D10*
X12674Y-20350D02*
D03*
X11926D02*
D03*
X14024Y-15789D02*
D03*
X13276D02*
D03*
X16624Y-15750D02*
D03*
X15876D02*
D03*
X15176Y-20350D02*
D03*
X15924D02*
D03*
X15176Y-19340D02*
D03*
X15924D02*
D03*
X14024Y-14839D02*
D03*
X13276D02*
D03*
X16624Y-14800D02*
D03*
X15876D02*
D03*
D11*
X17300Y-20884D02*
D03*
X16926Y-20116D02*
D03*
X17674D02*
D03*
D12*
X22126Y-6329D02*
D03*
Y-7530D02*
D03*
D13*
X9823Y-6909D02*
D03*
Y-3406D02*
D03*
X7815D02*
D03*
D14*
Y-6909D02*
D03*
D15*
X21496Y-5079D02*
D03*
X22205D02*
D03*
D16*
X22126Y-6329D02*
X22205Y-6250D01*
Y-5079D01*
X24906D02*
X24921Y-5063D01*
X22205Y-5079D02*
X24906D01*
X22165Y-14646D02*
Y-12765D01*
X20906Y-15906D02*
X22165Y-14646D01*
X19728Y-16303D02*
X20906Y-17480D01*
X19728Y-16303D02*
Y-13222D01*
X7815Y-4135D02*
Y-3406D01*
X6832Y-5118D02*
X7815Y-4135D01*
X5472Y-5118D02*
X6832D01*
X9823Y-3406D02*
Y-2823D01*
X7815Y-9635D02*
Y-6909D01*
X20965Y-11565D02*
Y-10850D01*
X7316Y-10134D02*
X7815Y-9635D01*
X7316Y-10591D02*
Y-10134D01*
X21521Y-6329D02*
X22126D01*
X20181Y-12769D02*
Y-7669D01*
X21521Y-6329D01*
X9300Y-2300D02*
X9823Y-2823D01*
X19728Y-13222D02*
X20181Y-12769D01*
X3110Y-5118D02*
Y-3940D01*
X4750Y-2300D01*
X9300D01*
X20965Y-11565D02*
X22165Y-12765D01*
D17*
X21949Y-19390D02*
Y-18524D01*
X21575Y-19764D02*
X21949Y-19390D01*
X18564Y-19764D02*
X21575D01*
X18200Y-19400D02*
X18564Y-19764D01*
X6550Y-21200D02*
X7400Y-20350D01*
X7116Y-19016D02*
X7450Y-19350D01*
X7350Y-18500D02*
X7700Y-18850D01*
X4950Y-20226D02*
X5433Y-20709D01*
X4950Y-20226D02*
Y-18850D01*
X5300Y-18500D01*
X4449Y-19882D02*
Y-18858D01*
X4950Y-18357D01*
X15924Y-20350D02*
Y-19340D01*
X11926Y-20350D02*
X11926Y-20350D01*
X20755Y-19055D02*
X21295D01*
X15876Y-16076D02*
Y-15750D01*
Y-16076D02*
X16500Y-16700D01*
X16624Y-15750D02*
Y-14848D01*
X16100Y-11300D02*
Y-10300D01*
X15400Y-13500D02*
X16100Y-12800D01*
Y-12300D01*
X16150Y-12250D01*
X19114Y-8402D02*
Y-7402D01*
X16100Y-10300D02*
X16650D01*
X17600Y-9350D01*
Y-8100D01*
X17800Y-7900D01*
X18616D01*
X11926Y-20350D02*
X12674D01*
X13995Y-15789D02*
Y-14844D01*
X14750Y-13500D02*
X15400D01*
X13995Y-14844D02*
Y-14255D01*
X14750Y-13500D01*
X15114Y-8835D02*
Y-8402D01*
X18616Y-7900D02*
X19114Y-7402D01*
X14150Y-12300D02*
X15099D01*
X12674Y-20350D02*
Y-17324D01*
X1890Y-19370D02*
X2970Y-20450D01*
X3200D01*
X4800Y-22050D01*
X12050D01*
X11850Y-16500D02*
X12674Y-17324D01*
X11850Y-16500D02*
Y-12099D01*
X15114Y-8835D01*
X15099Y-10300D02*
X15150D01*
X14950Y-11300D02*
X15099D01*
X15114Y-7402D02*
Y-7264D01*
X16633Y-14839D02*
Y-11833D01*
X16100Y-11300D02*
X16633Y-11833D01*
X4449Y-20709D02*
X4940Y-21200D01*
X5300Y-18500D02*
X7350D01*
X5433Y-19016D02*
X7116D01*
X4940Y-21200D02*
X6550D01*
X7450Y-19350D02*
X9700D01*
X7700Y-18850D02*
X9700D01*
X7400Y-20350D02*
X9700D01*
Y-17350D02*
X10050D01*
X9700Y-17850D02*
X9950D01*
X9700Y-18850D02*
X10100D01*
X9700Y-19350D02*
X10100D01*
X9700Y-19850D02*
X10150D01*
X11600Y-18400D01*
X10100Y-19350D02*
X11350Y-18100D01*
X10100Y-18850D02*
X11100Y-17850D01*
X9950D02*
X10850Y-16950D01*
X10050Y-17350D02*
X10600Y-16800D01*
X12100Y-14350D02*
X14150Y-12300D01*
X11600Y-18400D02*
Y-11950D01*
X14114Y-9436D01*
Y-8402D01*
X13600Y-7916D02*
X14114Y-7402D01*
X11350Y-18100D02*
Y-11800D01*
X13600Y-9550D01*
Y-7916D01*
X11100Y-17850D02*
Y-11641D01*
X13250Y-9491D01*
X14563Y-6850D02*
X15114Y-7402D01*
X13250Y-9491D02*
Y-7400D01*
X13800Y-6850D01*
X14563D01*
X10850Y-16950D02*
Y-11450D01*
X12950Y-9350D01*
Y-7250D01*
X13650Y-6550D01*
X16050D01*
X16600Y-7100D01*
Y-7887D02*
Y-7100D01*
Y-7887D02*
X17114Y-8402D01*
X10600Y-16800D02*
Y-11255D01*
X12650Y-9205D01*
X17114Y-7402D02*
Y-7074D01*
X12650Y-9205D02*
Y-7100D01*
X13500Y-6250D01*
X16291D01*
X17114Y-7074D01*
X16600Y-5800D02*
Y-3700D01*
X14790Y-1890D02*
X16600Y-3700D01*
X13465Y-1890D02*
X14790D01*
X17600Y-5800D02*
Y-3700D01*
X19410Y-1890D01*
X19764D01*
X4950Y-18357D02*
Y-17550D01*
X6300Y-16200D01*
X16624Y-14848D02*
X16633Y-14839D01*
X16722Y-14750D01*
X16821Y-14848D02*
X17300D01*
X16722Y-14750D02*
X16821Y-14848D01*
X9700Y-20350D02*
X11926D01*
X16500Y-16700D02*
X18400D01*
X17674Y-20116D02*
X17966D01*
X18480Y-20630D01*
X20984D01*
X16584Y-20116D02*
X16926D01*
X16350Y-20350D02*
X16584Y-20116D01*
X15924Y-20350D02*
X16350D01*
X17300Y-20884D02*
Y-19650D01*
X17550Y-19400D01*
X18200D01*
X20906Y-17480D02*
X21949Y-18524D01*
X15150Y-14850D02*
X15826D01*
X15876Y-14800D01*
X12050Y-22050D02*
X13250Y-20850D01*
X13247Y-16347D02*
Y-15789D01*
X15176Y-19340D02*
Y-18276D01*
X13247Y-16347D02*
X15176Y-18276D01*
X12650Y-15150D02*
X12961Y-14839D01*
X13276D01*
X12650Y-16350D02*
Y-15150D01*
X14000Y-18307D02*
Y-17700D01*
X12650Y-16350D02*
X14000Y-17700D01*
X12100Y-16372D02*
Y-14350D01*
Y-16372D02*
X13250Y-17522D01*
Y-20850D02*
Y-17522D01*
X18400Y-16700D02*
X20755Y-19055D01*
X2717Y-12205D02*
X5134Y-14622D01*
X6378D01*
X2717Y-11220D02*
X3819Y-12323D01*
X2717Y-10236D02*
X3228D01*
X4134Y-11142D01*
X3819Y-12909D02*
Y-12323D01*
Y-12909D02*
X5032Y-14122D01*
X6378D01*
X4134Y-12835D02*
Y-11142D01*
Y-12835D02*
X4921Y-13622D01*
X6378D01*
X2717Y-14173D02*
X4291D01*
X5240Y-15122D01*
X6378D01*
D18*
X18114Y-7286D02*
X18650Y-6750D01*
X19500D01*
X20300Y-7550D01*
X18114Y-7402D02*
Y-7286D01*
D19*
X20906Y-20551D02*
D03*
D20*
Y-18976D02*
D03*
Y-17402D02*
D03*
Y-15827D02*
D03*
Y-14252D02*
D03*
X9000Y-14350D02*
D03*
D21*
X16100Y-11300D02*
D03*
Y-10300D02*
D03*
Y-12300D02*
D03*
X15099Y-11300D02*
D03*
X15099Y-12300D02*
D03*
X15099Y-10300D02*
D03*
X19114Y-7402D02*
D03*
Y-8402D02*
D03*
X18114Y-7402D02*
D03*
Y-8402D02*
D03*
X17114Y-7402D02*
D03*
Y-8402D02*
D03*
X16114Y-7402D02*
D03*
Y-8402D02*
D03*
X15114Y-7402D02*
D03*
Y-8402D02*
D03*
X14114Y-7402D02*
D03*
D22*
X19764Y-3661D02*
D03*
X13465D02*
D03*
D23*
X19764Y-1890D02*
D03*
X13465D02*
D03*
D24*
X21437Y-650D02*
D03*
X18091D02*
D03*
X15138D02*
D03*
X11791D02*
D03*
X650Y-17697D02*
D03*
Y-21043D02*
D03*
D25*
X3661Y-19370D02*
D03*
D26*
X1890D02*
D03*
D27*
X25335Y-1969D02*
D03*
X1575Y-25307D02*
D03*
D28*
X5512D02*
D03*
D29*
X24921Y-5063D02*
D03*
Y-6063D02*
D03*
D30*
Y-7063D02*
D03*
D31*
X4449Y-19882D02*
D03*
Y-18858D02*
D03*
X20961Y-10850D02*
D03*
X21946D02*
D03*
D32*
X3268Y-16772D02*
D03*
Y-21969D02*
D03*
D33*
X5433Y-19882D02*
D03*
Y-20709D02*
D03*
Y-18032D02*
D03*
Y-19016D02*
D03*
X4449Y-18032D02*
D03*
Y-20709D02*
D03*
D34*
X9284Y-10591D02*
D03*
X7316D02*
D03*
D35*
X9700Y-16350D02*
D03*
X6378Y-13622D02*
D03*
D36*
X9700Y-16850D02*
D03*
Y-17350D02*
D03*
Y-17850D02*
D03*
Y-18350D02*
D03*
Y-18850D02*
D03*
Y-19350D02*
D03*
Y-19850D02*
D03*
Y-20350D02*
D03*
Y-20850D02*
D03*
Y-21350D02*
D03*
X6378Y-14122D02*
D03*
Y-14622D02*
D03*
Y-15122D02*
D03*
D37*
X5472Y-5118D02*
D03*
D38*
X3110D02*
D03*
D39*
X14114Y-8402D02*
D03*
D40*
X1142Y-10236D02*
D03*
Y-11220D02*
D03*
Y-12205D02*
D03*
Y-14173D02*
D03*
X2717Y-10236D02*
D03*
Y-11220D02*
D03*
Y-12205D02*
D03*
Y-14173D02*
D03*
D41*
X16600Y-5800D02*
D03*
X17600D02*
D03*
X17300Y-14848D02*
D03*
X15150Y-14850D02*
D03*
X14000Y-18307D02*
D03*
D42*
X6300Y-16200D02*
D03*
M02*
