G04 Layer_Color=128*
%FSLAX24Y24*%
%MOIN*%
G70*
G01*
G75*
%ADD80C,0.0020*%
D80*
X20551Y-20551D02*
X21260D01*
X20906Y-20906D02*
Y-20197D01*
X20551Y-18976D02*
X21260D01*
X20906Y-19331D02*
Y-18622D01*
X20551Y-17402D02*
X21260D01*
X20906Y-17756D02*
Y-17047D01*
X20551Y-15827D02*
X21260D01*
X20906Y-16181D02*
Y-15472D01*
X20551Y-14252D02*
X21260D01*
X20906Y-14606D02*
Y-13898D01*
X15923Y-11300D02*
X16277D01*
X16100Y-11477D02*
Y-11123D01*
X15923Y-10300D02*
X16277D01*
X16100Y-10477D02*
Y-10123D01*
X15923Y-12300D02*
X16277D01*
X16100Y-12477D02*
Y-12123D01*
X19311Y-3661D02*
X20217D01*
X19764Y-4114D02*
Y-3209D01*
X19094Y-1890D02*
X20433D01*
X19764Y-2559D02*
Y-1220D01*
X20925Y-650D02*
X21949D01*
X21437Y-1161D02*
Y-138D01*
X17579Y-650D02*
X18602D01*
X18091Y-1161D02*
Y-138D01*
X13012Y-3661D02*
X13917D01*
X13465Y-4114D02*
Y-3209D01*
X12795Y-1890D02*
X14134D01*
X13465Y-2559D02*
Y-1220D01*
X14626Y-650D02*
X15650D01*
X15138Y-1161D02*
Y-138D01*
X11280Y-650D02*
X12303D01*
X11791Y-1161D02*
Y-138D01*
X3209Y-19370D02*
X4114D01*
X3661Y-19823D02*
Y-18917D01*
X1220Y-19370D02*
X2559D01*
X1890Y-20039D02*
Y-18701D01*
X138Y-17697D02*
X1161D01*
X650Y-18209D02*
Y-17185D01*
X138Y-21043D02*
X1161D01*
X650Y-21555D02*
Y-20531D01*
X24646Y-1969D02*
X26024D01*
X25335Y-2657D02*
Y-1280D01*
X886Y-25307D02*
X2264D01*
X1575Y-25996D02*
Y-24618D01*
X4961Y-25307D02*
X6063D01*
X5512Y-25858D02*
Y-24756D01*
X24724Y-5063D02*
X25118D01*
X24921Y-5260D02*
Y-4866D01*
X24724Y-6063D02*
X25118D01*
X24921Y-6260D02*
Y-5866D01*
X24724Y-7063D02*
X25118D01*
X24921Y-7260D02*
Y-6866D01*
X14922Y-11300D02*
X15276D01*
X15099Y-11477D02*
Y-11123D01*
X14922Y-12300D02*
X15276D01*
X15099Y-12477D02*
Y-12123D01*
X14922Y-10300D02*
X15276D01*
X15099Y-10477D02*
Y-10123D01*
X4272Y-19882D02*
X4626D01*
X4449Y-20059D02*
Y-19705D01*
X2835Y-16772D02*
X3701D01*
X3268Y-17205D02*
Y-16339D01*
X2835Y-21969D02*
X3701D01*
X3268Y-22402D02*
Y-21535D01*
X4272Y-18858D02*
X4626D01*
X4449Y-19035D02*
Y-18681D01*
X5256Y-19882D02*
X5610D01*
X5433Y-20059D02*
Y-19705D01*
X5256Y-20709D02*
X5610D01*
X5433Y-20886D02*
Y-20531D01*
X5256Y-18032D02*
X5610D01*
X5433Y-18209D02*
Y-17854D01*
X5256Y-19016D02*
X5610D01*
X5433Y-19193D02*
Y-18839D01*
X4272Y-18032D02*
X4626D01*
X4449Y-18209D02*
Y-17854D01*
X4272Y-20709D02*
X4626D01*
X4449Y-20886D02*
Y-20531D01*
X8646Y-14350D02*
X9354D01*
X9000Y-14704D02*
Y-13996D01*
X20804Y-10850D02*
X21119D01*
X20961Y-11007D02*
Y-10693D01*
X21788Y-10850D02*
X22103D01*
X21946Y-11007D02*
Y-10693D01*
X9127Y-10591D02*
X9442D01*
X9284Y-10748D02*
Y-10433D01*
X7158Y-10591D02*
X7473D01*
X7316Y-10748D02*
Y-10433D01*
X9562Y-16350D02*
X9838D01*
X9700Y-16488D02*
Y-16212D01*
X9562Y-16850D02*
X9838D01*
X9700Y-16988D02*
Y-16712D01*
X9562Y-17350D02*
X9838D01*
X9700Y-17488D02*
Y-17212D01*
X9562Y-17850D02*
X9838D01*
X9700Y-17988D02*
Y-17712D01*
X9562Y-18350D02*
X9838D01*
X9700Y-18488D02*
Y-18212D01*
X9562Y-18850D02*
X9838D01*
X9700Y-18988D02*
Y-18712D01*
X9562Y-19350D02*
X9838D01*
X9700Y-19488D02*
Y-19212D01*
X9562Y-19850D02*
X9838D01*
X9700Y-19988D02*
Y-19712D01*
X9562Y-20350D02*
X9838D01*
X9700Y-20488D02*
Y-20212D01*
X9562Y-20850D02*
X9838D01*
X9700Y-20988D02*
Y-20712D01*
X9562Y-21350D02*
X9838D01*
X9700Y-21488D02*
Y-21212D01*
X4783Y-5118D02*
X6161D01*
X5472Y-5807D02*
Y-4429D01*
X2520Y-5118D02*
X3701D01*
X3110Y-5709D02*
Y-4528D01*
X18937Y-7402D02*
X19291D01*
X19114Y-7579D02*
Y-7224D01*
X18937Y-8402D02*
X19291D01*
X19114Y-8579D02*
Y-8224D01*
X17937Y-7402D02*
X18291D01*
X18114Y-7579D02*
Y-7224D01*
X17937Y-8402D02*
X18291D01*
X18114Y-8579D02*
Y-8224D01*
X16937Y-7402D02*
X17291D01*
X17114Y-7579D02*
Y-7224D01*
X16937Y-8402D02*
X17291D01*
X17114Y-8579D02*
Y-8224D01*
X15937Y-7402D02*
X16291D01*
X16114Y-7579D02*
Y-7224D01*
X15937Y-8402D02*
X16291D01*
X16114Y-8579D02*
Y-8224D01*
X14937Y-7402D02*
X15291D01*
X15114Y-7579D02*
Y-7224D01*
X14937Y-8402D02*
X15291D01*
X15114Y-8579D02*
Y-8224D01*
X13937Y-7402D02*
X14291D01*
X14114Y-7579D02*
Y-7224D01*
X13937Y-8402D02*
X14291D01*
X14114Y-8579D02*
Y-8224D01*
X6240Y-13622D02*
X6516D01*
X6378Y-13760D02*
Y-13484D01*
X6240Y-14122D02*
X6516D01*
X6378Y-14260D02*
Y-13984D01*
X6240Y-14622D02*
X6516D01*
X6378Y-14760D02*
Y-14484D01*
X6240Y-15122D02*
X6516D01*
X6378Y-15260D02*
Y-14984D01*
X965Y-10236D02*
X1319D01*
X1142Y-10413D02*
Y-10059D01*
X965Y-11220D02*
X1319D01*
X1142Y-11398D02*
Y-11043D01*
X965Y-12205D02*
X1319D01*
X1142Y-12382D02*
Y-12028D01*
X965Y-14173D02*
X1319D01*
X1142Y-14350D02*
Y-13996D01*
X2539Y-10236D02*
X2894D01*
X2717Y-10413D02*
Y-10059D01*
X2539Y-11220D02*
X2894D01*
X2717Y-11398D02*
Y-11043D01*
X2539Y-12205D02*
X2894D01*
X2717Y-12382D02*
Y-12028D01*
X2539Y-14173D02*
X2894D01*
X2717Y-14350D02*
Y-13996D01*
X16500Y-5800D02*
X16700D01*
X16600Y-5900D02*
Y-5700D01*
X17500Y-5800D02*
X17700D01*
X17600Y-5900D02*
Y-5700D01*
X6225Y-16200D02*
X6375D01*
X6300Y-16275D02*
Y-16125D01*
X17200Y-14848D02*
X17400D01*
X17300Y-14948D02*
Y-14748D01*
X15050Y-14850D02*
X15250D01*
X15150Y-14950D02*
Y-14750D01*
X13900Y-18307D02*
X14100D01*
X14000Y-18407D02*
Y-18207D01*
M02*
