G04 Layer_Color=37796*
%FSLAX24Y24*%
%MOIN*%
G70*
G01*
G75*
%ADD45C,0.0079*%
%ADD47C,0.0100*%
D45*
X22757Y-4016D02*
X23506D01*
X22757Y-4291D02*
Y-4016D01*
X23506D02*
X23545D01*
Y-4291D02*
Y-4016D01*
X22757Y-5433D02*
X23545D01*
X22757D02*
Y-5157D01*
X23545Y-5433D02*
Y-5157D01*
X21959Y-13254D02*
Y-12506D01*
X21683D02*
X21959D01*
Y-13294D02*
Y-13254D01*
X21683Y-13294D02*
X21959D01*
X20541D02*
Y-12506D01*
X20817D01*
X20541Y-13294D02*
X20817D01*
X21502Y-7480D02*
Y-6732D01*
Y-7480D02*
X21777D01*
X21502Y-6732D02*
Y-6693D01*
X21777D01*
X22919Y-7480D02*
Y-6693D01*
X22643Y-7480D02*
X22919D01*
X22643Y-6693D02*
X22919D01*
D47*
X23213Y-3464D02*
X23285Y-3391D01*
X23429D01*
X23501Y-3464D01*
Y-3752D01*
X23429Y-3824D01*
X23285D01*
X23213Y-3752D01*
X22780Y-3391D02*
X23068D01*
Y-3608D01*
X22924Y-3536D01*
X22852D01*
X22780Y-3608D01*
Y-3752D01*
X22852Y-3824D01*
X22996D01*
X23068Y-3752D01*
X21315Y-11989D02*
X21387Y-11917D01*
X21531D01*
X21604Y-11989D01*
Y-12278D01*
X21531Y-12350D01*
X21387D01*
X21315Y-12278D01*
X20882Y-12350D02*
X21171D01*
X20882Y-12061D01*
Y-11989D01*
X20954Y-11917D01*
X21098D01*
X21171Y-11989D01*
X22276Y-6176D02*
X22348Y-6104D01*
X22493D01*
X22565Y-6176D01*
Y-6464D01*
X22493Y-6537D01*
X22348D01*
X22276Y-6464D01*
X21915Y-6537D02*
Y-6104D01*
X22132Y-6320D01*
X21843D01*
M02*
