G04 Layer_Color=127485*
%FSLAX24Y24*%
%MOIN*%
G70*
G01*
G75*
%ADD44C,0.0098*%
%ADD45C,0.0079*%
%ADD46C,0.0157*%
%ADD47C,0.0100*%
%ADD48R,0.0157X0.0236*%
G36*
X22739Y-5808D02*
X22836D01*
Y-5874D01*
X22739D01*
Y-5973D01*
X22672D01*
Y-5874D01*
X22574D01*
Y-5808D01*
X22672D01*
Y-5709D01*
X22739D01*
Y-5808D01*
D02*
G37*
G36*
X9292Y-12842D02*
X9292D01*
X9292D01*
D01*
D02*
G37*
G36*
X10039Y-4311D02*
X10038Y-4313D01*
X10035Y-4317D01*
X10028Y-4322D01*
X10020Y-4329D01*
X10010Y-4337D01*
X9999Y-4344D01*
X9987Y-4352D01*
X9973Y-4359D01*
X9972Y-4360D01*
X9968Y-4361D01*
X9962Y-4363D01*
X9956Y-4365D01*
X9946Y-4367D01*
X9936Y-4368D01*
X9924Y-4370D01*
X9901D01*
X9894Y-4369D01*
X9886Y-4368D01*
X9877Y-4367D01*
X9859Y-4364D01*
X9858D01*
X9854Y-4363D01*
X9847Y-4360D01*
X9838Y-4357D01*
X9826Y-4353D01*
X9810Y-4347D01*
X9791Y-4340D01*
X9768Y-4331D01*
X9767D01*
X9766Y-4330D01*
X9762Y-4328D01*
X9753Y-4325D01*
X9743Y-4322D01*
X9733Y-4319D01*
X9721Y-4317D01*
X9710Y-4315D01*
X9700Y-4314D01*
X9694D01*
X9690Y-4315D01*
X9684Y-4316D01*
X9678Y-4317D01*
X9663Y-4321D01*
X9644Y-4328D01*
X9635Y-4334D01*
X9624Y-4340D01*
X9614Y-4346D01*
X9603Y-4354D01*
X9592Y-4364D01*
X9582Y-4374D01*
Y-4258D01*
X9583Y-4257D01*
X9586Y-4254D01*
X9591Y-4250D01*
X9597Y-4245D01*
X9605Y-4239D01*
X9616Y-4232D01*
X9626Y-4224D01*
X9640Y-4218D01*
X9642Y-4217D01*
X9645Y-4215D01*
X9652Y-4212D01*
X9662Y-4209D01*
X9672Y-4206D01*
X9684Y-4203D01*
X9695Y-4201D01*
X9708Y-4200D01*
X9716D01*
X9721Y-4201D01*
X9728D01*
X9736Y-4202D01*
X9752Y-4205D01*
X9753D01*
X9756Y-4206D01*
X9762Y-4208D01*
X9768Y-4211D01*
X9778Y-4214D01*
X9790Y-4219D01*
X9803Y-4223D01*
X9818Y-4230D01*
X9819D01*
X9821Y-4231D01*
X9825Y-4233D01*
X9829Y-4235D01*
X9835Y-4237D01*
X9841Y-4240D01*
X9856Y-4245D01*
X9873Y-4250D01*
X9890Y-4254D01*
X9907Y-4258D01*
X9922Y-4259D01*
X9928D01*
X9933Y-4258D01*
X9937Y-4257D01*
X9944Y-4256D01*
X9960Y-4251D01*
X9977Y-4245D01*
X9987Y-4240D01*
X9997Y-4234D01*
X10008Y-4227D01*
X10018Y-4219D01*
X10029Y-4210D01*
X10039Y-4199D01*
Y-4311D01*
D02*
G37*
G36*
X8031D02*
X8031Y-4313D01*
X8027Y-4317D01*
X8020Y-4322D01*
X8012Y-4329D01*
X8002Y-4337D01*
X7991Y-4344D01*
X7979Y-4352D01*
X7965Y-4359D01*
X7964Y-4360D01*
X7960Y-4361D01*
X7955Y-4363D01*
X7948Y-4365D01*
X7938Y-4367D01*
X7928Y-4368D01*
X7916Y-4370D01*
X7893D01*
X7886Y-4369D01*
X7878Y-4368D01*
X7869Y-4367D01*
X7851Y-4364D01*
X7850D01*
X7846Y-4363D01*
X7839Y-4360D01*
X7830Y-4357D01*
X7818Y-4353D01*
X7802Y-4347D01*
X7784Y-4340D01*
X7760Y-4331D01*
X7760D01*
X7759Y-4330D01*
X7754Y-4328D01*
X7745Y-4325D01*
X7736Y-4322D01*
X7725Y-4319D01*
X7713Y-4317D01*
X7702Y-4315D01*
X7692Y-4314D01*
X7686D01*
X7682Y-4315D01*
X7676Y-4316D01*
X7670Y-4317D01*
X7655Y-4321D01*
X7637Y-4328D01*
X7627Y-4334D01*
X7616Y-4340D01*
X7606Y-4346D01*
X7595Y-4354D01*
X7585Y-4364D01*
X7574Y-4374D01*
Y-4258D01*
X7575Y-4257D01*
X7578Y-4254D01*
X7583Y-4250D01*
X7589Y-4245D01*
X7597Y-4239D01*
X7608Y-4232D01*
X7618Y-4224D01*
X7632Y-4218D01*
X7634Y-4217D01*
X7637Y-4215D01*
X7644Y-4212D01*
X7654Y-4209D01*
X7664Y-4206D01*
X7676Y-4203D01*
X7687Y-4201D01*
X7700Y-4200D01*
X7708D01*
X7713Y-4201D01*
X7720D01*
X7728Y-4202D01*
X7744Y-4205D01*
X7745D01*
X7748Y-4206D01*
X7754Y-4208D01*
X7760Y-4211D01*
X7770Y-4214D01*
X7782Y-4219D01*
X7795Y-4223D01*
X7810Y-4230D01*
X7811D01*
X7813Y-4231D01*
X7817Y-4233D01*
X7821Y-4235D01*
X7827Y-4237D01*
X7834Y-4240D01*
X7848Y-4245D01*
X7865Y-4250D01*
X7883Y-4254D01*
X7899Y-4258D01*
X7914Y-4259D01*
X7920D01*
X7925Y-4258D01*
X7930Y-4257D01*
X7936Y-4256D01*
X7952Y-4251D01*
X7969Y-4245D01*
X7980Y-4240D01*
X7989Y-4234D01*
X8000Y-4227D01*
X8010Y-4219D01*
X8021Y-4210D01*
X8031Y-4199D01*
Y-4311D01*
D02*
G37*
G36*
X21635Y-9562D02*
X21755Y-9585D01*
X21871Y-9618D01*
X21928Y-9641D01*
X22019Y-9676D01*
X22187Y-9773D01*
X22339Y-9895D01*
X22472Y-10038D01*
X22582Y-10198D01*
X22666Y-10374D01*
X22724Y-10560D01*
X22753Y-10752D01*
X22753Y-10947D01*
X22724Y-11140D01*
X22666Y-11326D01*
X22582Y-11501D01*
X22472Y-11662D01*
X22340Y-11805D01*
X22188Y-11926D01*
X22019Y-12024D01*
X21928Y-12059D01*
X21928D01*
X21872Y-12082D01*
X21755Y-12115D01*
X21635Y-12138D01*
X21514Y-12149D01*
X21453D01*
Y-9551D01*
X21514D01*
X21635Y-9562D01*
D02*
G37*
G36*
X8680Y-8156D02*
X8929Y-8208D01*
X9172Y-8286D01*
X9288Y-8337D01*
X9419Y-8394D01*
X9665Y-8538D01*
X9893Y-8709D01*
X10099Y-8906D01*
X10281Y-9125D01*
X10437Y-9363D01*
X10565Y-9618D01*
X10662Y-9886D01*
X10727Y-10163D01*
X10761Y-10446D01*
X10761Y-10731D01*
X10728Y-11014D01*
X10663Y-11291D01*
X10566Y-11559D01*
X10439Y-11814D01*
X10284Y-12053D01*
X10102Y-12272D01*
X9896Y-12469D01*
X9668Y-12641D01*
X9423Y-12785D01*
X9292Y-12842D01*
X9284Y-12835D01*
X9288Y-12844D01*
X9288D01*
X9172Y-12895D01*
X8929Y-12973D01*
X8680Y-13025D01*
X8427Y-13051D01*
X8300D01*
Y-8130D01*
X8427D01*
X8680Y-8156D01*
D02*
G37*
%LPC*%
G36*
X21927Y-10516D02*
X21926D01*
X21927Y-10516D01*
X21885Y-10521D01*
X21805Y-10546D01*
X21733Y-10591D01*
X21675Y-10652D01*
X21635Y-10726D01*
X21614Y-10808D01*
Y-10892D01*
X21635Y-10974D01*
X21675Y-11048D01*
X21733Y-11109D01*
X21805Y-11154D01*
X21885Y-11179D01*
X21927Y-11184D01*
X21972Y-11184D01*
X22061Y-11164D01*
X22141Y-11122D01*
X22206Y-11060D01*
X22253Y-10982D01*
X22277Y-10895D01*
Y-10805D01*
X22253Y-10718D01*
X22206Y-10640D01*
X22141Y-10578D01*
X22061Y-10536D01*
X21972Y-10516D01*
X21927Y-10516D01*
Y-10516D01*
D02*
G37*
G36*
X9284Y-10234D02*
X9238Y-10237D01*
X9148Y-10261D01*
X9067Y-10308D01*
X9001Y-10374D01*
X8955Y-10454D01*
X8931Y-10544D01*
Y-10637D01*
X8955Y-10727D01*
X9001Y-10808D01*
X9067Y-10873D01*
X9148Y-10920D01*
X9238Y-10944D01*
X9284Y-10947D01*
X9331Y-10944D01*
X9421Y-10920D01*
X9501Y-10873D01*
X9567Y-10808D01*
X9614Y-10727D01*
X9638Y-10637D01*
Y-10544D01*
X9614Y-10454D01*
X9567Y-10374D01*
X9501Y-10308D01*
X9421Y-10261D01*
X9331Y-10237D01*
X9284Y-10234D01*
D02*
G37*
%LPD*%
D44*
X25443Y-7913D02*
G03*
X25443Y-7913I-49J0D01*
G01*
D45*
X22753Y-10850D02*
G03*
X22753Y-10850I-1299J0D01*
G01*
X10800Y-10591D02*
G03*
X10800Y-10591I-2500J0D01*
G01*
X7173Y-5471D02*
G03*
X7176Y-4844I31J313D01*
G01*
X19921Y-19764D02*
X21890D01*
Y-21496D02*
Y-13268D01*
X19921D02*
X21890D01*
X19921Y-21496D02*
Y-13268D01*
Y-21496D02*
X21890D01*
X11749Y-12835D02*
Y-9802D01*
X19249D01*
Y-12835D02*
Y-9802D01*
X11749Y-12835D02*
X19249D01*
X11752Y-17200D02*
Y-13500D01*
Y-17200D02*
X18202D01*
Y-13500D01*
X11752D02*
X18202D01*
X11591Y-20744D02*
Y-19956D01*
Y-20744D02*
X11867D01*
X11591Y-19956D02*
X11867D01*
X12733D02*
X13009D01*
X12733Y-20744D02*
X13009D01*
Y-19956D01*
X12941Y-16183D02*
Y-15396D01*
Y-16183D02*
X13217D01*
X12941Y-15396D02*
X13217D01*
X14083D02*
X14359D01*
X14083Y-16183D02*
X14359D01*
Y-15396D01*
X15541Y-16144D02*
Y-15356D01*
Y-16144D02*
X15817D01*
X15541Y-15356D02*
X15817D01*
X16683D02*
X16959D01*
X16683Y-16144D02*
X16959D01*
Y-15356D01*
X1102Y-16535D02*
X2598D01*
X3937D02*
X6299D01*
X3937Y-22205D02*
X3937Y-22205D01*
X6299D01*
X2598D02*
X2598Y-22205D01*
X1102Y-22205D02*
X2598D01*
X4331Y-19567D02*
Y-19173D01*
Y-21339D02*
Y-21063D01*
Y-17677D02*
Y-17402D01*
X1142D02*
X4331D01*
X1811Y-18425D02*
Y-17441D01*
X1102Y-20709D02*
Y-19882D01*
Y-18858D02*
Y-18032D01*
Y-17362D02*
X1142Y-17402D01*
X1102Y-17362D02*
Y-16535D01*
Y-21378D02*
X1142Y-21339D01*
X1102Y-21457D02*
Y-21378D01*
Y-22205D02*
Y-21457D01*
X17795Y-4331D02*
Y-1142D01*
X18602Y-315D02*
X20925D01*
X21732Y-4331D02*
Y-1142D01*
X17795Y-4331D02*
X21732D01*
X11496D02*
Y-1142D01*
X12303Y-315D02*
X14626D01*
X15433Y-4331D02*
Y-1142D01*
X11496Y-4331D02*
X15433D01*
X1142Y-21339D02*
X4331D01*
X315Y-20531D02*
Y-18209D01*
X23799Y-3957D02*
X25650D01*
X23799Y-8169D02*
X25650D01*
Y-3957D01*
X23799Y-8169D02*
Y-3957D01*
X23996Y-8169D02*
Y-3957D01*
X16258Y-20744D02*
Y-19956D01*
X15983D02*
X16258D01*
X15983Y-20744D02*
X16258D01*
X14841D02*
X15117D01*
X14841Y-19956D02*
X15117D01*
X14841Y-20744D02*
Y-19956D01*
X16258Y-19733D02*
Y-18946D01*
X15983D02*
X16258D01*
X15983Y-19733D02*
X16258D01*
X14841D02*
X15117D01*
X14841Y-18946D02*
X15117D01*
X14841Y-19733D02*
Y-18946D01*
X6299Y-22205D02*
Y-16535D01*
X1811Y-22205D02*
Y-20315D01*
X9267Y-21665D02*
Y-16035D01*
X10133D01*
Y-21665D02*
Y-16035D01*
X9267Y-21665D02*
X10133D01*
X16690Y-20776D02*
X17024D01*
X16690D02*
Y-20539D01*
X17576Y-20776D02*
X17910D01*
Y-20539D01*
X21299Y-9134D02*
Y-6772D01*
Y-6732D01*
Y-6693D01*
X11929Y-6732D02*
Y-6693D01*
Y-6772D02*
Y-6732D01*
Y-9134D02*
Y-6772D01*
Y-6693D02*
X21299D01*
X13602Y-8913D02*
X19626D01*
X13602D02*
Y-6906D01*
X19626D01*
Y-8913D02*
Y-6906D01*
X11929Y-9134D02*
X21299D01*
X21535Y-7677D02*
X21654D01*
X21535D02*
Y-6142D01*
X22717Y-7677D02*
Y-6142D01*
X22598Y-7677D02*
X22717D01*
X22598Y-6535D02*
X22717D01*
X21535D02*
X21654D01*
X7165Y-6417D02*
Y-3898D01*
Y-6417D02*
X10472D01*
Y-3898D01*
X7165D02*
X10472D01*
X22283Y-5472D02*
X22559D01*
X22283Y-4685D02*
X22559D01*
Y-5472D02*
Y-4685D01*
X21142Y-5472D02*
X21417D01*
X21142D02*
Y-5433D01*
Y-4685D02*
X21417D01*
X21142Y-5433D02*
Y-4685D01*
X12941Y-15233D02*
Y-14446D01*
Y-15233D02*
X13217D01*
X12941Y-14446D02*
X13217D01*
X14083D02*
X14359D01*
X14083Y-15233D02*
X14359D01*
Y-14446D01*
X15541Y-15194D02*
Y-14406D01*
Y-15194D02*
X15817D01*
X15541Y-14406D02*
X15817D01*
X16683D02*
X16959D01*
X16683Y-15194D02*
X16959D01*
Y-14406D01*
X5945Y-13307D02*
X6811D01*
X5945Y-15437D02*
Y-13307D01*
X6811Y-15437D02*
Y-13307D01*
X5945Y-15437D02*
X6811D01*
X39Y-16181D02*
Y-8228D01*
X3819D01*
X39Y-16181D02*
X3819D01*
Y-8228D01*
X8262Y-21222D02*
X8197Y-21156D01*
X8066D01*
X8000Y-21222D01*
Y-21484D01*
X8066Y-21550D01*
X8197D01*
X8262Y-21484D01*
Y-21353D01*
X8131D01*
X8394Y-21550D02*
Y-21156D01*
X8656Y-21550D01*
Y-21156D01*
X8787D02*
Y-21550D01*
X8984D01*
X9050Y-21484D01*
Y-21222D01*
X8984Y-21156D01*
X8787D01*
X8262Y-20715D02*
X8197Y-20650D01*
X8066D01*
X8000Y-20715D01*
Y-20978D01*
X8066Y-21043D01*
X8197D01*
X8262Y-20978D01*
Y-20847D01*
X8131D01*
X8394Y-21043D02*
Y-20650D01*
X8656Y-21043D01*
Y-20650D01*
X8787D02*
Y-21043D01*
X8984D01*
X9050Y-20978D01*
Y-20715D01*
X8984Y-20650D01*
X8787D01*
X7462Y-20072D02*
X7397Y-20006D01*
X7266D01*
X7200Y-20072D01*
Y-20334D01*
X7266Y-20400D01*
X7397D01*
X7462Y-20334D01*
X7856Y-20072D02*
X7790Y-20006D01*
X7659D01*
X7594Y-20072D01*
Y-20138D01*
X7659Y-20203D01*
X7790D01*
X7856Y-20269D01*
Y-20334D01*
X7790Y-20400D01*
X7659D01*
X7594Y-20334D01*
X7987Y-20138D02*
Y-20334D01*
X8053Y-20400D01*
X8250D01*
Y-20466D01*
X8184Y-20531D01*
X8118D01*
X8250Y-20400D02*
Y-20138D01*
X8381Y-20400D02*
Y-20138D01*
X8578D01*
X8643Y-20203D01*
Y-20400D01*
X9037Y-20138D02*
X8840D01*
X8774Y-20203D01*
Y-20334D01*
X8840Y-20400D01*
X9037D01*
X8014Y-20000D02*
Y-19606D01*
X8210D01*
X8276Y-19672D01*
Y-19803D01*
X8210Y-19869D01*
X8014D01*
X8145D02*
X8276Y-20000D01*
X8604D02*
X8473D01*
X8407Y-19934D01*
Y-19803D01*
X8473Y-19738D01*
X8604D01*
X8669Y-19803D01*
Y-19869D01*
X8407D01*
X9063Y-19606D02*
Y-20000D01*
X8866D01*
X8801Y-19934D01*
Y-19803D01*
X8866Y-19738D01*
X9063D01*
X7489Y-19172D02*
X7423Y-19106D01*
X7292D01*
X7226Y-19172D01*
Y-19434D01*
X7292Y-19500D01*
X7423D01*
X7489Y-19434D01*
Y-19303D01*
X7358D01*
X7620Y-19238D02*
Y-19500D01*
Y-19369D01*
X7686Y-19303D01*
X7751Y-19238D01*
X7817D01*
X8210Y-19500D02*
X8079D01*
X8014Y-19434D01*
Y-19303D01*
X8079Y-19238D01*
X8210D01*
X8276Y-19303D01*
Y-19369D01*
X8014D01*
X8604Y-19500D02*
X8473D01*
X8407Y-19434D01*
Y-19303D01*
X8473Y-19238D01*
X8604D01*
X8669Y-19303D01*
Y-19369D01*
X8407D01*
X8801Y-19500D02*
Y-19238D01*
X8997D01*
X9063Y-19303D01*
Y-19500D01*
X7686Y-18606D02*
Y-19000D01*
X7882D01*
X7948Y-18934D01*
Y-18869D01*
X7882Y-18803D01*
X7686D01*
X7882D01*
X7948Y-18738D01*
Y-18672D01*
X7882Y-18606D01*
X7686D01*
X8079Y-19000D02*
X8210D01*
X8145D01*
Y-18606D01*
X8079D01*
X8407Y-18738D02*
Y-18934D01*
X8473Y-19000D01*
X8669D01*
Y-18738D01*
X8997Y-19000D02*
X8866D01*
X8801Y-18934D01*
Y-18803D01*
X8866Y-18738D01*
X8997D01*
X9063Y-18803D01*
Y-18869D01*
X8801D01*
X7882Y-18172D02*
X7817Y-18106D01*
X7686D01*
X7620Y-18172D01*
Y-18434D01*
X7686Y-18500D01*
X7817D01*
X7882Y-18434D01*
X8079Y-18500D02*
X8210D01*
X8276Y-18434D01*
Y-18303D01*
X8210Y-18238D01*
X8079D01*
X8014Y-18303D01*
Y-18434D01*
X8079Y-18500D01*
X8407D02*
Y-18238D01*
X8473D01*
X8538Y-18303D01*
Y-18500D01*
Y-18303D01*
X8604Y-18238D01*
X8669Y-18303D01*
Y-18500D01*
X8801Y-18631D02*
Y-18238D01*
X8997D01*
X9063Y-18303D01*
Y-18434D01*
X8997Y-18500D01*
X8801D01*
X7620Y-17606D02*
Y-18000D01*
X7882D01*
X8014Y-17738D02*
Y-17934D01*
X8079Y-18000D01*
X8276D01*
Y-17738D01*
X8407Y-18000D02*
Y-17738D01*
X8473D01*
X8538Y-17803D01*
Y-18000D01*
Y-17803D01*
X8604Y-17738D01*
X8669Y-17803D01*
Y-18000D01*
X8866Y-17738D02*
X8997D01*
X9063Y-17803D01*
Y-18000D01*
X8866D01*
X8801Y-17934D01*
X8866Y-17869D01*
X9063D01*
X7095Y-17172D02*
X7030Y-17106D01*
X6898D01*
X6833Y-17172D01*
Y-17434D01*
X6898Y-17500D01*
X7030D01*
X7095Y-17434D01*
X7226Y-17106D02*
Y-17500D01*
Y-17303D01*
X7292Y-17238D01*
X7423D01*
X7489Y-17303D01*
Y-17500D01*
X7620Y-17238D02*
Y-17500D01*
Y-17369D01*
X7686Y-17303D01*
X7751Y-17238D01*
X7817D01*
X8079Y-17500D02*
X8210D01*
X8276Y-17434D01*
Y-17303D01*
X8210Y-17238D01*
X8079D01*
X8014Y-17303D01*
Y-17434D01*
X8079Y-17500D01*
X8407D02*
Y-17238D01*
X8473D01*
X8538Y-17303D01*
Y-17500D01*
Y-17303D01*
X8604Y-17238D01*
X8669Y-17303D01*
Y-17500D01*
X8866Y-17238D02*
X8997D01*
X9063Y-17303D01*
Y-17500D01*
X8866D01*
X8801Y-17434D01*
X8866Y-17369D01*
X9063D01*
X8262Y-16722D02*
X8197Y-16656D01*
X8066D01*
X8000Y-16722D01*
Y-16984D01*
X8066Y-17050D01*
X8197D01*
X8262Y-16984D01*
Y-16853D01*
X8131D01*
X8394Y-17050D02*
Y-16656D01*
X8656Y-17050D01*
Y-16656D01*
X8787D02*
Y-17050D01*
X8984D01*
X9050Y-16984D01*
Y-16722D01*
X8984Y-16656D01*
X8787D01*
X7292Y-16500D02*
Y-16238D01*
X7423Y-16106D01*
X7554Y-16238D01*
Y-16500D01*
Y-16303D01*
X7292D01*
X7686Y-16238D02*
Y-16434D01*
X7751Y-16500D01*
X7948D01*
Y-16238D01*
X8342Y-16106D02*
Y-16500D01*
X8145D01*
X8079Y-16434D01*
Y-16303D01*
X8145Y-16238D01*
X8342D01*
X8473Y-16500D02*
X8604D01*
X8538D01*
Y-16238D01*
X8473D01*
X8866Y-16500D02*
X8997D01*
X9063Y-16434D01*
Y-16303D01*
X8997Y-16238D01*
X8866D01*
X8801Y-16303D01*
Y-16434D01*
X8866Y-16500D01*
X19921Y-8630D02*
X20066D01*
X19993D01*
Y-8197D01*
X19921Y-8269D01*
X20282Y-8630D02*
X20426D01*
X20354D01*
Y-8197D01*
X20282Y-8269D01*
X13189Y-8630D02*
X13333D01*
X13261D01*
Y-8197D01*
X13189Y-8269D01*
X9464Y-15720D02*
Y-15864D01*
Y-15792D01*
X9897D01*
X9825Y-15720D01*
X6142Y-12992D02*
Y-13136D01*
Y-13064D01*
X6575D01*
X6503Y-12992D01*
D46*
X7293Y-6929D02*
G03*
X7293Y-6929I-49J0D01*
G01*
D47*
X6072Y-6898D02*
Y-6050D01*
Y-4250D02*
Y-3338D01*
X70D02*
X6072D01*
X70Y-6898D02*
Y-3338D01*
Y-6898D02*
X6072D01*
X1706Y-16732D02*
X1562D01*
X1634D01*
Y-17093D01*
X1562Y-17165D01*
X1489D01*
X1417Y-17093D01*
X1850D02*
X1922Y-17165D01*
X2067D01*
X2139Y-17093D01*
Y-16805D01*
X2067Y-16732D01*
X1922D01*
X1850Y-16805D01*
Y-16877D01*
X1922Y-16949D01*
X2139D01*
X15879Y-1260D02*
X15735D01*
X15807D01*
Y-1621D01*
X15735Y-1693D01*
X15663D01*
X15591Y-1621D01*
X16023Y-1332D02*
X16096Y-1260D01*
X16240D01*
X16312Y-1332D01*
Y-1404D01*
X16240Y-1476D01*
X16312Y-1549D01*
Y-1621D01*
X16240Y-1693D01*
X16096D01*
X16023Y-1621D01*
Y-1549D01*
X16096Y-1476D01*
X16023Y-1404D01*
Y-1332D01*
X16096Y-1476D02*
X16240D01*
X17139Y-1260D02*
X16995D01*
X17067D01*
Y-1621D01*
X16995Y-1693D01*
X16923D01*
X16850Y-1621D01*
X17283Y-1260D02*
X17572D01*
Y-1332D01*
X17283Y-1621D01*
Y-1693D01*
X17031Y-19528D02*
Y-19239D01*
X16959Y-19167D01*
X16814D01*
X16742Y-19239D01*
Y-19528D01*
X16814Y-19600D01*
X16959D01*
X16886Y-19456D02*
X17031Y-19600D01*
X16959D02*
X17031Y-19528D01*
X17175Y-19600D02*
X17319D01*
X17247D01*
Y-19167D01*
X17175Y-19239D01*
X9883Y-22139D02*
Y-21994D01*
Y-22066D01*
X9522D01*
X9450Y-21994D01*
Y-21922D01*
X9522Y-21850D01*
X9811Y-22283D02*
X9883Y-22355D01*
Y-22499D01*
X9811Y-22572D01*
X9739D01*
X9666Y-22499D01*
Y-22427D01*
Y-22499D01*
X9594Y-22572D01*
X9522D01*
X9450Y-22499D01*
Y-22355D01*
X9522Y-22283D01*
X16635Y-11565D02*
Y-11276D01*
X16779Y-11132D01*
X16924Y-11276D01*
Y-11565D01*
Y-11348D01*
X16635D01*
X17068Y-11276D02*
Y-11493D01*
X17140Y-11565D01*
X17356D01*
Y-11276D01*
X17789Y-11132D02*
Y-11565D01*
X17573D01*
X17501Y-11493D01*
Y-11348D01*
X17573Y-11276D01*
X17789D01*
X17934Y-11565D02*
X18078D01*
X18006D01*
Y-11276D01*
X17934D01*
X18367Y-11565D02*
X18511D01*
X18583Y-11493D01*
Y-11348D01*
X18511Y-11276D01*
X18367D01*
X18294Y-11348D01*
Y-11493D01*
X18367Y-11565D01*
X18727D02*
X18872D01*
X18800D01*
Y-11132D01*
X18727Y-11204D01*
X16635Y-10515D02*
Y-10226D01*
X16779Y-10082D01*
X16924Y-10226D01*
Y-10515D01*
Y-10298D01*
X16635D01*
X17068Y-10226D02*
Y-10443D01*
X17140Y-10515D01*
X17356D01*
Y-10226D01*
X17789Y-10082D02*
Y-10515D01*
X17573D01*
X17501Y-10443D01*
Y-10298D01*
X17573Y-10226D01*
X17789D01*
X17934Y-10515D02*
X18078D01*
X18006D01*
Y-10226D01*
X17934D01*
X18367Y-10515D02*
X18511D01*
X18583Y-10443D01*
Y-10298D01*
X18511Y-10226D01*
X18367D01*
X18294Y-10298D01*
Y-10443D01*
X18367Y-10515D01*
X19016D02*
X18727D01*
X19016Y-10226D01*
Y-10154D01*
X18944Y-10082D01*
X18800D01*
X18727Y-10154D01*
X10478Y-8143D02*
X10406Y-8071D01*
X10262D01*
X10190Y-8143D01*
Y-8432D01*
X10262Y-8504D01*
X10406D01*
X10478Y-8432D01*
X10623Y-8504D02*
X10767D01*
X10695D01*
Y-8071D01*
X10623Y-8143D01*
X22293Y-9072D02*
X22221Y-9000D01*
X22077D01*
X22005Y-9072D01*
Y-9361D01*
X22077Y-9433D01*
X22221D01*
X22293Y-9361D01*
X22438Y-9072D02*
X22510Y-9000D01*
X22654D01*
X22726Y-9072D01*
Y-9144D01*
X22654Y-9216D01*
X22582D01*
X22654D01*
X22726Y-9288D01*
Y-9361D01*
X22654Y-9433D01*
X22510D01*
X22438Y-9361D01*
X20489Y-4958D02*
X20417Y-4885D01*
X20273D01*
X20200Y-4958D01*
Y-5246D01*
X20273Y-5318D01*
X20417D01*
X20489Y-5246D01*
X20922Y-4885D02*
X20778Y-4958D01*
X20633Y-5102D01*
Y-5246D01*
X20705Y-5318D01*
X20850D01*
X20922Y-5246D01*
Y-5174D01*
X20850Y-5102D01*
X20633D01*
X20816Y-6139D02*
X20744Y-6067D01*
X20599D01*
X20527Y-6139D01*
Y-6428D01*
X20599Y-6500D01*
X20744D01*
X20816Y-6428D01*
X20960Y-6067D02*
X21249D01*
Y-6139D01*
X20960Y-6428D01*
Y-6500D01*
X10083Y-14239D02*
X10011Y-14167D01*
X9866D01*
X9794Y-14239D01*
Y-14528D01*
X9866Y-14600D01*
X10011D01*
X10083Y-14528D01*
Y-14384D01*
X9939D01*
X10227Y-14600D02*
Y-14167D01*
X10516Y-14600D01*
Y-14167D01*
X10660D02*
Y-14600D01*
X10877D01*
X10949Y-14528D01*
Y-14239D01*
X10877Y-14167D01*
X10660D01*
X5722Y-7087D02*
X5577D01*
X5650D01*
Y-7448D01*
X5577Y-7520D01*
X5505D01*
X5433Y-7448D01*
X5866Y-7520D02*
X6010D01*
X5938D01*
Y-7087D01*
X5866Y-7159D01*
X20648Y-22060D02*
Y-21916D01*
Y-21988D01*
X20287D01*
X20215Y-21916D01*
Y-21843D01*
X20287Y-21771D01*
X20215Y-22493D02*
Y-22204D01*
X20503Y-22493D01*
X20576D01*
X20648Y-22421D01*
Y-22276D01*
X20576Y-22204D01*
X7257Y-14965D02*
X7113D01*
X7185D01*
Y-15325D01*
X7113Y-15398D01*
X7041D01*
X6969Y-15325D01*
X7618Y-15398D02*
Y-14965D01*
X7401Y-15181D01*
X7690D01*
X5481Y-15967D02*
X5336D01*
X5408D01*
Y-16328D01*
X5336Y-16400D01*
X5264D01*
X5192Y-16328D01*
X5914Y-15967D02*
X5625D01*
Y-16184D01*
X5769Y-16111D01*
X5841D01*
X5914Y-16184D01*
Y-16328D01*
X5841Y-16400D01*
X5697D01*
X5625Y-16328D01*
X13900Y-19600D02*
Y-19167D01*
X14116D01*
X14188Y-19239D01*
Y-19384D01*
X14116Y-19456D01*
X13900D01*
X14044D02*
X14188Y-19600D01*
X14333D02*
X14477D01*
X14405D01*
Y-19167D01*
X14333Y-19239D01*
X13900Y-20600D02*
Y-20167D01*
X14116D01*
X14188Y-20239D01*
Y-20384D01*
X14116Y-20456D01*
X13900D01*
X14044D02*
X14188Y-20600D01*
X14621D02*
X14333D01*
X14621Y-20311D01*
Y-20239D01*
X14549Y-20167D01*
X14405D01*
X14333Y-20239D01*
X12235Y-10515D02*
Y-10082D01*
X12451D01*
X12524Y-10154D01*
Y-10298D01*
X12451Y-10371D01*
X12235D01*
X12379D02*
X12524Y-10515D01*
X12956Y-10154D02*
X12884Y-10082D01*
X12740D01*
X12668Y-10154D01*
Y-10443D01*
X12740Y-10515D01*
X12884D01*
X12956Y-10443D01*
X13101Y-10515D02*
Y-10226D01*
X13245Y-10082D01*
X13389Y-10226D01*
Y-10515D01*
Y-10298D01*
X13101D01*
X13534Y-10587D02*
X13822D01*
X13967Y-10515D02*
Y-10226D01*
X14111Y-10082D01*
X14255Y-10226D01*
Y-10515D01*
Y-10298D01*
X13967D01*
X12200Y-12570D02*
Y-12137D01*
X12416D01*
X12489Y-12209D01*
Y-12354D01*
X12416Y-12426D01*
X12200D01*
X12344D02*
X12489Y-12570D01*
X12922Y-12209D02*
X12849Y-12137D01*
X12705D01*
X12633Y-12209D01*
Y-12498D01*
X12705Y-12570D01*
X12849D01*
X12922Y-12498D01*
X13066Y-12570D02*
Y-12281D01*
X13210Y-12137D01*
X13354Y-12281D01*
Y-12570D01*
Y-12354D01*
X13066D01*
X13499Y-12642D02*
X13787D01*
X13932Y-12570D02*
Y-12137D01*
X14148D01*
X14220Y-12209D01*
Y-12354D01*
X14148Y-12426D01*
X13932D01*
X14076D02*
X14220Y-12570D01*
X14653Y-12137D02*
X14365D01*
Y-12354D01*
X14509D01*
X14365D01*
Y-12570D01*
X12229Y-11565D02*
Y-11132D01*
X12445D01*
X12518Y-11204D01*
Y-11348D01*
X12445Y-11421D01*
X12229D01*
X12373D02*
X12518Y-11565D01*
X12951Y-11204D02*
X12878Y-11132D01*
X12734D01*
X12662Y-11204D01*
Y-11493D01*
X12734Y-11565D01*
X12878D01*
X12951Y-11493D01*
X13095Y-11565D02*
Y-11276D01*
X13239Y-11132D01*
X13383Y-11276D01*
Y-11565D01*
Y-11348D01*
X13095D01*
X13528Y-11637D02*
X13816D01*
X13961Y-11132D02*
Y-11421D01*
X14105Y-11565D01*
X14249Y-11421D01*
Y-11132D01*
X15350Y-16800D02*
Y-16406D01*
X15547D01*
X15612Y-16472D01*
Y-16603D01*
X15547Y-16669D01*
X15350D01*
X15481D02*
X15612Y-16800D01*
X16006Y-16406D02*
X15875D01*
X15940D01*
Y-16734D01*
X15875Y-16800D01*
X15809D01*
X15744Y-16734D01*
X16137Y-16800D02*
Y-16538D01*
X16268Y-16406D01*
X16400Y-16538D01*
Y-16800D01*
Y-16603D01*
X16137D01*
X16531D02*
X16793D01*
X16924Y-16406D02*
X17055D01*
X16990D01*
Y-16800D01*
X16924D01*
X17055D01*
X17252D02*
Y-16406D01*
X17515Y-16800D01*
Y-16406D01*
X17646D02*
X17908D01*
X17777D01*
Y-16800D01*
X12075Y-16813D02*
Y-16419D01*
X12272D01*
X12338Y-16485D01*
Y-16616D01*
X12272Y-16682D01*
X12075D01*
X12206D02*
X12338Y-16813D01*
X12731Y-16419D02*
X12600D01*
X12666D01*
Y-16747D01*
X12600Y-16813D01*
X12534D01*
X12469Y-16747D01*
X12862Y-16419D02*
Y-16682D01*
X12994Y-16813D01*
X13125Y-16682D01*
Y-16419D01*
X13256Y-16616D02*
X13518D01*
X13649Y-16419D02*
X13781D01*
X13715D01*
Y-16813D01*
X13649D01*
X13781D01*
X13977D02*
Y-16419D01*
X14240Y-16813D01*
Y-16419D01*
X14371D02*
X14633D01*
X14502D01*
Y-16813D01*
X11400Y-19700D02*
Y-19306D01*
X11597D01*
X11662Y-19372D01*
Y-19503D01*
X11597Y-19569D01*
X11400D01*
X11531D02*
X11662Y-19700D01*
X12056Y-19372D02*
X11990Y-19306D01*
X11859D01*
X11794Y-19372D01*
Y-19438D01*
X11859Y-19503D01*
X11990D01*
X12056Y-19569D01*
Y-19634D01*
X11990Y-19700D01*
X11859D01*
X11794Y-19634D01*
X12187Y-19306D02*
Y-19372D01*
X12318Y-19503D01*
X12450Y-19372D01*
Y-19306D01*
X12318Y-19503D02*
Y-19700D01*
X12581D02*
Y-19306D01*
X12843Y-19700D01*
Y-19306D01*
X13237Y-19372D02*
X13171Y-19306D01*
X13040D01*
X12974Y-19372D01*
Y-19634D01*
X13040Y-19700D01*
X13171D01*
X13237Y-19634D01*
X4304Y-8497D02*
X4232Y-8425D01*
X4088D01*
X4016Y-8497D01*
Y-8570D01*
X4088Y-8642D01*
X4232D01*
X4304Y-8714D01*
Y-8786D01*
X4232Y-8858D01*
X4088D01*
X4016Y-8786D01*
X4449Y-8425D02*
Y-8858D01*
X4593Y-8714D01*
X4737Y-8858D01*
Y-8425D01*
X4882Y-8858D02*
X5026D01*
X4954D01*
Y-8425D01*
X4882Y-8497D01*
X25867Y-4557D02*
X26228D01*
X26300Y-4485D01*
Y-4341D01*
X26228Y-4269D01*
X25867D01*
X26300Y-4125D02*
Y-3980D01*
Y-4052D01*
X25867D01*
X25939Y-4125D01*
X16635Y-12132D02*
Y-12421D01*
X16779Y-12565D01*
X16924Y-12421D01*
Y-12132D01*
X17068Y-12565D02*
X17212D01*
X17140D01*
Y-12276D01*
X17068D01*
X17717Y-12132D02*
Y-12565D01*
X17501D01*
X17429Y-12493D01*
Y-12348D01*
X17501Y-12276D01*
X17717D01*
X18078Y-12565D02*
X17934D01*
X17862Y-12493D01*
Y-12348D01*
X17934Y-12276D01*
X18078D01*
X18150Y-12348D01*
Y-12421D01*
X17862D01*
X18367Y-12565D02*
X18511D01*
X18583Y-12493D01*
Y-12348D01*
X18511Y-12276D01*
X18367D01*
X18294Y-12348D01*
Y-12493D01*
X18367Y-12565D01*
X12926Y-7087D02*
X12782D01*
X12854D01*
Y-7448D01*
X12782Y-7520D01*
X12710D01*
X12638Y-7448D01*
X13359Y-7087D02*
X13215Y-7159D01*
X13071Y-7303D01*
Y-7448D01*
X13143Y-7520D01*
X13287D01*
X13359Y-7448D01*
Y-7375D01*
X13287Y-7303D01*
X13071D01*
X6536Y-4488D02*
X6969D01*
Y-4272D01*
X6896Y-4200D01*
X6608D01*
X6536Y-4272D01*
Y-4488D01*
X6969Y-4055D02*
Y-3911D01*
Y-3983D01*
X6536D01*
X6608Y-4055D01*
X12075Y-14209D02*
Y-13816D01*
X12272D01*
X12338Y-13881D01*
Y-14013D01*
X12272Y-14078D01*
X12075D01*
X12206D02*
X12338Y-14209D01*
X12731Y-13816D02*
X12600D01*
X12666D01*
Y-14144D01*
X12600Y-14209D01*
X12534D01*
X12469Y-14144D01*
X12862Y-13816D02*
Y-14078D01*
X12994Y-14209D01*
X13125Y-14078D01*
Y-13816D01*
X13256Y-14013D02*
X13518D01*
X13912Y-13816D02*
X13649D01*
Y-14209D01*
X13912D01*
X13649Y-14013D02*
X13781D01*
X14043Y-13816D02*
X14305Y-14209D01*
Y-13816D02*
X14043Y-14209D01*
X14437Y-13816D02*
X14699D01*
X14568D01*
Y-14209D01*
X15344Y-14174D02*
Y-13780D01*
X15541D01*
X15607Y-13846D01*
Y-13977D01*
X15541Y-14042D01*
X15344D01*
X15476D02*
X15607Y-14174D01*
X16000Y-13780D02*
X15869D01*
X15935D01*
Y-14108D01*
X15869Y-14174D01*
X15804D01*
X15738Y-14108D01*
X16132Y-14174D02*
Y-13911D01*
X16263Y-13780D01*
X16394Y-13911D01*
Y-14174D01*
Y-13977D01*
X16132D01*
X16525D02*
X16788D01*
X17181Y-13780D02*
X16919D01*
Y-14174D01*
X17181D01*
X16919Y-13977D02*
X17050D01*
X17312Y-13780D02*
X17575Y-14174D01*
Y-13780D02*
X17312Y-14174D01*
X17706Y-13780D02*
X17968D01*
X17837D01*
Y-14174D01*
X17835Y-4921D02*
Y-4633D01*
X17979Y-4488D01*
X18123Y-4633D01*
Y-4921D01*
Y-4705D01*
X17835D01*
X11535Y-4488D02*
Y-4777D01*
X11680Y-4921D01*
X11824Y-4777D01*
Y-4488D01*
X4567Y-3117D02*
X4639Y-3189D01*
X4783D01*
X4856Y-3117D01*
Y-2828D01*
X4783Y-2756D01*
X4639D01*
X4567Y-2828D01*
Y-2900D01*
X4639Y-2973D01*
X4856D01*
X5000Y-2756D02*
Y-3045D01*
X5144Y-3189D01*
X5288Y-3045D01*
Y-2756D01*
X5433Y-3189D02*
Y-2900D01*
X5577Y-2756D01*
X5721Y-2900D01*
Y-3189D01*
Y-2973D01*
X5433D01*
X6154Y-2828D02*
X6082Y-2756D01*
X5938D01*
X5866Y-2828D01*
Y-3117D01*
X5938Y-3189D01*
X6082D01*
X6154Y-3117D01*
X18950Y-20800D02*
Y-20328D01*
X19186D01*
X19265Y-20406D01*
Y-20564D01*
X19186Y-20643D01*
X18950D01*
X19422Y-20328D02*
Y-20643D01*
X19580Y-20800D01*
X19737Y-20643D01*
Y-20328D01*
X18950Y-19350D02*
Y-18878D01*
X19186D01*
X19265Y-18956D01*
Y-19114D01*
X19186Y-19193D01*
X18950D01*
X19422Y-19350D02*
Y-19035D01*
X19580Y-18878D01*
X19737Y-19035D01*
Y-19350D01*
Y-19114D01*
X19422D01*
X18500Y-17328D02*
Y-17643D01*
X18657Y-17800D01*
X18815Y-17643D01*
Y-17328D01*
X19287Y-17485D02*
X19051D01*
X18972Y-17564D01*
Y-17721D01*
X19051Y-17800D01*
X19287D01*
X19759Y-17485D02*
X19523D01*
X19445Y-17564D01*
Y-17721D01*
X19523Y-17800D01*
X19759D01*
X18500Y-16200D02*
Y-15728D01*
X18736D01*
X18815Y-15806D01*
Y-15964D01*
X18736Y-16043D01*
X18500D01*
X19287Y-15806D02*
X19208Y-15728D01*
X19051D01*
X18972Y-15806D01*
Y-15885D01*
X19051Y-15964D01*
X19208D01*
X19287Y-16043D01*
Y-16121D01*
X19208Y-16200D01*
X19051D01*
X18972Y-16121D01*
X19759Y-16200D02*
X19445D01*
X19759Y-15885D01*
Y-15806D01*
X19681Y-15728D01*
X19523D01*
X19445Y-15806D01*
X18500Y-14650D02*
Y-14178D01*
X18736D01*
X18815Y-14256D01*
Y-14414D01*
X18736Y-14493D01*
X18500D01*
X19287Y-14256D02*
X19208Y-14178D01*
X19051D01*
X18972Y-14256D01*
Y-14335D01*
X19051Y-14414D01*
X19208D01*
X19287Y-14493D01*
Y-14571D01*
X19208Y-14650D01*
X19051D01*
X18972Y-14571D01*
X19445Y-14650D02*
X19602D01*
X19523D01*
Y-14178D01*
X19445Y-14256D01*
X9646Y-6010D02*
X9979D01*
X7638D02*
X7971D01*
X7804Y-5843D02*
Y-6177D01*
X866Y-354D02*
X787Y-276D01*
X630D01*
X551Y-354D01*
Y-433D01*
X630Y-512D01*
X787D01*
X866Y-591D01*
Y-669D01*
X787Y-748D01*
X630D01*
X551Y-669D01*
X1023Y-905D02*
Y-433D01*
X1260D01*
X1338Y-512D01*
Y-669D01*
X1260Y-748D01*
X1023D01*
X1496D02*
X1653D01*
X1574D01*
Y-433D01*
X1496D01*
X1889Y-748D02*
Y-433D01*
X2125D01*
X2204Y-512D01*
Y-748D01*
X2362D02*
Y-276D01*
Y-591D02*
X2598Y-433D01*
X2362Y-591D02*
X2598Y-748D01*
X2834D02*
X3070D01*
X3149Y-669D01*
X3070Y-591D01*
X2913D01*
X2834Y-512D01*
X2913Y-433D01*
X3149D01*
X3778Y-748D02*
Y-276D01*
X4093Y-748D01*
Y-276D01*
X4566D02*
X4251D01*
Y-748D01*
X4566D01*
X4251Y-512D02*
X4408D01*
X5038Y-354D02*
X4959Y-276D01*
X4802D01*
X4723Y-354D01*
Y-433D01*
X4802Y-512D01*
X4959D01*
X5038Y-591D01*
Y-669D01*
X4959Y-748D01*
X4802D01*
X4723Y-669D01*
X5668Y-748D02*
Y-276D01*
X5904D01*
X5982Y-354D01*
Y-512D01*
X5904Y-591D01*
X5668D01*
X6219Y-748D02*
X6376D01*
X6455Y-669D01*
Y-512D01*
X6376Y-433D01*
X6219D01*
X6140Y-512D01*
Y-669D01*
X6219Y-748D01*
X6612Y-433D02*
Y-669D01*
X6691Y-748D01*
X6770Y-669D01*
X6848Y-748D01*
X6927Y-669D01*
Y-433D01*
X7321Y-748D02*
X7163D01*
X7085Y-669D01*
Y-512D01*
X7163Y-433D01*
X7321D01*
X7399Y-512D01*
Y-591D01*
X7085D01*
X7557Y-433D02*
Y-748D01*
Y-591D01*
X7635Y-512D01*
X7714Y-433D01*
X7793D01*
X8501Y-748D02*
Y-276D01*
X8738D01*
X8816Y-354D01*
Y-512D01*
X8738Y-591D01*
X8501D01*
X9289Y-354D02*
X9210Y-276D01*
X9052D01*
X8974Y-354D01*
Y-669D01*
X9052Y-748D01*
X9210D01*
X9289Y-669D01*
X9446Y-276D02*
Y-748D01*
X9682D01*
X9761Y-669D01*
Y-591D01*
X9682Y-512D01*
X9446D01*
X9682D01*
X9761Y-433D01*
Y-354D01*
X9682Y-276D01*
X9446D01*
X551Y-1181D02*
Y-1496D01*
Y-1339D01*
X630Y-1260D01*
X709Y-1181D01*
X787D01*
X1260Y-1496D02*
X1102D01*
X1023Y-1417D01*
Y-1260D01*
X1102Y-1181D01*
X1260D01*
X1338Y-1260D01*
Y-1339D01*
X1023D01*
X1496Y-1181D02*
X1653Y-1496D01*
X1811Y-1181D01*
X2440Y-1496D02*
X2598D01*
X2519D01*
Y-1024D01*
X2440Y-1102D01*
X2834Y-1260D02*
X3149D01*
X3306Y-1496D02*
X3464D01*
X3385D01*
Y-1024D01*
X3306Y-1102D01*
X3700Y-1260D02*
X4015D01*
X4172Y-1102D02*
X4251Y-1024D01*
X4408D01*
X4487Y-1102D01*
Y-1417D01*
X4408Y-1496D01*
X4251D01*
X4172Y-1417D01*
Y-1102D01*
X551Y-2165D02*
X630Y-2244D01*
X787D01*
X866Y-2165D01*
Y-1851D01*
X787Y-1772D01*
X630D01*
X551Y-1851D01*
Y-1929D01*
X630Y-2008D01*
X866D01*
X1023Y-2244D02*
X1338Y-1929D01*
X1496Y-2244D02*
X1653D01*
X1574D01*
Y-1772D01*
X1496Y-1851D01*
X2204Y-2244D02*
X1889D01*
X2204Y-1929D01*
Y-1851D01*
X2125Y-1772D01*
X1968D01*
X1889Y-1851D01*
X2362Y-2244D02*
X2676Y-1929D01*
X3149Y-2244D02*
X2834D01*
X3149Y-1929D01*
Y-1851D01*
X3070Y-1772D01*
X2913D01*
X2834Y-1851D01*
X3306D02*
X3385Y-1772D01*
X3542D01*
X3621Y-1851D01*
Y-2165D01*
X3542Y-2244D01*
X3385D01*
X3306Y-2165D01*
Y-1851D01*
X3778Y-2244D02*
X3936D01*
X3857D01*
Y-1772D01*
X3778Y-1851D01*
X4172Y-1772D02*
X4487D01*
Y-1851D01*
X4172Y-2165D01*
Y-2244D01*
D48*
X21614Y-6220D02*
D03*
X22638D02*
D03*
M02*
